<?xml version="1.0" standalone="no"?>
<!DOCTYPE svg PUBLIC "-//W3C//DTD SVG 1.1//EN" "http://www.w3.org/Graphics/SVG/1.1/DTD/svg11.dtd" >
<svg xmlns="http://www.w3.org/2000/svg" xmlns:xlink="http://www.w3.org/1999/xlink" version="1.1">
<metadata>
Created by FontForge 20190801 at Wed Nov 21 15:06:34 2018
 By Jimmy Wärting
Copyright 2018 IBM Corp. All rights reserved.
</metadata>
<defs>
<font id="IBMPlexSans-ExtraLight" horiz-adv-x="600" >
  <font-face 
    font-family="IBM Plex Sans ExtraLight"
    font-weight="200"
    font-stretch="normal"
    units-per-em="1000"
    panose-1="2 11 3 3 5 2 3 0 2 3"
    ascent="780"
    descent="-220"
    x-height="508"
    cap-height="698"
    bbox="-236 -220 1180 1098"
    underline-thickness="26"
    underline-position="-176"
    unicode-range="U+000D-FB02"
  />
<missing-glyph horiz-adv-x="472" 
d="M32 0v780h408v-780h-408zM58 26h356v728h-356v-728z" />
    <glyph glyph-name="fi" unicode="fi" horiz-adv-x="524" 
d="M121 477h-91v31h91v181q0 51 49 51h100v-31h-114v-201h267v-508h-35v477h-232v-477h-35v477zM406 665q-16 0 -23 7.5t-7 18.5v9q0 11 6.5 18.5t22.5 7.5t23 -7.5t7 -18.5v-9q0 -11 -6.5 -18.5t-22.5 -7.5z" />
    <glyph glyph-name=".notdef" horiz-adv-x="472" 
d="M32 0v780h408v-780h-408zM58 26h356v728h-356v-728z" />
    <glyph glyph-name=".null" horiz-adv-x="0" 
 />
    <glyph glyph-name=".null" horiz-adv-x="0" 
 />
    <glyph glyph-name="uni000D" unicode="&#xd;" horiz-adv-x="236" 
 />
    <glyph glyph-name="space" unicode=" " horiz-adv-x="236" 
 />
    <glyph glyph-name="a" unicode="a" horiz-adv-x="522" 
d="M431 0q-41 0 -43 42v37h-4q-18 -39 -57 -65t-105 -26q-79 0 -122 38t-43 107q0 33 10 60t33.5 46.5t61 30t92.5 10.5h133v68q0 72 -35 106.5t-104 34.5q-107 0 -148 -90l-25 17q21 47 62 75.5t112 28.5q85 0 129 -43.5t44 -124.5v-321h78v-31h-69zM225 19q33 0 62.5 8.5
t51.5 24.5t35 40t13 56v104h-133q-84 0 -122 -28.5t-38 -75.5v-28q0 -50 36.5 -75.5t94.5 -25.5z" />
    <glyph glyph-name="a.alt01" horiz-adv-x="567" 
d="M432 79h-3q-17 -36 -57 -63.5t-104 -27.5q-100 0 -155.5 67.5t-55.5 198.5t55.5 198.5t155.5 67.5q64 0 104 -27t57 -64h3v79h35v-508h-35v79zM273 20q32 0 61 9t50.5 26t34.5 40.5t13 52.5v214q0 28 -13 51.5t-34.5 40t-50.5 26t-61 9.5q-85 0 -131.5 -55.5
t-46.5 -150.5v-58q0 -95 46.5 -150t131.5 -55z" />
    <glyph glyph-name="b" unicode="b" horiz-adv-x="567" 
d="M100 740h35v-311h3q17 37 57 64t104 27q100 0 155.5 -67.5t55.5 -198.5t-55.5 -198.5t-155.5 -67.5q-64 0 -104 27.5t-57 63.5h-3v-79h-35v740zM294 20q85 0 131.5 55t46.5 150v58q0 95 -46.5 150.5t-131.5 55.5q-32 0 -61 -9.5t-50.5 -26t-34.5 -40t-13 -51.5v-214
q0 -29 13 -52.5t34.5 -40.5t50.5 -26t61 -9z" />
    <glyph glyph-name="c" unicode="c" horiz-adv-x="491" 
d="M272 -12q-102 0 -158.5 68t-56.5 198q0 131 56.5 198.5t158.5 67.5q64 0 106 -28.5t65 -76.5l-29 -15q-22 43 -55.5 66t-86.5 23q-86 0 -131.5 -56t-45.5 -150v-58q0 -94 45.5 -150t131.5 -56q57 0 93.5 23.5t59.5 65.5l26 -18q-25 -46 -68 -74t-111 -28z" />
    <glyph glyph-name="d" unicode="d" horiz-adv-x="567" 
d="M432 79h-3q-17 -36 -57 -63.5t-104 -27.5q-100 0 -155.5 67.5t-55.5 198.5t55.5 198.5t155.5 67.5q64 0 104 -27t57 -64h3v311h35v-740h-35v79zM273 20q32 0 61 9t50.5 26t34.5 40.5t13 52.5v214q0 28 -13 51.5t-34.5 40t-50.5 26t-61 9.5q-85 0 -131.5 -55.5
t-46.5 -150.5v-58q0 -95 46.5 -150t131.5 -55z" />
    <glyph glyph-name="e" unicode="e" horiz-adv-x="537" 
d="M275 -12q-101 0 -159.5 68t-58.5 198q0 129 57 197.5t157 68.5q47 0 85.5 -18t66 -51t42.5 -79.5t15 -103.5v-16h-386v-27q0 -47 12 -85t35.5 -65t57 -41.5t76.5 -14.5q121 0 167 116l27 -15q-23 -60 -72 -96t-122 -36zM271 489q-42 0 -74.5 -14.5t-55.5 -41.5t-35 -65
t-12 -84v-4h348v6q0 46 -12.5 83.5t-35 64t-54 41t-69.5 14.5z" />
    <glyph glyph-name="f" unicode="f" horiz-adv-x="294" 
d="M121 477h-91v31h91v181q0 51 49 51h100v-31h-114v-201h114v-31h-114v-477h-35v477z" />
    <glyph glyph-name="g" unicode="g" horiz-adv-x="528" 
d="M506 -63q0 -77 -62.5 -113t-179.5 -36q-114 0 -165 35t-51 94q0 45 25 73.5t70 42.5v4q-51 17 -51 69q0 35 25.5 56t60.5 31v3q-44 20 -68.5 58t-24.5 95q0 39 12.5 70.5t35.5 54t56 34.5t74 12q66 0 108 -30v40q0 37 35 37h97v-31h-108v-64q23 -23 35.5 -54t12.5 -69
t-13 -69.5t-36.5 -54t-56.5 -35t-73 -12.5q-15 0 -28 2t-27 5q-41 -11 -63 -29t-22 -45q0 -21 18 -36.5t67 -15.5h129q89 0 128.5 -32.5t39.5 -89.5zM471 -65q0 43 -29.5 67t-105.5 24h-159q-42 -11 -68 -36.5t-26 -68.5q0 -45 40 -73.5t113 -28.5h55q40 0 73 7t57 21t37 36
t13 52zM264 209q66 0 103 34t37 88v36q0 54 -37 88t-103 34q-67 0 -103.5 -34t-36.5 -88v-36q0 -54 37 -88t103 -34z" />
    <glyph glyph-name="g.alt01" horiz-adv-x="567" 
d="M467 -4q0 -100 -51.5 -154t-152.5 -54q-63 0 -105 17.5t-72 49.5l21 25q28 -29 63 -45t92 -16q84 0 127 43.5t43 131.5v85h-3q-17 -36 -57 -63.5t-104 -27.5q-100 0 -155.5 67.5t-55.5 198.5t55.5 198.5t155.5 67.5q64 0 104 -27t57 -64h3v79h35v-512zM274 20q31 0 60 9
t50.5 26t34.5 40.5t13 52.5v214q0 28 -13 51.5t-34.5 40t-50.5 26t-60 9.5q-86 0 -132.5 -55.5t-46.5 -150.5v-58q0 -94 46.5 -149.5t132.5 -55.5z" />
    <glyph glyph-name="g.alt02" horiz-adv-x="528" 
d="M506 -63q0 -77 -62.5 -113t-179.5 -36q-114 0 -165 35t-51 94q0 45 25 73.5t70 42.5v4q-51 17 -51 69q0 35 25.5 56t60.5 31v3q-44 20 -68.5 58t-24.5 95q0 39 12.5 70.5t35.5 54t56 34.5t74 12t74 -12h165v-29h-119q33 -29 46.5 -61t13.5 -69q0 -38 -13 -69.5t-36.5 -54
t-56.5 -35t-73 -12.5q-15 0 -28 2t-27 5q-41 -11 -63 -29t-22 -45q0 -21 18 -36.5t67 -15.5h129q89 0 128.5 -32.5t39.5 -89.5zM264 209q66 0 103 34t37 88v36q0 54 -37 88t-103 34q-67 0 -103.5 -34t-36.5 -88v-36q0 -54 37 -88t103 -34zM471 -65q0 43 -29.5 67t-105.5 24
h-159q-42 -11 -68 -36.5t-26 -68.5q0 -45 40 -73.5t113 -28.5h55q40 0 73 7t57 21t37 36t13 52z" />
    <glyph glyph-name="h" unicode="h" horiz-adv-x="559" 
d="M100 740h35v-310h3q15 37 52.5 63.5t103.5 26.5q84 0 128.5 -49.5t44.5 -144.5v-326h-35v320q0 88 -37.5 128.5t-108.5 40.5q-29 0 -56.5 -8t-48.5 -24t-33.5 -40t-12.5 -56v-361h-35v740z" />
    <glyph glyph-name="i" unicode="i" horiz-adv-x="235" 
d="M118 665q-16 0 -23 7.5t-7 18.5v9q0 11 6.5 18.5t22.5 7.5t23 -7.5t7 -18.5v-9q0 -11 -6.5 -18.5t-22.5 -7.5zM100 508h35v-508h-35v508z" />
    <glyph glyph-name="j" unicode="j" horiz-adv-x="235" 
d="M100 508h35v-657q0 -51 -48 -51h-72v31h85v677zM118 665q-16 0 -23 7.5t-7 18.5v9q0 11 6.5 18.5t22.5 7.5t23 -7.5t7 -18.5v-9q0 -11 -6.5 -18.5t-22.5 -7.5z" />
    <glyph glyph-name="k" unicode="k" horiz-adv-x="499" 
d="M100 740h35v-508h3l80 81l193 195h44l-209 -211l234 -297h-43l-216 274l-86 -85v-189h-35v740z" />
    <glyph glyph-name="l" unicode="l" horiz-adv-x="255" 
d="M143 0q-43 0 -43 42v698h35v-709h83v-31h-75z" />
    <glyph glyph-name="m" unicode="m" horiz-adv-x="878" 
d="M100 0v508h35v-78h3q7 18 19.5 34t30.5 28.5t42.5 20t57.5 7.5q60 0 101 -27.5t58 -82.5h3q14 48 54.5 79t109.5 31q84 0 128 -49.5t44 -144.5v-326h-35v321q0 86 -36 127t-108 41q-29 0 -55.5 -8t-46.5 -24t-32 -40.5t-12 -56.5v-360h-35v321q0 87 -37 127.5t-107 40.5
q-29 0 -55.5 -8t-47 -24t-32.5 -40t-12 -56v-361h-35z" />
    <glyph glyph-name="n" unicode="n" horiz-adv-x="559" 
d="M100 0v508h35v-78h3q15 37 52.5 63.5t103.5 26.5q84 0 128.5 -49.5t44.5 -144.5v-326h-35v320q0 88 -37.5 128.5t-108.5 40.5q-29 0 -56.5 -8t-48.5 -24t-33.5 -40t-12.5 -56v-361h-35z" />
    <glyph glyph-name="o" unicode="o" horiz-adv-x="544" 
d="M272 -12q-100 0 -157.5 68t-57.5 198q0 131 57.5 198.5t157.5 67.5t157.5 -67.5t57.5 -198.5q0 -130 -57.5 -198t-157.5 -68zM272 19q85 0 131 55.5t46 152.5v54q0 98 -46 153t-131 55t-131 -55t-46 -153v-54q0 -97 46 -152.5t131 -55.5z" />
    <glyph glyph-name="p" unicode="p" horiz-adv-x="567" 
d="M100 508h35v-79h3q17 37 57 64t104 27q100 0 155.5 -67.5t55.5 -198.5t-55.5 -198.5t-155.5 -67.5q-64 0 -104 27.5t-57 63.5h-3v-279h-35v708zM294 20q85 0 131.5 55t46.5 150v58q0 95 -46.5 150.5t-131.5 55.5q-32 0 -61 -9.5t-50.5 -26t-34.5 -40t-13 -51.5v-214
q0 -29 13 -52.5t34.5 -40.5t50.5 -26t61 -9z" />
    <glyph glyph-name="q" unicode="q" horiz-adv-x="567" 
d="M432 79h-3q-17 -36 -57 -63.5t-104 -27.5q-100 0 -155.5 67.5t-55.5 198.5t55.5 198.5t155.5 67.5q64 0 104 -27t57 -64h3v79h35v-708h-35v279zM273 20q32 0 61 9t50.5 26t34.5 40.5t13 52.5v214q0 28 -13 51.5t-34.5 40t-50.5 26t-61 9.5q-85 0 -131.5 -55.5
t-46.5 -150.5v-58q0 -95 46.5 -150t131.5 -55z" />
    <glyph glyph-name="r" unicode="r" horiz-adv-x="347" 
d="M100 0v508h35v-89h4q16 36 52 62.5t104 26.5h38v-33h-44q-31 0 -59 -8t-49 -24t-33.5 -39.5t-12.5 -54.5v-349h-35z" />
    <glyph glyph-name="s" unicode="s" horiz-adv-x="468" 
d="M237 -12q-63 0 -109.5 23t-81.5 72l27 20q34 -45 72.5 -64.5t92.5 -19.5q68 0 103 28t35 81q0 51 -29.5 76t-90.5 35l-43 7q-34 5 -61.5 15t-47 26.5t-30 40.5t-10.5 58q0 33 12.5 58t35 42t53 25.5t65.5 8.5q64 0 104 -22.5t66 -52.5l-25 -23q-11 13 -24.5 25
t-30.5 21.5t-39.5 15t-51.5 5.5q-60 0 -95.5 -26t-35.5 -76q0 -51 30 -74.5t91 -33.5l43 -7q71 -11 109.5 -43.5t38.5 -97.5q0 -68 -46 -105.5t-127 -37.5z" />
    <glyph glyph-name="t" unicode="t" horiz-adv-x="320" 
d="M165 0q-43 0 -43 42v435h-92v31h66q17 0 22.5 7t5.5 24v113h33v-144h119v-31h-119v-446h111v-31h-103z" />
    <glyph glyph-name="u" unicode="u" horiz-adv-x="559" 
d="M424 78h-4q-7 -17 -19.5 -33.5t-31 -29t-44.5 -20t-60 -7.5q-84 0 -129 49.5t-45 144.5v326h35v-320q0 -88 38 -128.5t109 -40.5q29 0 56.5 8t48.5 23.5t33.5 40t12.5 57.5v360h35v-508h-35v78z" />
    <glyph glyph-name="v" unicode="v" horiz-adv-x="461" 
d="M23 508h37l170 -470h3l170 470h35l-187 -508h-41z" />
    <glyph glyph-name="w" unicode="w" horiz-adv-x="735" 
d="M34 508h36l135 -472h3l143 472h34l144 -472h3l135 472h34l-150 -508h-43l-139 456h-3l-139 -456h-43z" />
    <glyph glyph-name="x" unicode="x" horiz-adv-x="479" 
d="M31 0l189 256l-183 252h41l161 -223h2l162 223h40l-183 -250l188 -258h-41l-166 229h-2l-168 -229h-40z" />
    <glyph glyph-name="y" unicode="y" horiz-adv-x="462" 
d="M403 508h35l-248 -675q-8 -18 -19 -25.5t-33 -7.5h-74v31h90l60 159l-191 518h37l170 -470h3z" />
    <glyph glyph-name="z" unicode="z" horiz-adv-x="428" 
d="M28 0v32l327 445h-317v31h357v-30l-328 -447h337v-31h-376z" />
    <glyph glyph-name="A" unicode="A" horiz-adv-x="610" 
d="M541 0l-81 227h-311l-81 -227h-38l251 698h48l251 -698h-39zM306 662h-4l-143 -403h291z" />
    <glyph glyph-name="B" unicode="B" horiz-adv-x="624" 
d="M104 698h261q78 0 121 -44.5t43 -127.5q0 -69 -28.5 -106t-72.5 -50v-3q59 -10 95 -53.5t36 -121.5q0 -87 -45.5 -139.5t-129.5 -52.5h-280v698zM141 33h237q36 0 62.5 11t44.5 30t26.5 44t8.5 53v40q0 28 -8.5 53.5t-26.5 44.5t-44.5 30t-62.5 11h-237v-317zM141 382
h221q32 0 56 10t40 26.5t24 38.5t8 47v40q0 25 -8 47t-24 38.5t-40 26t-56 9.5h-221v-283z" />
    <glyph glyph-name="C" unicode="C" horiz-adv-x="613" 
d="M331 -12q-126 0 -195 90t-69 270t69 271t195 91q80 0 136.5 -39.5t85.5 -105.5l-31 -17q-26 60 -74.5 94.5t-116.5 34.5q-105 0 -164.5 -76t-59.5 -225v-56q0 -149 59.5 -224t164.5 -75q73 0 122.5 36.5t74.5 100.5l30 -16q-29 -70 -86.5 -112t-140.5 -42z" />
    <glyph glyph-name="D" unicode="D" horiz-adv-x="661" 
d="M104 698h212q138 0 208 -87.5t70 -261.5t-70 -261.5t-208 -87.5h-212v698zM316 33q60 0 104.5 19.5t74.5 56t44.5 88.5t14.5 116v72q0 64 -14.5 116t-44.5 88.5t-74.5 56t-104.5 19.5h-175v-632h175z" />
    <glyph glyph-name="E" unicode="E" horiz-adv-x="566" 
d="M104 0v698h392v-33h-355v-294h341v-33h-341v-305h355v-33h-392z" />
    <glyph glyph-name="F" unicode="F" horiz-adv-x="541" 
d="M104 0v698h384v-33h-347v-294h329v-33h-329v-338h-37z" />
    <glyph glyph-name="G" unicode="G" horiz-adv-x="673" 
d="M560 111h-3q-25 -57 -78.5 -90t-136.5 -33q-131 0 -203 90.5t-72 270.5t72.5 270.5t204.5 90.5q85 0 145 -39.5t89 -105.5l-30 -17q-26 61 -79.5 95t-124.5 34q-110 0 -173.5 -76t-63.5 -222v-59q0 -146 63 -222.5t175 -76.5q43 0 82 11.5t68 35t46.5 58.5t17.5 82v97
h-171v33h207v-338h-35v111z" />
    <glyph glyph-name="H" unicode="H" horiz-adv-x="695" 
d="M554 338h-413v-338h-37v698h37v-327h413v327h37v-698h-37v338z" />
    <glyph glyph-name="I" unicode="I" horiz-adv-x="379" 
d="M66 0v31h105v636h-105v31h247v-31h-105v-636h105v-31h-247z" />
    <glyph glyph-name="J" unicode="J" horiz-adv-x="475" 
d="M378 698v-515q0 -95 -48 -145t-131 -50q-33 0 -62 9.5t-52 27.5t-39 42.5t-23 53.5l33 9q14 -47 50.5 -78t93.5 -31q70 0 105.5 42.5t35.5 122.5v479h-245v33h282z" />
    <glyph glyph-name="K" unicode="K" horiz-adv-x="587" 
d="M268 377l-127 -139v-238h-37v698h37v-414h2l123 137l248 277h46l-267 -296l273 -402h-44z" />
    <glyph glyph-name="L" unicode="L" horiz-adv-x="481" 
d="M104 0v698h37v-665h319v-33h-356z" />
    <glyph glyph-name="M" unicode="M" horiz-adv-x="800" 
d="M660 653h-4l-256 -433l-256 432h-4v-652h-36v698h52l243 -410h4l242 410h51v-698h-36v653z" />
    <glyph glyph-name="N" unicode="N" horiz-adv-x="696" 
d="M143 650h-3v-650h-36v698h49l400 -650h3v650h36v-698h-50z" />
    <glyph glyph-name="O" unicode="O" horiz-adv-x="686" 
d="M343 -12q-131 0 -203.5 90.5t-72.5 270.5t72.5 270.5t203.5 90.5t203.5 -90.5t72.5 -270.5t-72.5 -270.5t-203.5 -90.5zM343 21q109 0 172.5 76t63.5 222v60q0 146 -63.5 222t-172.5 76t-172.5 -76t-63.5 -222v-60q0 -146 63.5 -222t172.5 -76z" />
    <glyph glyph-name="P" unicode="P" horiz-adv-x="597" 
d="M104 0v698h271q88 0 133.5 -51.5t45.5 -139.5t-45.5 -139.5t-133.5 -51.5h-234v-316h-37zM141 349h234q35 0 61 11t43.5 29.5t26 43.5t8.5 52v44q0 27 -8.5 52t-26 43.5t-43.5 29.5t-61 11h-234v-316z" />
    <glyph glyph-name="Q" unicode="Q" horiz-adv-x="686" 
d="M468 -150h-98q-42 0 -42 41v97q-125 5 -193 95.5t-68 265.5q0 180 72.5 270.5t203.5 90.5t203.5 -90.5t72.5 -270.5q0 -173 -67 -263t-188 -97v-107h104v-32zM343 21q109 0 172.5 76t63.5 222v60q0 146 -63.5 222t-172.5 76t-172.5 -76t-63.5 -222v-60q0 -146 63.5 -222
t172.5 -76z" />
    <glyph glyph-name="R" unicode="R" horiz-adv-x="632" 
d="M141 0h-37v698h271q88 0 133.5 -51t45.5 -139q0 -85 -42.5 -135t-125.5 -54l185 -319h-42l-182 317h-206v-317zM375 349q35 0 61 11t43.5 29.5t26 43.5t8.5 52v44q0 27 -8.5 52t-26 43.5t-43.5 29.5t-61 11h-234v-316h234z" />
    <glyph glyph-name="S" unicode="S" horiz-adv-x="555" 
d="M279 -12q-86 0 -142.5 32.5t-94.5 83.5l28 22q37 -48 85.5 -76.5t124.5 -28.5q88 0 135.5 40.5t47.5 118.5q0 39 -12 66t-33 44.5t-49 28t-60 16.5l-67 13q-51 10 -86 27.5t-56.5 41t-31 52t-9.5 61.5q0 45 15.5 79t44 56.5t68.5 33.5t89 11q78 0 129.5 -27t82.5 -73
l-28 -20q-30 42 -75 64.5t-111 22.5q-84 0 -131 -36t-47 -110q0 -37 12 -62.5t32.5 -42.5t48.5 -27.5t61 -16.5l67 -13q53 -11 88.5 -29t56.5 -42t29.5 -53t8.5 -62q0 -95 -59.5 -145t-161.5 -50z" />
    <glyph glyph-name="T" unicode="T" horiz-adv-x="563" 
d="M300 665v-665h-37v665h-245v33h527v-33h-245z" />
    <glyph glyph-name="U" unicode="U" horiz-adv-x="658" 
d="M134 698v-430q0 -66 9.5 -113t32.5 -77t60 -43.5t93 -13.5q55 0 92.5 13.5t60.5 43.5t32.5 77t9.5 113v430h37v-424q0 -77 -12 -131.5t-39.5 -89t-72 -50t-109.5 -15.5t-109 15.5t-71 50t-39 89t-12 131.5v424h37z" />
    <glyph glyph-name="V" unicode="V" horiz-adv-x="580" 
d="M265 0l-237 698h40l220 -659h4l221 659h39l-239 -698h-48z" />
    <glyph glyph-name="W" unicode="W" horiz-adv-x="877" 
d="M210 0l-182 698h39l166 -650h3l178 650h48l178 -650h3l168 650h38l-184 -698h-46l-180 657h-3l-181 -657h-45z" />
    <glyph glyph-name="X" unicode="X" horiz-adv-x="571" 
d="M544 0h-44l-213 325h-2l-215 -325h-43l236 354l-228 344h44l206 -312h2l206 312h43l-227 -341z" />
    <glyph glyph-name="Y" unicode="Y" horiz-adv-x="557" 
d="M260 0v290l-241 408h42l216 -368h3l217 368h41l-241 -408v-290h-37z" />
    <glyph glyph-name="Z" unicode="Z" horiz-adv-x="561" 
d="M531 0h-493v35l434 630h-411v33h451v-35l-434 -630h453v-33z" />
    <glyph glyph-name="zero" unicode="0" 
d="M300 -12q-113 0 -172.5 87t-59.5 274t59.5 274t172.5 87t172.5 -87t59.5 -274t-59.5 -274t-172.5 -87zM300 21q96 0 144 74t48 216v76q0 142 -48 216t-144 74t-144 -74t-48 -216v-76q0 -142 48 -216t144 -74z" />
    <glyph glyph-name="zero.alt01" 
d="M300 -12q-113 0 -172.5 87t-59.5 274t59.5 274t172.5 87t172.5 -87t59.5 -274t-59.5 -274t-172.5 -87zM300 21q96 0 144 74t48 216v76q0 142 -48 216t-144 74t-144 -74t-48 -216v-76q0 -142 48 -216t144 -74zM300 316q-17 0 -24.5 8t-7.5 21v8q0 13 7.5 21t24.5 8
t24.5 -8t7.5 -21v-8q0 -13 -7.5 -21t-24.5 -8z" />
    <glyph glyph-name="zero.alt02" 
d="M300 -12q-113 0 -172.5 87t-59.5 274t59.5 274t172.5 87t172.5 -87t59.5 -274t-59.5 -274t-172.5 -87zM300 677q-96 0 -144 -74t-48 -216v-76q0 -39 3.5 -72.5t11.5 -62.5l345 379q-46 122 -168 122zM300 21q96 0 144 74t48 216v76q0 39 -3.5 72.5t-11.5 62.5l-345 -379
q46 -122 168 -122z" />
    <glyph glyph-name="one" unicode="1" 
d="M92 0v33h213v638h-4l-206 -177l-22 25l209 179h60v-665h203v-33h-453z" />
    <glyph glyph-name="two" unicode="2" 
d="M524 0h-440v37l259 257q51 50 80 101t29 105v26q0 33 -10 60.5t-30 47.5t-50 31.5t-69 11.5q-75 0 -116.5 -37t-60.5 -97l-33 10q9 33 26.5 62t43.5 50t61 33t80 12q96 0 146.5 -52.5t50.5 -143.5q0 -71 -32.5 -128.5t-92.5 -115.5l-241 -237h399v-33z" />
    <glyph glyph-name="three" unicode="3" 
d="M275 382q37 0 67.5 10.5t52.5 29t33.5 44t11.5 55.5v20q0 63 -43 99.5t-112 36.5q-66 0 -105 -26t-62 -70l-28 17q22 47 70 79.5t125 32.5q43 0 79 -12t61.5 -34.5t39.5 -55t14 -72.5q0 -73 -39 -114t-100 -53v-4q68 -9 111 -54t43 -123q0 -46 -15 -83t-43 -63t-68 -40
t-89 -14q-77 0 -129 28.5t-87 81.5l29 20q31 -49 75.5 -73t111.5 -24q80 0 127.5 42t47.5 112v23q0 69 -46.5 110.5t-129.5 41.5h-92v32h89z" />
    <glyph glyph-name="four" unicode="4" 
d="M403 0v155h-358v33l344 510h48v-512h114v-31h-114v-155h-34zM80 186h323v475h-2z" />
    <glyph glyph-name="five" unicode="5" 
d="M485 665h-319l-23 -318h4q29 38 67 54.5t94 16.5q95 0 149 -55.5t54 -155.5q0 -50 -15 -90.5t-43 -69t-67.5 -44t-88.5 -15.5q-77 0 -129 28.5t-86 81.5l29 20q31 -49 75 -73t111 -24q84 0 129.5 47.5t45.5 124.5v23q0 77 -43.5 123.5t-126.5 46.5q-60 0 -94.5 -17
t-62.5 -51l-35 5l26 375h349v-33z" />
    <glyph glyph-name="six" unicode="6" 
d="M300 -12q-56 0 -97 18.5t-68 51t-40 77.5t-13 98q0 83 21.5 153.5t58.5 128.5t85.5 103.5t102.5 79.5h50q-60 -39 -106.5 -80t-80.5 -87.5t-56.5 -99t-33.5 -114.5l3 -1q26 51 71.5 78t108.5 27q48 0 86.5 -14.5t66 -42.5t42.5 -67.5t15 -88.5q0 -50 -15 -90.5t-43.5 -69
t-68.5 -44.5t-89 -16zM299 21q42 0 75 12.5t56 35.5t35 54t12 69v26q0 37 -12 68.5t-35 54t-56 35.5t-75 13t-75 -13t-56 -35.5t-35 -54t-12 -68.5v-24q0 -38 12.5 -69.5t35.5 -54.5t56 -36t74 -13z" />
    <glyph glyph-name="seven" unicode="7" 
d="M184 0l294 666h-368v-158h-35v190h441v-33l-292 -665h-40z" />
    <glyph glyph-name="eight" unicode="8" 
d="M300 -12q-54 0 -97 14t-73 39.5t-45.5 61.5t-15.5 79q0 74 40.5 121t110.5 61v5q-60 14 -94 57t-34 109q0 81 55.5 128t152.5 47t152.5 -47t55.5 -128q0 -66 -34 -109t-94 -57v-5q70 -14 110.5 -61t40.5 -121q0 -43 -15.5 -79t-45.5 -61.5t-73 -39.5t-97 -14zM300 21
q89 0 140.5 41.5t51.5 110.5v25q0 69 -51.5 110.5t-140.5 41.5t-140.5 -41.5t-51.5 -110.5v-25q0 -69 51.5 -110.5t140.5 -41.5zM300 382q78 0 123.5 37t45.5 100v22q0 63 -45.5 99.5t-123.5 36.5t-123.5 -36.5t-45.5 -99.5v-22q0 -63 45.5 -100t123.5 -37z" />
    <glyph glyph-name="nine" unicode="9" 
d="M520 465q0 -83 -21.5 -153.5t-58 -128.5t-85 -103.5t-102.5 -79.5h-50q59 39 105.5 80t80.5 87.5t56.5 99t34.5 114.5l-4 1q-26 -51 -71 -78t-108 -27q-48 0 -86.5 14.5t-66.5 42.5t-43 67t-15 89q0 49 15 90t43.5 69.5t68 44.5t89.5 16q56 0 97 -18.5t68 -51t40 -77.5
t13 -98zM303 309q42 0 75.5 13t56 35.5t34.5 54t12 68.5v24q0 38 -12.5 69.5t-35.5 54.5t-56 36t-74 13q-42 0 -75 -12.5t-56 -35.5t-35 -54.5t-12 -68.5v-26q0 -37 12 -68.5t35 -54t56 -35.5t75 -13z" />
    <glyph glyph-name="ampersand" unicode="&#x26;" horiz-adv-x="681" 
d="M495 108q-15 -25 -36 -47t-49 -38t-61.5 -25.5t-73.5 -9.5q-47 0 -85 13.5t-64.5 37.5t-41 57.5t-14.5 73.5q0 41 13 71.5t35.5 54.5t52 42.5t62.5 34.5q-45 48 -69.5 88.5t-24.5 89.5q0 35 12 64t34.5 50t54.5 33t71 12q37 0 67 -11t51 -30t32.5 -45t11.5 -56
q0 -36 -14 -64.5t-38.5 -52t-59 -44t-76.5 -40.5l205 -206q17 40 24.5 90t8.5 104h115v-32h-85q-3 -53 -12.5 -99t-27.5 -87l134 -137h-46zM310 680q-32 0 -57 -9.5t-42 -25.5t-26.5 -38t-9.5 -47v-16q0 -40 26 -77.5t63 -78.5q37 17 68.5 35.5t55 39.5t36.5 44t13 50v13
q0 26 -10.5 46.5t-27.5 34.5t-40.5 21.5t-48.5 7.5zM108 161q0 -32 12.5 -58t35 -44.5t53 -28.5t67.5 -10q70 0 119 28.5t79 80.5l-220 223q-30 -15 -56.5 -31t-46.5 -35.5t-31.5 -45.5t-11.5 -60v-19z" />
    <glyph glyph-name="at" unicode="@" horiz-adv-x="883" 
d="M677 -121h-235q-80 0 -148 28t-118 82t-78.5 131.5t-28.5 176.5q0 95 28 171.5t78.5 130t119.5 82.5t150 29q74 0 141 -24t117.5 -72t80.5 -119.5t30 -166.5q0 -54 -8.5 -101t-26.5 -82t-46.5 -55.5t-68.5 -20.5q-41 0 -65.5 22.5t-29.5 58.5h-3q-16 -32 -48 -56.5
t-85 -24.5q-79 0 -126 54.5t-47 163.5q0 112 47 166.5t126 54.5q53 0 84.5 -23t45.5 -52h3v64h32v-326q0 -35 18 -54.5t51 -19.5q54 0 84.5 55t30.5 154v47q0 74 -26 135t-71 104t-106.5 66.5t-133.5 23.5q-74 0 -137 -27t-109 -74.5t-72 -113t-26 -142.5v-54
q0 -81 25.5 -148t71 -115t108 -74.5t136.5 -26.5h235v-28zM436 98q27 0 51 8.5t41.5 24t27.5 37.5t10 49v143q0 27 -10 48.5t-27.5 37.5t-41.5 24.5t-51 8.5q-69 0 -104 -45t-35 -123v-48q0 -76 35 -120.5t104 -44.5z" />
    <glyph glyph-name="hyphen" unicode="-" horiz-adv-x="396" 
d="M80 287v36h236v-36h-236z" />
    <glyph glyph-name="uni00AD" unicode="&#xad;" horiz-adv-x="396" 
d="M80 287v36h236v-36h-236z" />
    <glyph glyph-name="endash" unicode="&#x2013;" horiz-adv-x="588" 
d="M36 289v32h516v-32h-516z" />
    <glyph glyph-name="emdash" unicode="&#x2014;" horiz-adv-x="780" 
d="M36 289v32h708v-32h-708z" />
    <glyph glyph-name="underscore" unicode="_" horiz-adv-x="568" 
d="M30 -147v30h508v-30h-508z" />
    <glyph glyph-name="period" unicode="." horiz-adv-x="248" 
d="M124 -7q-17 0 -26 9t-9 24v9q0 15 9 24t26 9t26 -9t9 -24v-9q0 -15 -9 -24t-26 -9z" />
    <glyph glyph-name="ellipsis" unicode="&#x2026;" horiz-adv-x="744" 
d="M124 -7q-17 0 -26 9t-9 24v9q0 15 9 24t26 9t26 -9t9 -24v-9q0 -15 -9 -24t-26 -9zM372 -7q-17 0 -26 9t-9 24v9q0 15 9 24t26 9t26 -9t9 -24v-9q0 -15 -9 -24t-26 -9zM620 -7q-17 0 -26 9t-9 24v9q0 15 9 24t26 9t26 -9t9 -24v-9q0 -15 -9 -24t-26 -9z" />
    <glyph glyph-name="colon" unicode=":" horiz-adv-x="268" 
d="M134 -7q-17 0 -26 9t-9 24v9q0 15 9 24t26 9t26 -9t9 -24v-9q0 -15 -9 -24t-26 -9zM134 440q-17 0 -26 9t-9 24v9q0 15 9 24t26 9t26 -9t9 -24v-9q0 -15 -9 -24t-26 -9z" />
    <glyph glyph-name="comma" unicode="," horiz-adv-x="248" 
d="M124 68q18 0 26.5 -9.5t8.5 -24.5v-12q0 -42 -23 -88t-58 -78h-30q36 36 52.5 72.5t21.5 65.5q-18 1 -25.5 10t-7.5 20v10q0 15 8 24.5t27 9.5z" />
    <glyph glyph-name="semicolon" unicode=";" horiz-adv-x="268" 
d="M134 68q18 0 26.5 -9.5t8.5 -24.5v-12q0 -42 -23 -88t-58 -78h-30q36 36 52.5 72.5t21.5 65.5q-18 1 -25.5 10t-7.5 20v10q0 15 8 24.5t27 9.5zM134 440q-17 0 -26 9t-9 24v9q0 15 9 24t26 9t26 -9t9 -24v-9q0 -15 -9 -24t-26 -9z" />
    <glyph glyph-name="uni037E" unicode="&#x37e;" horiz-adv-x="268" 
d="M134 68q18 0 26.5 -9.5t8.5 -24.5v-12q0 -42 -23 -88t-58 -78h-30q36 36 52.5 72.5t21.5 65.5q-18 1 -25.5 10t-7.5 20v10q0 15 8 24.5t27 9.5zM134 425q-17 0 -26 9t-9 24v9q0 15 9 24t26 9t26 -9t9 -24v-9q0 -15 -9 -24t-26 -9z" />
    <glyph glyph-name="quotesingle" unicode="'" horiz-adv-x="225" 
d="M96 483v257h33v-257h-33z" />
    <glyph glyph-name="quotedbl" unicode="&#x22;" horiz-adv-x="384" 
d="M96 483v257h33v-257h-33zM254 483v257h33v-257h-33z" />
    <glyph glyph-name="uni2032" unicode="&#x2032;" horiz-adv-x="225" 
d="M68 384l57 314h33l-57 -314h-33z" />
    <glyph glyph-name="uni2033" unicode="&#x2033;" horiz-adv-x="384" 
d="M68 384l57 314h33l-57 -314h-33zM227 384l57 314h33l-57 -314h-33z" />
    <glyph glyph-name="quoteleft" unicode="&#x2018;" horiz-adv-x="248" 
d="M119 528q-18 0 -26 9.5t-8 24.5v12q0 42 22.5 88t57.5 78h30q-36 -36 -52.5 -72t-21.5 -66q19 -1 26.5 -9.5t7.5 -20.5v-10q0 -15 -8.5 -24.5t-27.5 -9.5z" />
    <glyph glyph-name="quoteright" unicode="&#x2019;" horiz-adv-x="248" 
d="M129 750q18 0 26 -9.5t8 -24.5v-12q0 -42 -22.5 -88t-57.5 -78h-30q36 36 52.5 72t21.5 66q-19 1 -26.5 9.5t-7.5 20.5v10q0 15 8.5 24.5t27.5 9.5z" />
    <glyph glyph-name="quotedblleft" unicode="&#x201c;" horiz-adv-x="418" 
d="M119 528q-18 0 -26 9.5t-8 24.5v12q0 42 22.5 88t57.5 78h30q-36 -36 -52.5 -72t-21.5 -66q19 -1 26.5 -9.5t7.5 -20.5v-10q0 -15 -8.5 -24.5t-27.5 -9.5zM288 528q-18 0 -26 9.5t-8 24.5v12q0 42 22.5 88t57.5 78h30q-36 -36 -52.5 -72t-21.5 -66q19 -1 26.5 -9.5
t7.5 -20.5v-10q0 -15 -8.5 -24.5t-27.5 -9.5z" />
    <glyph glyph-name="quotedblright" unicode="&#x201d;" horiz-adv-x="418" 
d="M129 750q18 0 26 -9.5t8 -24.5v-12q0 -42 -22.5 -88t-57.5 -78h-30q36 36 52.5 72t21.5 66q-19 1 -26.5 9.5t-7.5 20.5v10q0 15 8.5 24.5t27.5 9.5zM299 750q18 0 26 -9.5t8 -24.5v-12q0 -42 -22.5 -88t-57.5 -78h-30q36 36 52.5 72t21.5 66q-19 1 -26.5 9.5t-7.5 20.5
v10q0 15 8.5 24.5t27.5 9.5z" />
    <glyph glyph-name="quotesinglbase" unicode="&#x201a;" horiz-adv-x="248" 
d="M124 82q18 0 26.5 -9.5t8.5 -24.5v-12q0 -42 -23 -88t-58 -78h-30q36 36 53 72.5t21 65.5q-19 1 -26 10t-7 20v10q0 15 8 24.5t27 9.5z" />
    <glyph glyph-name="quotedblbase" unicode="&#x201e;" horiz-adv-x="418" 
d="M124 82q18 0 26.5 -9.5t8.5 -24.5v-12q0 -42 -23 -88t-58 -78h-30q36 36 53 72.5t21 65.5q-19 1 -26 10t-7 20v10q0 15 8 24.5t27 9.5zM293 82q18 0 26.5 -9.5t8.5 -24.5v-12q0 -42 -23 -88t-58 -78h-30q36 36 53 72.5t21 65.5q-19 1 -26 10t-7 20v10q0 15 8 24.5t27 9.5
z" />
    <glyph glyph-name="guilsinglleft" unicode="&#x2039;" horiz-adv-x="295" 
d="M231 100l-197 175v33l197 175l13 -24l-173 -167l173 -168z" />
    <glyph glyph-name="guilsinglright" unicode="&#x203a;" horiz-adv-x="295" 
d="M51 124l173 168l-173 167l13 24l197 -175v-33l-197 -175z" />
    <glyph glyph-name="guillemotleft" unicode="&#xab;" horiz-adv-x="482" 
d="M231 100l-197 175v33l197 175l13 -24l-173 -167l173 -168zM417 100l-197 175v33l197 175l13 -24l-173 -167l173 -168z" />
    <glyph glyph-name="guillemotright" unicode="&#xbb;" horiz-adv-x="482" 
d="M51 124l173 168l-173 167l13 24l197 -175v-33l-197 -175zM237 124l173 168l-173 167l13 24l197 -175v-33l-197 -175z" />
    <glyph glyph-name="exclamdown" unicode="&#xa1;" horiz-adv-x="260" 
d="M139 330l9 -256v-264h-37v264l9 256h19zM130 515q35 0 35 -33v-9q0 -33 -35 -33t-35 33v9q0 33 35 33z" />
    <glyph glyph-name="exclam" unicode="!" horiz-adv-x="260" 
d="M120 178l-9 256v264h38v-264l-10 -256h-19zM130 -7q-17 0 -26 9t-9 24v9q0 33 35 33t35 -33v-9q0 -15 -9 -24t-26 -9z" />
    <glyph glyph-name="questiondown" unicode="&#xbf;" horiz-adv-x="462" 
d="M225 -202q-88 0 -138.5 49.5t-50.5 131.5q0 90 53.5 141t143.5 61v143h36v-170q-93 -2 -144 -46t-51 -115v-23q0 -63 40 -101.5t112 -38.5q71 0 112 35t58 97l32 -10q-20 -70 -69 -112t-134 -42zM251 440q-35 0 -35 33v9q0 15 9 24t26 9t26 -9t9 -24v-9q0 -33 -35 -33z
" />
    <glyph glyph-name="question" unicode="?" horiz-adv-x="462" 
d="M194 184v170q93 2 144 46t51 115v23q0 63 -40 101.5t-112 38.5q-71 0 -112 -35t-58 -97l-32 10q20 70 69 112t134 42q88 0 138.5 -49.5t50.5 -131.5q0 -90 -53.5 -141t-143.5 -61v-143h-36zM212 -7q-17 0 -26 9t-9 24v9q0 33 35 33t35 -33v-9q0 -15 -9 -24t-26 -9z" />
    <glyph glyph-name="parenleft" unicode="(" horiz-adv-x="333" 
d="M100 311q0 76 15.5 143.5t41 125t58.5 103t68 77.5h37q-38 -34 -71.5 -80t-59 -101.5t-40.5 -117.5t-15 -127v-46q0 -65 15 -127.5t40.5 -117.5t59 -101.5t71.5 -79.5h-37q-35 32 -68 77.5t-58.5 103t-41 125t-15.5 143.5z" />
    <glyph glyph-name="parenright" unicode=")" horiz-adv-x="333" 
d="M233 311q0 -76 -15.5 -143.5t-41 -125t-58.5 -103t-68 -77.5h-37q38 34 71.5 80t59 101.5t40.5 117.5t15 127v46q0 65 -15 127.5t-40.5 117.5t-59 101.5t-71.5 79.5h37q35 -32 68 -77.5t58.5 -103t41 -125t15.5 -143.5z" />
    <glyph glyph-name="bracketleft" unicode="[" horiz-adv-x="305" 
d="M104 -138v898h134v-29h-102v-840h102v-29h-134z" />
    <glyph glyph-name="bracketright" unicode="]" horiz-adv-x="305" 
d="M201 760v-898h-134v29h102v840h-102v29h134z" />
    <glyph glyph-name="braceleft" unicode="{" horiz-adv-x="322" 
d="M159 -138q-38 0 -38 39v296q0 45 -26 65.5t-71 20.5v56q45 0 71 20.5t26 65.5v296q0 39 38 39h97v-29h-103v-304q0 -47 -26.5 -76.5t-71.5 -31.5v-16q45 -2 71.5 -31.5t26.5 -76.5v-304h103v-29h-97z" />
    <glyph glyph-name="braceright" unicode="}" horiz-adv-x="322" 
d="M163 760q38 0 38 -39v-296q0 -45 26 -65.5t71 -20.5v-56q-45 0 -71 -20.5t-26 -65.5v-296q0 -39 -38 -39h-97v29h103v304q0 47 26.5 76.5t71.5 31.5v16q-45 2 -71.5 31.5t-26.5 76.5v304h-103v29h97z" />
    <glyph glyph-name="slash" unicode="/" horiz-adv-x="330" 
d="M12 -151l244 891h32l-244 -891h-32z" />
    <glyph glyph-name="backslash" unicode="\" horiz-adv-x="330" 
d="M280 -151l-240 891h32l240 -891h-32z" />
    <glyph glyph-name="fraction" unicode="&#x2044;" horiz-adv-x="147" 
d="M-170 0l456 698h33l-457 -698h-32z" />
    <glyph glyph-name="percent" unicode="%" horiz-adv-x="892" 
d="M186 0l484 698h36l-484 -698h-36zM218 323q-31 0 -57.5 11.5t-46 35t-30.5 60t-11 87.5q0 50 11 86.5t30.5 60t46 35t57.5 11.5t57.5 -11.5t46 -35t30.5 -60t11 -86.5q0 -51 -11 -87.5t-30.5 -60t-46 -35t-57.5 -11.5zM218 348q23 0 43.5 8.5t35.5 26.5t24 46.5t9 67.5
v39q0 39 -9 67.5t-24 46.5t-35.5 26.5t-43.5 8.5t-43.5 -8.5t-35.5 -26.5t-24 -46.5t-9 -67.5v-39q0 -39 9 -67.5t24 -46.5t35.5 -26.5t43.5 -8.5zM674 -12q-31 0 -57.5 11.5t-46 35t-30.5 60t-11 87.5q0 50 11 86.5t30.5 60t46 35t57.5 11.5t57.5 -11.5t46 -35t30.5 -60
t11 -86.5q0 -51 -11 -87.5t-30.5 -60t-46 -35t-57.5 -11.5zM674 13q23 0 43.5 8.5t35.5 26.5t24 46.5t9 67.5v39q0 39 -9 67.5t-24 46.5t-35.5 26.5t-43.5 8.5t-43.5 -8.5t-35.5 -26.5t-24 -46.5t-9 -67.5v-39q0 -39 9 -67.5t24 -46.5t35.5 -26.5t43.5 -8.5z" />
    <glyph glyph-name="perthousand" unicode="&#x2030;" horiz-adv-x="1253" 
d="M186 0l484 698h36l-484 -698h-36zM218 323q-31 0 -57.5 11.5t-46 35t-30.5 60t-11 87.5q0 50 11 86.5t30.5 60t46 35t57.5 11.5t57.5 -11.5t46 -35t30.5 -60t11 -86.5q0 -51 -11 -87.5t-30.5 -60t-46 -35t-57.5 -11.5zM218 348q23 0 43.5 8.5t35.5 26.5t24 46.5t9 67.5
v39q0 39 -9 67.5t-24 46.5t-35.5 26.5t-43.5 8.5t-43.5 -8.5t-35.5 -26.5t-24 -46.5t-9 -67.5v-39q0 -39 9 -67.5t24 -46.5t35.5 -26.5t43.5 -8.5zM674 -12q-31 0 -57.5 11.5t-46 35t-30.5 60t-11 87.5q0 50 11 86.5t30.5 60t46 35t57.5 11.5t57.5 -11.5t46 -35t30.5 -60
t11 -86.5q0 -51 -11 -87.5t-30.5 -60t-46 -35t-57.5 -11.5zM674 13q23 0 43.5 8.5t35.5 26.5t24 46.5t9 67.5v39q0 39 -9 67.5t-24 46.5t-35.5 26.5t-43.5 8.5t-43.5 -8.5t-35.5 -26.5t-24 -46.5t-9 -67.5v-39q0 -39 9 -67.5t24 -46.5t35.5 -26.5t43.5 -8.5zM1035 -12
q-31 0 -57.5 11.5t-46 35t-30.5 60t-11 87.5q0 50 11 86.5t30.5 60t46 35t57.5 11.5t57.5 -11.5t46 -35t30.5 -60t11 -86.5q0 -51 -11 -87.5t-30.5 -60t-46 -35t-57.5 -11.5zM1035 13q23 0 43.5 8.5t35.5 26.5t24 46.5t9 67.5v39q0 39 -9 67.5t-24 46.5t-35.5 26.5
t-43.5 8.5t-43.5 -8.5t-35.5 -26.5t-24 -46.5t-9 -67.5v-39q0 -39 9 -67.5t24 -46.5t35.5 -26.5t43.5 -8.5z" />
    <glyph glyph-name="bar" unicode="|" horiz-adv-x="255" 
d="M112 -138v898h31v-898h-31z" />
    <glyph glyph-name="brokenbar" unicode="&#xa6;" horiz-adv-x="255" 
d="M112 402v358h31v-358h-31zM112 -138v358h31v-358h-31z" />
    <glyph glyph-name="section" unicode="&#xa7;" horiz-adv-x="570" 
d="M451 260q0 55 -32 85t-96 50l-65 20q-11 3 -21.5 7t-21.5 9q-45 -21 -71 -53.5t-26 -81.5q0 -56 32 -85.5t96 -49.5l65 -20q11 -4 21.5 -7.5t21.5 -8.5q45 21 71 53.5t26 81.5zM450 -9q0 -36 -14 -63.5t-38 -45.5t-56.5 -27t-70.5 -9q-54 0 -92 15t-65 41l21 24
q23 -21 56 -35t81 -14q67 0 105 29t38 85q0 26 -9.5 45t-25.5 33t-38 24t-46 18l-66 21q-71 23 -108.5 58.5t-37.5 99.5q0 55 29 91.5t80 56.5v4q-35 22 -54.5 52t-19.5 71q0 36 14 63.5t38 45.5t56.5 27t70.5 9q54 0 92 -15t65 -41l-21 -25q-23 22 -56 36t-81 14
q-67 0 -105 -29t-38 -85q0 -26 9.5 -45.5t25.5 -33.5t38 -24t46 -17l66 -22q71 -22 109 -57.5t38 -99.5q0 -55 -29.5 -92t-80.5 -57v-3q35 -22 54.5 -52.5t19.5 -70.5z" />
    <glyph glyph-name="paragraph" unicode="&#xb6;" horiz-adv-x="605" 
d="M249 323q-41 0 -77 13t-63 37.5t-42.5 59t-15.5 77.5t15.5 78t42.5 59.5t63 37.5t77 13h262v-30h-68v-817h-33v817h-128v-817h-33v472z" />
    <glyph glyph-name="copyright" unicode="&#xa9;" horiz-adv-x="724" 
d="M362 -12q-71 0 -130 25.5t-102.5 72.5t-67.5 113.5t-24 149.5q0 82 24 149t67.5 114t102.5 72.5t130 25.5t130.5 -25.5t102.5 -72.5t67 -114t24 -149q0 -83 -24 -149.5t-67 -113.5t-102.5 -72.5t-130.5 -25.5zM362 16q65 0 118.5 23.5t92 65t59.5 98t21 122.5v48
q0 66 -21 122.5t-59.5 98t-92 65t-118.5 23.5t-119 -23.5t-92 -65t-59 -98t-21 -122.5v-48q0 -66 21 -122.5t59 -98t92 -65t119 -23.5zM362 150q-71 0 -112 50.5t-41 146.5q0 95 41.5 145.5t112.5 50.5q50 0 81 -23.5t45 -58.5l-26 -12q-13 31 -37.5 48.5t-62.5 17.5
q-56 0 -88.5 -39t-32.5 -114v-31q0 -77 32.5 -115t87.5 -38q39 0 66 18t41 50l24 -14q-15 -35 -48.5 -58.5t-82.5 -23.5z" />
    <glyph glyph-name="registered" unicode="&#xae;" horiz-adv-x="468" 
d="M234 298q-42 0 -78.5 15t-63 42.5t-41.5 65.5t-15 83t15 83t41.5 65.5t63 42.5t78.5 15q43 0 79 -15t62.5 -42.5t41.5 -65.5t15 -83t-15 -83t-41.5 -65.5t-62.5 -42.5t-79 -15zM234 320q37 0 69 13.5t55 36.5t36 55t13 69v20q0 37 -13 69t-36 55t-55 36.5t-69 13.5
q-38 0 -69.5 -13.5t-54.5 -36.5t-36 -55t-13 -69v-20q0 -37 13 -69t36 -55t54.5 -36.5t69.5 -13.5zM189 397h-22v211h83q29 0 46 -15t17 -47q0 -26 -13 -41.5t-33 -17.5l53 -90h-25l-50 88h-56v-88zM249 504q40 0 40 37v11q0 37 -40 37h-60v-85h60z" />
    <glyph glyph-name="trademark" unicode="&#x2122;" horiz-adv-x="643" 
d="M127 427v248h-102v23h231v-23h-102v-248h-27zM322 427v271h33l83 -160h2l84 160h32v-271h-24v233h-3l-90 -171l-90 171h-3v-233h-24z" />
    <glyph glyph-name="ordfeminine" unicode="&#xaa;" horiz-adv-x="364" 
d="M292 362q-29 0 -29 27v22h-2q-11 -21 -37.5 -38t-74.5 -17q-54 0 -81.5 25t-27.5 66q0 45 30.5 70.5t101.5 25.5h90v49q0 45 -24 66t-69 21q-33 0 -58.5 -14t-38.5 -43l-22 14q14 30 43 49t77 19q57 0 89.5 -28.5t32.5 -80.5v-207h44v-26h-44zM152 381q22 0 42 5t35 15
t24 25t9 35v58h-91q-54 0 -77 -17t-23 -47v-12q0 -30 22 -46t59 -16z" />
    <glyph glyph-name="ordmasculine" unicode="&#xba;" horiz-adv-x="374" 
d="M187 356q-68 0 -104.5 46.5t-36.5 127.5t36.5 127.5t104.5 46.5t104.5 -46.5t36.5 -127.5t-36.5 -127.5t-104.5 -46.5zM187 381q27 0 47.5 10.5t34 28t20.5 41t7 49.5v40q0 26 -7 49.5t-20.5 41t-34 28t-47.5 10.5t-47.5 -10.5t-34 -28t-20.5 -41t-7 -49.5v-40
q0 -26 7 -49.5t20.5 -41t34 -28t47.5 -10.5z" />
    <glyph glyph-name="degree" unicode="&#xb0;" horiz-adv-x="466" 
d="M233 372q-35 0 -65 13t-51.5 35.5t-34 53.5t-12.5 67t12.5 67t34 53.5t51.5 35.5t65 13t65 -13t51.5 -35.5t34 -53.5t12.5 -67t-12.5 -67t-34 -53.5t-51.5 -35.5t-65 -13zM233 402q30 0 54 11t41.5 29.5t26.5 44t9 54.5t-9 54.5t-26.5 44t-41.5 29.5t-54 11t-54 -11
t-41.5 -29.5t-26.5 -44t-9 -54.5t9 -54.5t26.5 -44t41.5 -29.5t54 -11z" />
    <glyph glyph-name="asterisk" unicode="*" horiz-adv-x="383" 
d="M101 425l-25 18l94 125l-148 44l9 31l147 -51l-2 155h30l-2 -155l148 51l9 -31l-149 -44l95 -125l-25 -18l-91 127z" />
    <glyph glyph-name="dagger" unicode="&#x2020;" horiz-adv-x="559" 
d="M263 -200v679h-207v29h207v232h33v-232h207v-29h-207v-679h-33z" />
    <glyph glyph-name="daggerdbl" unicode="&#x2021;" horiz-adv-x="559" 
d="M263 -200v232h-207v29h207v418h-207v29h207v232h33v-232h207v-29h-207v-418h207v-29h-207v-232h-33z" />
    <glyph glyph-name="numbersign" unicode="#" horiz-adv-x="711" 
d="M422 216h-178l-38 -216h-31l37 216h-144v29h150l35 208h-146v29h151l37 216h31l-37 -216h178l37 216h32l-38 -216h145v-29h-150l-35 -208h146v-29h-151l-37 -216h-32zM427 245l35 208h-178l-36 -208h179z" />
    <glyph glyph-name="asciicircum" unicode="^" 
d="M508 316l-207 348h-2l-207 -348l-28 15l217 367h38l217 -367z" />
    <glyph glyph-name="asciitilde" unicode="~" 
d="M423 252q-15 0 -29.5 2.5t-29.5 7t-32 11.5t-39 17q-20 9 -35.5 15.5t-29 11t-26.5 7t-27 2.5q-28 0 -49 -9t-44 -31l-18 22q24 25 50.5 37t62.5 12q15 0 29.5 -2.5t29.5 -7t32 -11.5t39 -17q20 -9 35.5 -16t29 -11.5t26.5 -6.5t27 -2q28 0 49 9t44 31l18 -22
q-24 -25 -50.5 -37t-62.5 -12z" />
    <glyph glyph-name="plus" unicode="+" 
d="M283 62v228h-220v31h220v228h34v-228h220v-31h-220v-228h-34z" />
    <glyph glyph-name="minus" unicode="&#x2212;" 
d="M63 290v31h474v-31h-474z" />
    <glyph glyph-name="plusminus" unicode="&#xb1;" 
d="M283 124v225h-220v31h220v226h34v-226h220v-31h-220v-225h-34zM63 0v31h474v-31h-474z" />
    <glyph glyph-name="multiply" unicode="&#xd7;" 
d="M300 283l-176 -177l-22 22l176 177l-176 177l22 22l176 -177l176 177l22 -22l-176 -177l176 -177l-22 -22z" />
    <glyph glyph-name="divide" unicode="&#xf7;" 
d="M63 290v31h474v-31h-474zM300 74q-21 0 -31 9t-10 23v11q0 32 41 32t41 -32v-11q0 -14 -10 -23t-31 -9zM300 461q-21 0 -31 9t-10 23v12q0 14 10 23t31 9t31 -9t10 -23v-12q0 -14 -10 -23t-31 -9z" />
    <glyph glyph-name="equal" unicode="=" 
d="M63 382v31h474v-31h-474zM63 198v31h474v-31h-474z" />
    <glyph glyph-name="approxequal" unicode="&#x2248;" 
d="M423 339q-15 0 -29.5 2.5t-29.5 7t-32 11.5t-39 17q-20 9 -35.5 15.5t-29 11t-26.5 7t-27 2.5q-28 0 -49 -9t-44 -31l-18 22q24 25 50.5 37t62.5 12q15 0 29.5 -2.5t29.5 -7t32 -11.5t39 -17q20 -9 35.5 -16t29 -11.5t26.5 -6.5t27 -2q28 0 49 9t44 31l18 -22
q-24 -25 -50.5 -37t-62.5 -12zM423 167q-15 0 -29.5 2.5t-29.5 7t-32 11.5t-39 17q-20 9 -35.5 15.5t-29 11t-26.5 7t-27 2.5q-28 0 -49 -9t-44 -31l-18 22q24 25 50.5 37t62.5 12q15 0 29.5 -2.5t29.5 -7t32 -11.5t39 -17q20 -9 35.5 -16t29 -11.5t26.5 -6.5t27 -2
q28 0 49 9t44 31l18 -22q-24 -25 -50.5 -37t-62.5 -12z" />
    <glyph glyph-name="notequal" unicode="&#x2260;" 
d="M155 87l66 111h-158v31h175l91 153h-266v31h283l66 111h33l-66 -111h158v-31h-175l-91 -153h266v-31h-283l-66 -111h-33z" />
    <glyph glyph-name="less" unicode="&#x3c;" 
d="M86 282v33l428 256v-38l-392 -233v-3l392 -233v-38z" />
    <glyph glyph-name="greater" unicode="&#x3e;" 
d="M86 64l392 233v3l-392 233v38l428 -256v-33l-428 -256v38z" />
    <glyph glyph-name="lessequal" unicode="&#x2264;" 
d="M86 0v31h428v-31h-428zM514 556l-393 -207v-3l393 -207v-36l-428 227v35l428 227v-36z" />
    <glyph glyph-name="greaterequal" unicode="&#x2265;" 
d="M86 139l393 207v3l-393 207v36l428 -227v-35l-428 -227v36zM86 31h428v-31h-428v31z" />
    <glyph glyph-name="periodcentered" unicode="&#xb7;" horiz-adv-x="306" 
d="M153 268q-17 0 -26 9t-9 24v9q0 15 9 24t26 9t26 -9t9 -24v-9q0 -15 -9 -24t-26 -9z" />
    <glyph glyph-name="anoteleia" unicode="&#x387;" horiz-adv-x="268" 
d="M134 425q-17 0 -26 9t-9 24v9q0 15 9 24t26 9t26 -9t9 -24v-9q0 -15 -9 -24t-26 -9z" />
    <glyph glyph-name="bullet" unicode="&#x2022;" horiz-adv-x="350" 
d="M175 210q-51 0 -73 23.5t-22 58.5v24q0 35 22 58.5t73 23.5t73 -23.5t22 -58.5v-24q0 -35 -22 -58.5t-73 -23.5z" />
    <glyph glyph-name="lozenge" unicode="&#x25ca;" 
d="M282 0l-227 349l227 349h36l227 -349l-227 -349h-36zM302 33l205 316l-205 316h-4l-205 -316l205 -316h4z" />
    <glyph glyph-name="logicalnot" unicode="&#xac;" 
d="M492 98v192h-429v31h462v-223h-33z" />
    <glyph glyph-name="radical" unicode="&#x221a;" 
d="M280 0l-136 478h-116v30h142l134 -472h3l201 662h35l-215 -698h-48z" />
    <glyph glyph-name="integral" unicode="&#x222b;" horiz-adv-x="371" 
d="M50 -169h118v859q0 50 49 50h104v-31h-118v-859q0 -50 -49 -50h-104v31z" />
    <glyph glyph-name="infinity" unicode="&#x221e;" horiz-adv-x="734" 
d="M192 123q-81 0 -124 48.5t-43 133.5t43 133.5t124 48.5q65 0 113 -40.5t67 -112.5h3q17 73 63 113t104 40q81 0 124 -48.5t43 -133.5t-43 -133.5t-124 -48.5q-66 0 -113.5 40.5t-66.5 112.5h-3q-17 -73 -63 -113t-104 -40zM190 154q52 0 94.5 37.5t64.5 113.5
q-22 81 -64.5 116t-94.5 35q-57 0 -93 -34t-36 -97v-40q0 -63 36 -97t93 -34zM544 154q56 0 92.5 34t36.5 97v40q0 63 -36.5 97t-92.5 34q-52 0 -95 -37.5t-64 -113.5q21 -80 64 -115.5t95 -35.5z" />
    <glyph glyph-name="uni212E" unicode="&#x212e;" horiz-adv-x="700" 
d="M116 173q13 -33 35.5 -62t53 -50.5t67.5 -33.5t80 -12q94 0 153.5 40t96.5 106l25 -13q-18 -34 -44 -63.5t-60 -51t-77 -33.5t-94 -12q-70 0 -127 27t-98 75t-63.5 114t-22.5 145t22.5 145t63 114t97.5 75t126 27t126 -27t97.5 -75t63 -114t22.5 -145h-543v-176zM584 376
v152q-26 68 -87 111.5t-147 43.5t-147 -43.5t-87 -111.5v-152h468z" />
    <glyph glyph-name="uni2113" unicode="&#x2113;" horiz-adv-x="466" 
d="M258 -12q-72 0 -103 47.5t-31 127.5v30q-32 -26 -68 -48l-15 26q20 12 41.5 26.5t41.5 32.5v339q0 95 31 139t88 44q114 0 114 -147q0 -53 -15 -105.5t-41.5 -102.5t-63 -96t-79.5 -85v-49q0 -75 23.5 -111.5t77.5 -36.5q28 0 49.5 9t39 24.5t31.5 36t26 43.5l27 -15
q-13 -25 -29 -48t-37 -41t-47.5 -29t-60.5 -11zM244 721q-19 0 -35 -7.5t-27 -25t-17.5 -46.5t-6.5 -71v-316q36 36 66 78t52.5 86t35 90t12.5 91v13q0 57 -21.5 82.5t-58.5 25.5z" />
    <glyph glyph-name="uni2116" unicode="&#x2116;" horiz-adv-x="1014" 
d="M831 366q-71 0 -111 46t-40 127q0 80 40.5 125.5t110.5 45.5t110.5 -45.5t40.5 -125.5q0 -81 -40 -127t-111 -46zM104 0v698h47l396 -650h3v650h35v-698h-47l-396 648h-3v-648h-35zM831 392q29 0 51 10t37 27.5t22.5 40.5t7.5 49v39q0 25 -7.5 48t-22.5 40.5t-37 27.5
t-51 10t-51 -10t-37 -27.5t-22.5 -40.5t-7.5 -48v-39q0 -26 7.5 -49t22.5 -40.5t37 -27.5t51 -10zM694 275v30h274v-30h-274z" />
    <glyph glyph-name="partialdiff" unicode="&#x2202;" horiz-adv-x="580" 
d="M503 253q0 -126 -58 -195.5t-157 -69.5q-49 0 -88.5 17.5t-67.5 50.5t-43.5 81t-15.5 109t15.5 109t43 81t66.5 50.5t87 17.5q49 0 87 -19.5t64 -55.5l3 2q-16 42 -44 80.5t-65.5 72t-82 62t-92.5 52.5h60q42 -24 92 -58.5t94 -87t73 -126.5t29 -173zM288 19
q39 0 71 13.5t56 39.5t37 63.5t13 84.5v52q0 47 -13 84.5t-36.5 63t-56 39.5t-71.5 14t-71.5 -13.5t-56 -39.5t-36.5 -63.5t-13 -84.5v-52q0 -47 13 -84.5t36.5 -63.5t56 -39.5t71.5 -13.5z" />
    <glyph glyph-name="currency" unicode="&#xa4;" horiz-adv-x="592" 
d="M296 127q-94 0 -144 56l-108 -109l-23 23l111 111q-34 54 -34 141t34 141l-111 111l23 23l108 -109q50 56 144 56t144 -56l108 109l23 -23l-111 -111q34 -54 34 -141t-34 -141l111 -111l-23 -23l-108 109q-50 -56 -144 -56zM296 157q76 0 118 44t42 123v50q0 79 -42 123
t-118 44t-118 -44t-42 -123v-50q0 -79 42 -123t118 -44z" />
    <glyph glyph-name="cent" unicode="&#xa2;" horiz-adv-x="492" 
d="M249 -114v103q-92 8 -142 75t-50 190t50 190.5t142 74.5v103h32v-102q60 -2 99.5 -30.5t62.5 -73.5l-29 -15q-22 42 -53.5 64t-80.5 24v-469q54 2 88.5 24.5t57.5 63.5l26 -18q-24 -45 -66 -72.5t-105 -29.5v-102h-32zM95 225q0 -88 39.5 -142.5t114.5 -61.5v466
q-75 -6 -114.5 -61t-39.5 -143v-58z" />
    <glyph glyph-name="Euro" unicode="&#x20ac;" horiz-adv-x="612" 
d="M557 141q-28 -69 -84.5 -111t-141.5 -42q-126 0 -195 91.5t-69 269.5q0 177 69 269t195 92q79 0 135.5 -39.5t85.5 -105.5l-30 -17q-26 60 -74.5 94.5t-116.5 34.5q-94 0 -151.5 -60t-70.5 -175h262v-30h-264q-1 -8 -1 -17v-19v-54v-18t1 -18h264v-30h-262
q13 -115 71 -175t151 -60q73 0 122.5 37t73.5 100l30 -17v0z" />
    <glyph glyph-name="florin" unicode="&#x192;" horiz-adv-x="484" 
d="M-7 -103h170l41 412h-166l4 31h165l31 308q5 50 55 50h163l-3 -31h-178l-32 -327h200l-3 -31h-201l-38 -393q-6 -50 -56 -50h-155z" />
    <glyph glyph-name="sterling" unicode="&#xa3;" horiz-adv-x="583" 
d="M83 0v43q42 29 66 75t24 106q0 22 -3.5 42.5t-8.5 39.5h-93v31h84q-14 41 -28.5 81t-14.5 89q0 47 15.5 84.5t43.5 64t67.5 40.5t86.5 14q133 0 203 -117l-30 -19q-60 103 -173 103q-79 0 -127 -44.5t-48 -127.5q0 -48 14 -87.5t28 -80.5h218v-31h-209q5 -18 8 -38t3 -41
q0 -60 -23.5 -109.5t-65.5 -81.5v-3h396v-33h-433z" />
    <glyph glyph-name="dollar" unicode="$" horiz-adv-x="559" 
d="M269 -82v82q-81 2 -134.5 34.5t-90.5 80.5l28 23q35 -46 81 -74.5t116 -31.5v314l-24 4q-53 9 -88 25.5t-56 39.5t-30 51.5t-9 60.5q0 84 57 126.5t150 44.5v82h29v-82q69 -4 116.5 -30.5t76.5 -68.5l-28 -21q-27 39 -67.5 61.5t-98.5 26.5v-292l22 -4q53 -10 88 -27.5
t56 -41t29.5 -52t8.5 -60.5q0 -89 -54.5 -136.5t-148.5 -52.5v-82h-29zM465 187q0 39 -12 65t-32.5 43t-48.5 27t-60 16l-15 3v-309q81 5 124.5 44t43.5 111zM97 529q0 -36 12 -61t32.5 -41.5t48.5 -26.5t60 -17l19 -4v287q-81 -2 -126.5 -36t-45.5 -101z" />
    <glyph glyph-name="yen" unicode="&#xa5;" horiz-adv-x="586" 
d="M311 163v-163h-36v163h-193v30h193v128h-193v30h174l-211 347h41l206 -342h4l205 342h40l-211 -347h174v-30h-193v-128h193v-30h-193z" />
    <glyph glyph-name="uni0E3F" unicode="&#xe3f;" horiz-adv-x="614" 
d="M315 -82h-29v103h-182v656h182v103h29v-103h40q79 0 121.5 -43.5t42.5 -119.5q0 -63 -27.5 -97t-73.5 -47v-3q61 -10 96.5 -51.5t35.5 -113.5q0 -41 -12 -74t-34.5 -57t-55 -37t-74.5 -13h-59v-103zM286 380v264h-145v-264h145zM315 380h40q64 0 94.5 33t30.5 79v40
q0 23 -7.5 43.5t-23 35.5t-39 24t-55.5 9h-40v-264zM286 54v294h-145v-294h145zM315 54h54q36 0 62.5 10t44 27.5t26.5 40.5t9 49v41q0 25 -9 48t-26.5 40.5t-44 27.5t-62.5 10h-54v-294z" />
    <glyph glyph-name="uni20A1" unicode="&#x20a1;" horiz-adv-x="613" 
d="M322 -2q-56 2 -99 21l-12 -101h-30l13 114q-62 36 -94.5 114.5t-32.5 202.5q0 156 53.5 242.5t152.5 104.5l10 84h30l-10 -81q11 1 16 1h12q20 0 38 -3t35 -8l11 91h30l-12 -100q41 -18 70.5 -50.5t49.5 -74.5l-30 -17q-16 35 -39.5 62.5t-54.5 43.5l-74 -611
q64 6 107 41.5t66 93.5l30 -17q-26 -64 -78 -105t-128 -47l-10 -81h-30zM332 667q-8 0 -16.5 -0.5t-15.5 -1.5l-73 -611q44 -23 99 -23l74 625q-31 11 -68 11zM107 320q0 -94 24 -155.5t69 -94.5l70 590q-78 -18 -120.5 -88t-42.5 -193v-59z" />
    <glyph glyph-name="uni20A4" unicode="&#x20a4;" horiz-adv-x="583" 
d="M516 0h-433v43q42 29 66 75.5t24 103.5v9.5t-1 10.5h-106v30h103q-6 35 -17 63.5t-22 60.5h-64v30h55q-5 17 -8.5 39t-3.5 42q0 47 15.5 84.5t43.5 64t67.5 40.5t86.5 14q133 0 203 -117l-30 -19q-60 103 -173 103q-79 0 -127 -44.5t-48 -127.5q0 -19 3.5 -40.5
t8.5 -38.5h263v-30h-254q12 -32 21.5 -60.5t16.5 -63.5h216v-30h-213v-18q0 -56 -23.5 -106t-65.5 -82v-3h396v-33z" />
    <glyph glyph-name="uni20A6" unicode="&#x20a6;" horiz-adv-x="672" 
d="M370 255h-228v-255h-35v255h-90v30h90v128h-90v30h90v255h46l149 -255h228v255h35v-255h90v-30h-90v-128h90v-30h-90v-255h-46zM392 284h138v130h-213zM354 284l-75 130h-137v-130h212zM530 50v205h-121l118 -205h3zM142 443h120l-117 203h-3v-203z" />
    <glyph glyph-name="uni20A8" unicode="&#x20a8;" horiz-adv-x="719" 
d="M681 109q0 -53 -37 -87t-98 -34q-57 0 -96 22t-65 73l-131 248q-5 -1 -10.5 -1h-11.5h-91v-330h-37v698h129q91 0 133 -48.5t42 -135.5q0 -72 -28.5 -117.5t-88.5 -59.5l125 -235q23 -42 53 -62.5t78 -20.5q44 0 71.5 25t27.5 65q0 15 -2.5 26.5t-9.5 22.5t-19 22.5
t-31 26.5l-35 28q-45 35 -65 65.5t-20 71.5q0 19 6.5 37.5t20.5 33t35 23t50 8.5q58 0 98 -34l-18 -26q-17 14 -35.5 21.5t-43.5 7.5q-39 0 -58.5 -20.5t-19.5 -50.5q0 -34 17.5 -58.5t55.5 -54.5l34 -27q21 -17 35 -31t23 -28t13 -29.5t4 -34.5zM141 361h91q66 0 102 33.5
t36 96.5v45q0 63 -36 96.5t-102 33.5h-91v-305z" />
    <glyph glyph-name="uni20A9" unicode="&#x20a9;" horiz-adv-x="912" 
d="M568 252h-226l-69 -252h-45l-65 251h-123v30h115l-33 129h-82v30h74l-67 258h37l67 -259h209l72 259h48l70 -259h212l67 259h37l-68 -258h74v-30h-82l-34 -129h116v-30h-124l-66 -251h-45zM524 410h-139l-35 -129h210zM558 410l35 -129h128l34 129h-197zM191 281h126
l36 129h-195zM393 439h123l-60 220h-2zM661 47l53 205h-113l57 -205h3zM253 47l56 205h-111l53 -205h2z" />
    <glyph glyph-name="uni20AA" unicode="&#x20aa;" horiz-adv-x="767" 
d="M278 564h36v-532h204q21 0 41 6t35 21t24 40t9 63v536h36v-532q0 -85 -39 -125.5t-106 -40.5h-240v564zM104 0v698h233q67 0 109.5 -41t42.5 -125v-398h-36v402q0 38 -10.5 63t-27 40t-37 21t-41.5 6h-197v-666h-36z" />
    <glyph glyph-name="uni20AB" unicode="&#x20ab;" horiz-adv-x="566" 
d="M420 189h-3q-16 -33 -54 -58t-99 -25q-92 0 -144 56.5t-52 165.5q0 110 52 166.5t144 56.5q61 0 99 -25.5t54 -58.5h3v172h-161v29h161v72h35v-72h70v-29h-70v-522h-35v72zM272 136q30 0 57 9t47 25t32 38t12 49v142q0 27 -12 49.5t-32 38.5t-47 25t-57 9
q-78 0 -122 -44.5t-44 -120.5v-55q0 -75 44 -120t122 -45zM68 0v31h420v-31h-420z" />
    <glyph glyph-name="uni20AD" unicode="&#x20ad;" horiz-adv-x="580" 
d="M144 0h-37v351h-90v31h90v316h37v-316h92l255 316h43l-256 -316h241v-31h-239l270 -351h-45l-269 351h-92v-351z" />
    <glyph glyph-name="uni20AE" unicode="&#x20ae;" horiz-adv-x="587" 
d="M312 244v-244h-37v228l-150 -73v33l150 73v118l-150 -73v33l150 73v253h-245v33h527v-33h-245v-237l150 74v-33l-150 -73v-118l150 73v-33z" />
    <glyph glyph-name="uni20B1" unicode="&#x20b1;" horiz-adv-x="608" 
d="M144 0h-37v379h-90v30h90v123h-90v30h90v136h225q72 0 115 -36.5t57 -99.5h88v-30h-84v-62v-61h84v-30h-88q-14 -64 -57 -100.5t-115 -36.5h-188v-242zM144 562h324q-9 44 -42.5 73.5t-93.5 29.5h-188v-103zM471 409v123h-327v-123h327zM332 275q60 0 93.5 30t42.5 74
h-324v-104h188z" />
    <glyph glyph-name="uni20B2" unicode="&#x20b2;" horiz-adv-x="652" 
d="M245 -82l15 88q-93 23 -143 108.5t-50 235.5q0 173 69 261.5t197 88.5q18 0 37 -3l13 83h30l-14 -88q56 -14 96.5 -47.5t62.5 -83.5l-30 -17q-19 45 -53 74t-82 41l-51 -321h233v-119q0 -54 -18.5 -95.5t-50.5 -69.5t-75.5 -42t-92.5 -14q-25 0 -49 3l-14 -83h-30z
M107 320q0 -116 41.5 -187.5t118.5 -92.5l98 625q-9 1 -16.5 1.5t-15.5 0.5q-107 0 -166.5 -75t-59.5 -213v-59zM337 306l-43 -272q22 -3 47 -3q42 0 78.5 11.5t62.5 35t41 57.5t15 79v92h-201z" />
    <glyph glyph-name="uni20B4" unicode="&#x20b4;" horiz-adv-x="622" 
d="M319 -12q-90 0 -144 47t-54 128q0 33 10 57.5t24 44.5h-102v30h127l214 128h-341v30h378q16 19 22.5 40.5t6.5 50.5q0 63 -40 98t-110 35q-43 0 -84 -18t-79 -60l-25 24q42 46 91 66.5t100 20.5q82 0 133 -43.5t51 -121.5q0 -30 -7 -52.5t-20 -39.5h99v-30h-121
l-214 -128h335v-30h-373q-18 -21 -28 -45t-10 -56q0 -69 43 -106t119 -37q46 0 90.5 20.5t89.5 68.5l24 -24q-45 -51 -98 -74.5t-107 -23.5z" />
    <glyph glyph-name="uni20B5" unicode="&#x20b5;" horiz-adv-x="613" 
d="M239 -82l15 90q-90 23 -138.5 108t-48.5 233q0 176 68.5 263.5t195.5 87.5q8 0 15.5 -0.5t16.5 -1.5l13 82h30l-14 -87q57 -14 97.5 -50t63.5 -88l-31 -16q-20 46 -54 77.5t-82 43.5l-97 -626q19 -3 42 -3q73 0 122.5 37t74.5 100l30 -16q-30 -71 -87 -112.5t-140 -41.5
q-12 0 -24 1t-24 3l-14 -84h-30zM107 320q0 -119 39.5 -188t114.5 -92l97 626q-5 0 -13 0.5t-14 0.5q-107 0 -165.5 -72t-58.5 -216v-59z" />
    <glyph glyph-name="uni20B8" unicode="&#x20b8;" horiz-adv-x="603" 
d="M38 667v31h527v-31h-527zM320 515v-515h-37v515h-245v31h527v-31h-245z" />
    <glyph glyph-name="uni20B9" unicode="&#x20b9;" horiz-adv-x="610" 
d="M465 0l-238 316h-161v32h223q71 0 106.5 39.5t35.5 101.5v9h-365v30h365q-1 60 -37.5 99t-103.5 39h-224v32h512v-32h-197v-2q35 -14 58.5 -46t27.5 -90h111v-30h-111v-5q-2 -80 -48.5 -128.5t-131.5 -48.5h-17l240 -316h-45z" />
    <glyph glyph-name="uni20BA" unicode="&#x20ba;" horiz-adv-x="610" 
d="M144 291l-123 -59v33l123 59v118l-123 -59v33l123 59v223h37v-207l209 102v-33l-209 -101v-119l209 102v-33l-209 -102v-274h128q51 0 90.5 20.5t66.5 57t41 86t14 108.5h36q0 -65 -16 -120.5t-47 -96.5t-76.5 -64.5t-105.5 -23.5h-168v291z" />
    <glyph glyph-name="uni20BD" unicode="&#x20bd;" horiz-adv-x="599" 
d="M144 162v-162h-37v162h-90v31h90v123h-90v32h90v350h270q88 0 133.5 -51.5t45.5 -139.5t-45.5 -139.5t-133.5 -51.5h-233v-123h253v-31h-253zM144 348h233q35 0 61 11t43.5 29.5t26 43.5t8.5 52v45q0 27 -8.5 52t-26 43.5t-43.5 29.5t-61 11h-233v-317z" />
    <glyph glyph-name="uni20BF" unicode="&#x20bf;" horiz-adv-x="614" 
d="M343 21h-95v-103h-32v103h-112v656h112v103h32v-103h95v103h32v-104q69 -5 106.5 -48t37.5 -114q0 -63 -27.5 -97t-73.5 -47v-3q61 -10 96.5 -51.5t35.5 -113.5q0 -81 -46 -131t-129 -50v-103h-32v103zM141 380h214q64 0 94.5 33t30.5 79v40q0 23 -7.5 43.5t-23 35.5
t-39 24t-55.5 9h-214v-264zM141 54h228q36 0 62.5 10t44 27.5t26.5 40.5t9 49v41q0 25 -9 48t-26.5 40.5t-44 27.5t-62.5 10h-228v-294z" />
    <glyph glyph-name="fl" unicode="&#xfb02;" horiz-adv-x="549" 
d="M121 477h-91v31h91v181q0 51 49 51h100v-31h-114v-201h114v-31h-114v-477h-35v477zM437 0q-43 0 -43 42v698h35v-709h83v-31h-75z" />
    <glyph glyph-name="aacute" unicode="&#xe1;" horiz-adv-x="522" 
d="M431 0q-41 0 -43 42v37h-4q-18 -39 -57 -65t-105 -26q-79 0 -122 38t-43 107q0 33 10 60t33.5 46.5t61 30t92.5 10.5h133v68q0 72 -35 106.5t-104 34.5q-107 0 -148 -90l-25 17q21 47 62 75.5t112 28.5q85 0 129 -43.5t44 -124.5v-321h78v-31h-69zM225 19q33 0 62.5 8.5
t51.5 24.5t35 40t13 56v104h-133q-84 0 -122 -28.5t-38 -75.5v-28q0 -50 36.5 -75.5t94.5 -25.5zM239 587l-24 13l105 158l32 -18z" />
    <glyph glyph-name="abreve" unicode="&#x103;" horiz-adv-x="522" 
d="M431 0q-41 0 -43 42v37h-4q-18 -39 -57 -65t-105 -26q-79 0 -122 38t-43 107q0 33 10 60t33.5 46.5t61 30t92.5 10.5h133v68q0 72 -35 106.5t-104 34.5q-107 0 -148 -90l-25 17q21 47 62 75.5t112 28.5q85 0 129 -43.5t44 -124.5v-321h78v-31h-69zM225 19q33 0 62.5 8.5
t51.5 24.5t35 40t13 56v104h-133q-84 0 -122 -28.5t-38 -75.5v-28q0 -50 36.5 -75.5t94.5 -25.5zM251 604q-29 0 -49.5 9t-35.5 24.5t-27.5 37.5t-24.5 48l23 10l17 -28q12 -21 22 -34.5t21 -22t24 -12t30 -3.5q34 0 54 15.5t43 56.5l17 28l23 -10q-12 -26 -24.5 -48
t-27.5 -37.5t-35.5 -24.5t-49.5 -9z" />
    <glyph glyph-name="acircumflex" unicode="&#xe2;" horiz-adv-x="522" 
d="M431 0q-41 0 -43 42v37h-4q-18 -39 -57 -65t-105 -26q-79 0 -122 38t-43 107q0 33 10 60t33.5 46.5t61 30t92.5 10.5h133v68q0 72 -35 106.5t-104 34.5q-107 0 -148 -90l-25 17q21 47 62 75.5t112 28.5q85 0 129 -43.5t44 -124.5v-321h78v-31h-69zM225 19q33 0 62.5 8.5
t51.5 24.5t35 40t13 56v104h-133q-84 0 -122 -28.5t-38 -75.5v-28q0 -50 36.5 -75.5t94.5 -25.5zM272 748l124 -135l-21 -16l-124 125l-124 -125l-21 16l124 135h42z" />
    <glyph glyph-name="adieresis" unicode="&#xe4;" horiz-adv-x="522" 
d="M431 0q-41 0 -43 42v37h-4q-18 -39 -57 -65t-105 -26q-79 0 -122 38t-43 107q0 33 10 60t33.5 46.5t61 30t92.5 10.5h133v68q0 72 -35 106.5t-104 34.5q-107 0 -148 -90l-25 17q21 47 62 75.5t112 28.5q85 0 129 -43.5t44 -124.5v-321h78v-31h-69zM225 19q33 0 62.5 8.5
t51.5 24.5t35 40t13 56v104h-133q-84 0 -122 -28.5t-38 -75.5v-28q0 -50 36.5 -75.5t94.5 -25.5zM160 636q-17 0 -23.5 8t-6.5 19v8q0 11 6.5 19t23.5 8q16 0 22.5 -8t6.5 -19v-8q0 -11 -6.5 -19t-22.5 -8zM342 636q-16 0 -22.5 8t-6.5 19v8q0 11 6.5 19t22.5 8
q17 0 23.5 -8t6.5 -19v-8q0 -11 -6.5 -19t-23.5 -8z" />
    <glyph glyph-name="uni1EA1" unicode="&#x1ea1;" horiz-adv-x="522" 
d="M431 0q-41 0 -43 42v37h-4q-18 -39 -57 -65t-105 -26q-79 0 -122 38t-43 107q0 33 10 60t33.5 46.5t61 30t92.5 10.5h133v68q0 72 -35 106.5t-104 34.5q-107 0 -148 -90l-25 17q21 47 62 75.5t112 28.5q85 0 129 -43.5t44 -124.5v-321h78v-31h-69zM225 19q33 0 62.5 8.5
t51.5 24.5t35 40t13 56v104h-133q-84 0 -122 -28.5t-38 -75.5v-28q0 -50 36.5 -75.5t94.5 -25.5zM229 -142q-16 0 -23 8t-7 19v8q0 11 7 19t23 8t23 -8t7 -19v-8q0 -11 -7 -19t-23 -8z" />
    <glyph glyph-name="agrave" unicode="&#xe0;" horiz-adv-x="522" 
d="M431 0q-41 0 -43 42v37h-4q-18 -39 -57 -65t-105 -26q-79 0 -122 38t-43 107q0 33 10 60t33.5 46.5t61 30t92.5 10.5h133v68q0 72 -35 106.5t-104 34.5q-107 0 -148 -90l-25 17q21 47 62 75.5t112 28.5q85 0 129 -43.5t44 -124.5v-321h78v-31h-69zM225 19q33 0 62.5 8.5
t51.5 24.5t35 40t13 56v104h-133q-84 0 -122 -28.5t-38 -75.5v-28q0 -50 36.5 -75.5t94.5 -25.5zM149 740l32 18l105 -158l-24 -13z" />
    <glyph glyph-name="uni1EA3" unicode="&#x1ea3;" horiz-adv-x="522" 
d="M431 0q-41 0 -43 42v37h-4q-18 -39 -57 -65t-105 -26q-79 0 -122 38t-43 107q0 33 10 60t33.5 46.5t61 30t92.5 10.5h133v68q0 72 -35 106.5t-104 34.5q-107 0 -148 -90l-25 17q21 47 62 75.5t112 28.5q85 0 129 -43.5t44 -124.5v-321h78v-31h-69zM225 19q33 0 62.5 8.5
t51.5 24.5t35 40t13 56v104h-133q-84 0 -122 -28.5t-38 -75.5v-28q0 -50 36.5 -75.5t94.5 -25.5zM174 744h130q18 0 26 -8t8 -19q0 -10 -7.5 -24.5t-27.5 -44.5l-43 -65l-23 12l72 120h-135v29z" />
    <glyph glyph-name="amacron" unicode="&#x101;" horiz-adv-x="522" 
d="M431 0q-41 0 -43 42v37h-4q-18 -39 -57 -65t-105 -26q-79 0 -122 38t-43 107q0 33 10 60t33.5 46.5t61 30t92.5 10.5h133v68q0 72 -35 106.5t-104 34.5q-107 0 -148 -90l-25 17q21 47 62 75.5t112 28.5q85 0 129 -43.5t44 -124.5v-321h78v-31h-69zM225 19q33 0 62.5 8.5
t51.5 24.5t35 40t13 56v104h-133q-84 0 -122 -28.5t-38 -75.5v-28q0 -50 36.5 -75.5t94.5 -25.5zM119 683h264v-30h-264v30z" />
    <glyph glyph-name="aogonek" unicode="&#x105;" horiz-adv-x="522" 
d="M516 -170q-10 -14 -29.5 -23.5t-48.5 -9.5q-35 0 -59 17t-24 52q0 31 25 63t86 68l-1 3h-38q-37 3 -39 42v37h-4q-18 -39 -57 -65t-105 -26q-79 0 -122 38t-43 107q0 33 10 60t33.5 46.5t61 30t92.5 10.5h133v68q0 72 -35 106.5t-104 34.5q-107 0 -148 -90l-25 17
q21 47 62 75.5t112 28.5q85 0 129 -43.5t44 -124.5v-321h78v-31q-30 -21 -51.5 -38t-35.5 -32t-20.5 -29.5t-6.5 -30.5q0 -25 14.5 -36t38.5 -11q22 0 35.5 7.5t21.5 17.5zM225 19q33 0 62.5 8.5t51.5 24.5t35 40t13 56v104h-133q-84 0 -122 -28.5t-38 -75.5v-28
q0 -50 36.5 -75.5t94.5 -25.5z" />
    <glyph glyph-name="aring" unicode="&#xe5;" horiz-adv-x="522" 
d="M431 0q-41 0 -43 42v37h-4q-18 -39 -57 -65t-105 -26q-79 0 -122 38t-43 107q0 33 10 60t33.5 46.5t61 30t92.5 10.5h133v68q0 72 -35 106.5t-104 34.5q-107 0 -148 -90l-25 17q21 47 62 75.5t112 28.5q85 0 129 -43.5t44 -124.5v-321h78v-31h-69zM225 19q33 0 62.5 8.5
t51.5 24.5t35 40t13 56v104h-133q-84 0 -122 -28.5t-38 -75.5v-28q0 -50 36.5 -75.5t94.5 -25.5zM251 586q-43 0 -69.5 27t-26.5 70q0 42 26.5 69t69.5 27t69.5 -27t26.5 -69q0 -43 -26.5 -70t-69.5 -27zM251 611q31 0 49 18t18 47v13q0 30 -18 47.5t-49 17.5t-49 -17.5
t-18 -47.5v-13q0 -29 18 -47t49 -18z" />
    <glyph glyph-name="aringacute" unicode="&#x1fb;" horiz-adv-x="522" 
d="M431 0q-41 0 -43 42v37h-4q-18 -39 -57 -65t-105 -26q-79 0 -122 38t-43 107q0 33 10 60t33.5 46.5t61 30t92.5 10.5h133v68q0 72 -35 106.5t-104 34.5q-107 0 -148 -90l-25 17q21 47 62 75.5t112 28.5q85 0 129 -43.5t44 -124.5v-321h78v-31h-69zM225 19q33 0 62.5 8.5
t51.5 24.5t35 40t13 56v104h-133q-84 0 -122 -28.5t-38 -75.5v-28q0 -50 36.5 -75.5t94.5 -25.5zM254 803l-22 13l79 106l29 -19zM251 584q-43 0 -69.5 26.5t-26.5 69.5t26.5 70t69.5 27t69.5 -27t26.5 -70t-26.5 -69.5t-69.5 -26.5zM251 609q31 0 49 17.5t18 47.5v13
q0 29 -18 47t-49 18t-49 -18t-18 -47v-13q0 -30 18 -47.5t49 -17.5z" />
    <glyph glyph-name="atilde" unicode="&#xe3;" horiz-adv-x="522" 
d="M431 0q-41 0 -43 42v37h-4q-18 -39 -57 -65t-105 -26q-79 0 -122 38t-43 107q0 33 10 60t33.5 46.5t61 30t92.5 10.5h133v68q0 72 -35 106.5t-104 34.5q-107 0 -148 -90l-25 17q21 47 62 75.5t112 28.5q85 0 129 -43.5t44 -124.5v-321h78v-31h-69zM225 19q33 0 62.5 8.5
t51.5 24.5t35 40t13 56v104h-133q-84 0 -122 -28.5t-38 -75.5v-28q0 -50 36.5 -75.5t94.5 -25.5zM322 624q-19 0 -36.5 7t-40.5 22q-23 14 -38 20t-29 6q-18 0 -33 -8t-31 -24l-17 19q36 42 83 42q19 0 36.5 -7t40.5 -22q23 -14 38 -20t29 -6q18 0 33 8t31 24l17 -19
q-36 -42 -83 -42z" />
    <glyph glyph-name="uni1EAF" unicode="&#x1eaf;" horiz-adv-x="522" 
d="M431 0q-41 0 -43 42v37h-4q-18 -39 -57 -65t-105 -26q-79 0 -122 38t-43 107q0 33 10 60t33.5 46.5t61 30t92.5 10.5h133v68q0 72 -35 106.5t-104 34.5q-107 0 -148 -90l-25 17q21 47 62 75.5t112 28.5q85 0 129 -43.5t44 -124.5v-321h78v-31h-69zM225 19q33 0 62.5 8.5
t51.5 24.5t35 40t13 56v104h-133q-84 0 -122 -28.5t-38 -75.5v-28q0 -50 36.5 -75.5t94.5 -25.5zM250 592q-29 0 -49.5 8t-36.5 23t-28 35.5t-23 44.5l23 11l17 -28q22 -38 42 -52t55 -14t55 14t42 52l17 28l23 -11q-11 -24 -23 -44.5t-28 -35.5t-36.5 -23t-49.5 -8z
M244 697l-23 13l105 158l31 -17z" />
    <glyph glyph-name="uni1EB7" unicode="&#x1eb7;" horiz-adv-x="522" 
d="M431 0q-41 0 -43 42v37h-4q-18 -39 -57 -65t-105 -26q-79 0 -122 38t-43 107q0 33 10 60t33.5 46.5t61 30t92.5 10.5h133v68q0 72 -35 106.5t-104 34.5q-107 0 -148 -90l-25 17q21 47 62 75.5t112 28.5q85 0 129 -43.5t44 -124.5v-321h78v-31h-69zM225 19q33 0 62.5 8.5
t51.5 24.5t35 40t13 56v104h-133q-84 0 -122 -28.5t-38 -75.5v-28q0 -50 36.5 -75.5t94.5 -25.5zM251 604q-29 0 -49.5 9t-35.5 24.5t-27.5 37.5t-24.5 48l23 10l17 -28q12 -21 22 -34.5t21 -22t24 -12t30 -3.5q34 0 54 15.5t43 56.5l17 28l23 -10q-12 -26 -24.5 -48
t-27.5 -37.5t-35.5 -24.5t-49.5 -9zM229 -142q-16 0 -23 8t-7 19v8q0 11 7 19t23 8t23 -8t7 -19v-8q0 -11 -7 -19t-23 -8z" />
    <glyph glyph-name="uni1EB1" unicode="&#x1eb1;" horiz-adv-x="522" 
d="M431 0q-41 0 -43 42v37h-4q-18 -39 -57 -65t-105 -26q-79 0 -122 38t-43 107q0 33 10 60t33.5 46.5t61 30t92.5 10.5h133v68q0 72 -35 106.5t-104 34.5q-107 0 -148 -90l-25 17q21 47 62 75.5t112 28.5q85 0 129 -43.5t44 -124.5v-321h78v-31h-69zM225 19q33 0 62.5 8.5
t51.5 24.5t35 40t13 56v104h-133q-84 0 -122 -28.5t-38 -75.5v-28q0 -50 36.5 -75.5t94.5 -25.5zM250 592q-29 0 -49.5 8t-36.5 23t-28 35.5t-23 44.5l23 11l17 -28q22 -38 42 -52t55 -14t55 14t42 52l17 28l23 -11q-11 -24 -23 -44.5t-28 -35.5t-36.5 -23t-49.5 -8z
M143 851l31 17l105 -158l-23 -13z" />
    <glyph glyph-name="uni1EB3" unicode="&#x1eb3;" horiz-adv-x="522" 
d="M431 0q-41 0 -43 42v37h-4q-18 -39 -57 -65t-105 -26q-79 0 -122 38t-43 107q0 33 10 60t33.5 46.5t61 30t92.5 10.5h133v68q0 72 -35 106.5t-104 34.5q-107 0 -148 -90l-25 17q21 47 62 75.5t112 28.5q85 0 129 -43.5t44 -124.5v-321h78v-31h-69zM225 19q33 0 62.5 8.5
t51.5 24.5t35 40t13 56v104h-133q-84 0 -122 -28.5t-38 -75.5v-28q0 -50 36.5 -75.5t94.5 -25.5zM250 592q-29 0 -49.5 8t-36.5 23t-28 35.5t-23 44.5l23 11l17 -28q22 -38 42 -52t55 -14t55 14t42 52l17 28l23 -11q-11 -24 -23 -44.5t-28 -35.5t-36.5 -23t-49.5 -8z
M172 855h127q18 0 26 -7.5t8 -19.5q0 -10 -7.5 -24.5t-27.5 -44.5l-43 -65l-23 12l73 121h-133v28z" />
    <glyph glyph-name="uni1EB5" unicode="&#x1eb5;" horiz-adv-x="522" 
d="M431 0q-41 0 -43 42v37h-4q-18 -39 -57 -65t-105 -26q-79 0 -122 38t-43 107q0 33 10 60t33.5 46.5t61 30t92.5 10.5h133v68q0 72 -35 106.5t-104 34.5q-107 0 -148 -90l-25 17q21 47 62 75.5t112 28.5q85 0 129 -43.5t44 -124.5v-321h78v-31h-69zM225 19q33 0 62.5 8.5
t51.5 24.5t35 40t13 56v104h-133q-84 0 -122 -28.5t-38 -75.5v-28q0 -50 36.5 -75.5t94.5 -25.5zM250 592q-29 0 -49.5 8t-36.5 23t-28 35.5t-23 44.5l23 11l17 -28q22 -38 42 -52t55 -14t55 14t42 52l17 28l23 -11q-11 -24 -23 -44.5t-28 -35.5t-36.5 -23t-49.5 -8z
M321 765q-20 0 -37 7.5t-40 21.5t-38 20t-29 6q-18 0 -33 -8t-31 -24l-16 18q34 42 82 42q20 0 37 -7.5t40 -21.5t38 -20t29 -6q18 0 33 8t31 24l16 -18q-34 -42 -82 -42z" />
    <glyph glyph-name="uni1EA5" unicode="&#x1ea5;" horiz-adv-x="522" 
d="M431 0q-41 0 -43 42v37h-4q-18 -39 -57 -65t-105 -26q-79 0 -122 38t-43 107q0 33 10 60t33.5 46.5t61 30t92.5 10.5h133v68q0 72 -35 106.5t-104 34.5q-107 0 -148 -90l-25 17q21 47 62 75.5t112 28.5q85 0 129 -43.5t44 -124.5v-321h78v-31h-69zM225 19q33 0 62.5 8.5
t51.5 24.5t35 40t13 56v104h-133q-84 0 -122 -28.5t-38 -75.5v-28q0 -50 36.5 -75.5t94.5 -25.5zM373 697l-23 13l105 158l31 -17zM271 737l124 -133l-21 -15l-124 123l-124 -123l-21 15l124 133h42z" />
    <glyph glyph-name="uni1EAD" unicode="&#x1ead;" horiz-adv-x="522" 
d="M431 0q-41 0 -43 42v37h-4q-18 -39 -57 -65t-105 -26q-79 0 -122 38t-43 107q0 33 10 60t33.5 46.5t61 30t92.5 10.5h133v68q0 72 -35 106.5t-104 34.5q-107 0 -148 -90l-25 17q21 47 62 75.5t112 28.5q85 0 129 -43.5t44 -124.5v-321h78v-31h-69zM225 19q33 0 62.5 8.5
t51.5 24.5t35 40t13 56v104h-133q-84 0 -122 -28.5t-38 -75.5v-28q0 -50 36.5 -75.5t94.5 -25.5zM272 748l124 -135l-21 -16l-124 125l-124 -125l-21 16l124 135h42zM229 -142q-16 0 -23 8t-7 19v8q0 11 7 19t23 8t23 -8t7 -19v-8q0 -11 -7 -19t-23 -8z" />
    <glyph glyph-name="uni1EA7" unicode="&#x1ea7;" horiz-adv-x="522" 
d="M431 0q-41 0 -43 42v37h-4q-18 -39 -57 -65t-105 -26q-79 0 -122 38t-43 107q0 33 10 60t33.5 46.5t61 30t92.5 10.5h133v68q0 72 -35 106.5t-104 34.5q-107 0 -148 -90l-25 17q21 47 62 75.5t112 28.5q85 0 129 -43.5t44 -124.5v-321h78v-31h-69zM225 19q33 0 62.5 8.5
t51.5 24.5t35 40t13 56v104h-133q-84 0 -122 -28.5t-38 -75.5v-28q0 -50 36.5 -75.5t94.5 -25.5zM14 851l31 17l105 -158l-23 -13zM271 737l124 -133l-21 -15l-124 123l-124 -123l-21 15l124 133h42z" />
    <glyph glyph-name="uni1EA9" unicode="&#x1ea9;" horiz-adv-x="522" 
d="M431 0q-41 0 -43 42v37h-4q-18 -39 -57 -65t-105 -26q-79 0 -122 38t-43 107q0 33 10 60t33.5 46.5t61 30t92.5 10.5h133v68q0 72 -35 106.5t-104 34.5q-107 0 -148 -90l-25 17q21 47 62 75.5t112 28.5q85 0 129 -43.5t44 -124.5v-321h78v-31h-69zM225 19q33 0 62.5 8.5
t51.5 24.5t35 40t13 56v104h-133q-84 0 -122 -28.5t-38 -75.5v-28q0 -50 36.5 -75.5t94.5 -25.5zM292 855h130q18 0 26 -7.5t8 -19.5q0 -10 -7.5 -24.5t-27.5 -44.5l-43 -65l-23 12l73 121h-136v28zM271 737l124 -133l-21 -15l-124 123l-124 -123l-21 15l124 133h42z" />
    <glyph glyph-name="uni1EAB" unicode="&#x1eab;" horiz-adv-x="522" 
d="M431 0q-41 0 -43 42v37h-4q-18 -39 -57 -65t-105 -26q-79 0 -122 38t-43 107q0 33 10 60t33.5 46.5t61 30t92.5 10.5h133v68q0 72 -35 106.5t-104 34.5q-107 0 -148 -90l-25 17q21 47 62 75.5t112 28.5q85 0 129 -43.5t44 -124.5v-321h78v-31h-69zM225 19q33 0 62.5 8.5
t51.5 24.5t35 40t13 56v104h-133q-84 0 -122 -28.5t-38 -75.5v-28q0 -50 36.5 -75.5t94.5 -25.5zM179 856q20 0 37 -7.5t40 -21.5t38 -19.5t29 -5.5q18 0 33 7.5t31 23.5l16 -17q-17 -20 -37 -31.5t-45 -11.5q-20 0 -37 7.5t-40 21.5t-38 19.5t-29 5.5q-18 0 -33 -7.5
t-31 -23.5l-16 17q17 20 37 31.5t45 11.5zM271 737l124 -133l-21 -15l-124 123l-124 -123l-21 15l124 133h42z" />
    <glyph glyph-name="aacute.alt01" horiz-adv-x="567" 
d="M432 79h-3q-17 -36 -57 -63.5t-104 -27.5q-100 0 -155.5 67.5t-55.5 198.5t55.5 198.5t155.5 67.5q64 0 104 -27t57 -64h3v79h35v-508h-35v79zM273 20q32 0 61 9t50.5 26t34.5 40.5t13 52.5v214q0 28 -13 51.5t-34.5 40t-50.5 26t-61 9.5q-85 0 -131.5 -55.5
t-46.5 -150.5v-58q0 -95 46.5 -150t131.5 -55zM261 587l-24 13l105 158l32 -18z" />
    <glyph glyph-name="abreve.alt01" horiz-adv-x="567" 
d="M432 79h-3q-17 -36 -57 -63.5t-104 -27.5q-100 0 -155.5 67.5t-55.5 198.5t55.5 198.5t155.5 67.5q64 0 104 -27t57 -64h3v79h35v-508h-35v79zM273 20q32 0 61 9t50.5 26t34.5 40.5t13 52.5v214q0 28 -13 51.5t-34.5 40t-50.5 26t-61 9.5q-85 0 -131.5 -55.5
t-46.5 -150.5v-58q0 -95 46.5 -150t131.5 -55zM273 604q-29 0 -49.5 9t-35.5 24.5t-27.5 37.5t-24.5 48l23 10l17 -28q12 -21 22 -34.5t21 -22t24 -12t30 -3.5q34 0 54 15.5t43 56.5l17 28l23 -10q-12 -26 -24.5 -48t-27.5 -37.5t-35.5 -24.5t-49.5 -9z" />
    <glyph glyph-name="acircumflex.alt01" horiz-adv-x="567" 
d="M432 79h-3q-17 -36 -57 -63.5t-104 -27.5q-100 0 -155.5 67.5t-55.5 198.5t55.5 198.5t155.5 67.5q64 0 104 -27t57 -64h3v79h35v-508h-35v79zM273 20q32 0 61 9t50.5 26t34.5 40.5t13 52.5v214q0 28 -13 51.5t-34.5 40t-50.5 26t-61 9.5q-85 0 -131.5 -55.5
t-46.5 -150.5v-58q0 -95 46.5 -150t131.5 -55zM294 748l124 -135l-21 -16l-124 125l-124 -125l-21 16l124 135h42z" />
    <glyph glyph-name="adieresis.alt01" horiz-adv-x="567" 
d="M432 79h-3q-17 -36 -57 -63.5t-104 -27.5q-100 0 -155.5 67.5t-55.5 198.5t55.5 198.5t155.5 67.5q64 0 104 -27t57 -64h3v79h35v-508h-35v79zM273 20q32 0 61 9t50.5 26t34.5 40.5t13 52.5v214q0 28 -13 51.5t-34.5 40t-50.5 26t-61 9.5q-85 0 -131.5 -55.5
t-46.5 -150.5v-58q0 -95 46.5 -150t131.5 -55zM182 636q-17 0 -23.5 8t-6.5 19v8q0 11 6.5 19t23.5 8q16 0 22.5 -8t6.5 -19v-8q0 -11 -6.5 -19t-22.5 -8zM364 636q-16 0 -22.5 8t-6.5 19v8q0 11 6.5 19t22.5 8q17 0 23.5 -8t6.5 -19v-8q0 -11 -6.5 -19t-23.5 -8z" />
    <glyph glyph-name="uni1EA1.alt01" horiz-adv-x="567" 
d="M432 79h-3q-17 -36 -57 -63.5t-104 -27.5q-100 0 -155.5 67.5t-55.5 198.5t55.5 198.5t155.5 67.5q64 0 104 -27t57 -64h3v79h35v-508h-35v79zM273 20q32 0 61 9t50.5 26t34.5 40.5t13 52.5v214q0 28 -13 51.5t-34.5 40t-50.5 26t-61 9.5q-85 0 -131.5 -55.5
t-46.5 -150.5v-58q0 -95 46.5 -150t131.5 -55zM273 -142q-16 0 -23 8t-7 19v8q0 11 7 19t23 8t23 -8t7 -19v-8q0 -11 -7 -19t-23 -8z" />
    <glyph glyph-name="agrave.alt01" horiz-adv-x="567" 
d="M432 79h-3q-17 -36 -57 -63.5t-104 -27.5q-100 0 -155.5 67.5t-55.5 198.5t55.5 198.5t155.5 67.5q64 0 104 -27t57 -64h3v79h35v-508h-35v79zM273 20q32 0 61 9t50.5 26t34.5 40.5t13 52.5v214q0 28 -13 51.5t-34.5 40t-50.5 26t-61 9.5q-85 0 -131.5 -55.5
t-46.5 -150.5v-58q0 -95 46.5 -150t131.5 -55zM171 740l32 18l105 -158l-24 -13z" />
    <glyph glyph-name="uni1EA3.alt01" horiz-adv-x="567" 
d="M432 79h-3q-17 -36 -57 -63.5t-104 -27.5q-100 0 -155.5 67.5t-55.5 198.5t55.5 198.5t155.5 67.5q64 0 104 -27t57 -64h3v79h35v-508h-35v79zM273 20q32 0 61 9t50.5 26t34.5 40.5t13 52.5v214q0 28 -13 51.5t-34.5 40t-50.5 26t-61 9.5q-85 0 -131.5 -55.5
t-46.5 -150.5v-58q0 -95 46.5 -150t131.5 -55zM196 744h130q18 0 26 -8t8 -19q0 -10 -7.5 -24.5t-27.5 -44.5l-43 -65l-23 12l72 120h-135v29z" />
    <glyph glyph-name="amacron.alt01" horiz-adv-x="567" 
d="M432 79h-3q-17 -36 -57 -63.5t-104 -27.5q-100 0 -155.5 67.5t-55.5 198.5t55.5 198.5t155.5 67.5q64 0 104 -27t57 -64h3v79h35v-508h-35v79zM273 20q32 0 61 9t50.5 26t34.5 40.5t13 52.5v214q0 28 -13 51.5t-34.5 40t-50.5 26t-61 9.5q-85 0 -131.5 -55.5
t-46.5 -150.5v-58q0 -95 46.5 -150t131.5 -55zM141 683h264v-30h-264v30z" />
    <glyph glyph-name="aogonek.alt01" horiz-adv-x="567" 
d="M273 20q32 0 61 9t50.5 26t34.5 40.5t13 52.5v214q0 28 -13 51.5t-34.5 40t-50.5 26t-61 9.5q-85 0 -131.5 -55.5t-46.5 -150.5v-58q0 -95 46.5 -150t131.5 -55zM467 0q-27 -21 -45.5 -37.5t-30 -31t-17 -28t-5.5 -29.5q0 -28 14.5 -39.5t37.5 -11.5q22 0 35.5 7.5
t21.5 17.5l20 -18q-10 -14 -29.5 -23.5t-48.5 -9.5q-35 0 -59 18t-24 55q0 30 22.5 62t76.5 67v1h-4v79h-3q-17 -36 -57 -63.5t-104 -27.5q-100 0 -155.5 67.5t-55.5 198.5t55.5 198.5t155.5 67.5q64 0 104 -27t57 -64h3v79h35v-508z" />
    <glyph glyph-name="aring.alt01" horiz-adv-x="567" 
d="M432 79h-3q-17 -36 -57 -63.5t-104 -27.5q-100 0 -155.5 67.5t-55.5 198.5t55.5 198.5t155.5 67.5q64 0 104 -27t57 -64h3v79h35v-508h-35v79zM273 20q32 0 61 9t50.5 26t34.5 40.5t13 52.5v214q0 28 -13 51.5t-34.5 40t-50.5 26t-61 9.5q-85 0 -131.5 -55.5
t-46.5 -150.5v-58q0 -95 46.5 -150t131.5 -55zM273 586q-43 0 -69.5 27t-26.5 70q0 42 26.5 69t69.5 27t69.5 -27t26.5 -69q0 -43 -26.5 -70t-69.5 -27zM273 611q31 0 49 18t18 47v13q0 30 -18 47.5t-49 17.5t-49 -17.5t-18 -47.5v-13q0 -29 18 -47t49 -18z" />
    <glyph glyph-name="aringacute.alt01" horiz-adv-x="567" 
d="M432 79h-3q-17 -36 -57 -63.5t-104 -27.5q-100 0 -155.5 67.5t-55.5 198.5t55.5 198.5t155.5 67.5q64 0 104 -27t57 -64h3v79h35v-508h-35v79zM273 20q32 0 61 9t50.5 26t34.5 40.5t13 52.5v214q0 28 -13 51.5t-34.5 40t-50.5 26t-61 9.5q-85 0 -131.5 -55.5
t-46.5 -150.5v-58q0 -95 46.5 -150t131.5 -55zM276 803l-22 13l79 106l29 -19zM273 584q-43 0 -69.5 26.5t-26.5 69.5t26.5 70t69.5 27t69.5 -27t26.5 -70t-26.5 -69.5t-69.5 -26.5zM273 609q31 0 49 17.5t18 47.5v13q0 29 -18 47t-49 18t-49 -18t-18 -47v-13
q0 -30 18 -47.5t49 -17.5z" />
    <glyph glyph-name="atilde.alt01" horiz-adv-x="567" 
d="M432 79h-3q-17 -36 -57 -63.5t-104 -27.5q-100 0 -155.5 67.5t-55.5 198.5t55.5 198.5t155.5 67.5q64 0 104 -27t57 -64h3v79h35v-508h-35v79zM273 20q32 0 61 9t50.5 26t34.5 40.5t13 52.5v214q0 28 -13 51.5t-34.5 40t-50.5 26t-61 9.5q-85 0 -131.5 -55.5
t-46.5 -150.5v-58q0 -95 46.5 -150t131.5 -55zM344 624q-19 0 -36.5 7t-40.5 22q-23 14 -38 20t-29 6q-18 0 -33 -8t-31 -24l-17 19q36 42 83 42q19 0 36.5 -7t40.5 -22q23 -14 38 -20t29 -6q18 0 33 8t31 24l17 -19q-36 -42 -83 -42z" />
    <glyph glyph-name="uni1EAF.alt01" horiz-adv-x="567" 
d="M432 79h-3q-17 -36 -57 -63.5t-104 -27.5q-100 0 -155.5 67.5t-55.5 198.5t55.5 198.5t155.5 67.5q64 0 104 -27t57 -64h3v79h35v-508h-35v79zM273 20q32 0 61 9t50.5 26t34.5 40.5t13 52.5v214q0 28 -13 51.5t-34.5 40t-50.5 26t-61 9.5q-85 0 -131.5 -55.5
t-46.5 -150.5v-58q0 -95 46.5 -150t131.5 -55zM272 592q-29 0 -49.5 8t-36.5 23t-28 35.5t-23 44.5l23 11l17 -28q22 -38 42 -52t55 -14t55 14t42 52l17 28l23 -11q-11 -24 -23 -44.5t-28 -35.5t-36.5 -23t-49.5 -8zM266 697l-23 13l105 158l31 -17z" />
    <glyph glyph-name="uni1EB7.alt01" horiz-adv-x="567" 
d="M432 79h-3q-17 -36 -57 -63.5t-104 -27.5q-100 0 -155.5 67.5t-55.5 198.5t55.5 198.5t155.5 67.5q64 0 104 -27t57 -64h3v79h35v-508h-35v79zM273 20q32 0 61 9t50.5 26t34.5 40.5t13 52.5v214q0 28 -13 51.5t-34.5 40t-50.5 26t-61 9.5q-85 0 -131.5 -55.5
t-46.5 -150.5v-58q0 -95 46.5 -150t131.5 -55zM273 604q-29 0 -49.5 9t-35.5 24.5t-27.5 37.5t-24.5 48l23 10l17 -28q12 -21 22 -34.5t21 -22t24 -12t30 -3.5q34 0 54 15.5t43 56.5l17 28l23 -10q-12 -26 -24.5 -48t-27.5 -37.5t-35.5 -24.5t-49.5 -9zM273 -142
q-16 0 -23 8t-7 19v8q0 11 7 19t23 8t23 -8t7 -19v-8q0 -11 -7 -19t-23 -8z" />
    <glyph glyph-name="uni1EB1.alt01" horiz-adv-x="567" 
d="M432 79h-3q-17 -36 -57 -63.5t-104 -27.5q-100 0 -155.5 67.5t-55.5 198.5t55.5 198.5t155.5 67.5q64 0 104 -27t57 -64h3v79h35v-508h-35v79zM273 20q32 0 61 9t50.5 26t34.5 40.5t13 52.5v214q0 28 -13 51.5t-34.5 40t-50.5 26t-61 9.5q-85 0 -131.5 -55.5
t-46.5 -150.5v-58q0 -95 46.5 -150t131.5 -55zM272 592q-29 0 -49.5 8t-36.5 23t-28 35.5t-23 44.5l23 11l17 -28q22 -38 42 -52t55 -14t55 14t42 52l17 28l23 -11q-11 -24 -23 -44.5t-28 -35.5t-36.5 -23t-49.5 -8zM165 851l31 17l105 -158l-23 -13z" />
    <glyph glyph-name="uni1EB3.alt01" horiz-adv-x="567" 
d="M432 79h-3q-17 -36 -57 -63.5t-104 -27.5q-100 0 -155.5 67.5t-55.5 198.5t55.5 198.5t155.5 67.5q64 0 104 -27t57 -64h3v79h35v-508h-35v79zM273 20q32 0 61 9t50.5 26t34.5 40.5t13 52.5v214q0 28 -13 51.5t-34.5 40t-50.5 26t-61 9.5q-85 0 -131.5 -55.5
t-46.5 -150.5v-58q0 -95 46.5 -150t131.5 -55zM272 592q-29 0 -49.5 8t-36.5 23t-28 35.5t-23 44.5l23 11l17 -28q22 -38 42 -52t55 -14t55 14t42 52l17 28l23 -11q-11 -24 -23 -44.5t-28 -35.5t-36.5 -23t-49.5 -8zM194 855h127q18 0 26 -7.5t8 -19.5q0 -10 -7.5 -24.5
t-27.5 -44.5l-43 -65l-23 12l73 121h-133v28z" />
    <glyph glyph-name="uni1EB5.alt01" horiz-adv-x="567" 
d="M432 79h-3q-17 -36 -57 -63.5t-104 -27.5q-100 0 -155.5 67.5t-55.5 198.5t55.5 198.5t155.5 67.5q64 0 104 -27t57 -64h3v79h35v-508h-35v79zM273 20q32 0 61 9t50.5 26t34.5 40.5t13 52.5v214q0 28 -13 51.5t-34.5 40t-50.5 26t-61 9.5q-85 0 -131.5 -55.5
t-46.5 -150.5v-58q0 -95 46.5 -150t131.5 -55zM272 592q-29 0 -49.5 8t-36.5 23t-28 35.5t-23 44.5l23 11l17 -28q22 -38 42 -52t55 -14t55 14t42 52l17 28l23 -11q-11 -24 -23 -44.5t-28 -35.5t-36.5 -23t-49.5 -8zM343 765q-20 0 -37 7.5t-40 21.5t-38 20t-29 6
q-18 0 -33 -8t-31 -24l-16 18q34 42 82 42q20 0 37 -7.5t40 -21.5t38 -20t29 -6q18 0 33 8t31 24l16 -18q-34 -42 -82 -42z" />
    <glyph glyph-name="uni1EA5.alt01" horiz-adv-x="567" 
d="M432 79h-3q-17 -36 -57 -63.5t-104 -27.5q-100 0 -155.5 67.5t-55.5 198.5t55.5 198.5t155.5 67.5q64 0 104 -27t57 -64h3v79h35v-508h-35v79zM273 20q32 0 61 9t50.5 26t34.5 40.5t13 52.5v214q0 28 -13 51.5t-34.5 40t-50.5 26t-61 9.5q-85 0 -131.5 -55.5
t-46.5 -150.5v-58q0 -95 46.5 -150t131.5 -55zM395 697l-23 13l105 158l31 -17zM293 737l124 -133l-21 -15l-124 123l-124 -123l-21 15l124 133h42z" />
    <glyph glyph-name="uni1EAD.alt01" horiz-adv-x="567" 
d="M432 79h-3q-17 -36 -57 -63.5t-104 -27.5q-100 0 -155.5 67.5t-55.5 198.5t55.5 198.5t155.5 67.5q64 0 104 -27t57 -64h3v79h35v-508h-35v79zM273 20q32 0 61 9t50.5 26t34.5 40.5t13 52.5v214q0 28 -13 51.5t-34.5 40t-50.5 26t-61 9.5q-85 0 -131.5 -55.5
t-46.5 -150.5v-58q0 -95 46.5 -150t131.5 -55zM294 748l124 -135l-21 -16l-124 125l-124 -125l-21 16l124 135h42zM273 -142q-16 0 -23 8t-7 19v8q0 11 7 19t23 8t23 -8t7 -19v-8q0 -11 -7 -19t-23 -8z" />
    <glyph glyph-name="uni1EA7.alt01" horiz-adv-x="567" 
d="M432 79h-3q-17 -36 -57 -63.5t-104 -27.5q-100 0 -155.5 67.5t-55.5 198.5t55.5 198.5t155.5 67.5q64 0 104 -27t57 -64h3v79h35v-508h-35v79zM273 20q32 0 61 9t50.5 26t34.5 40.5t13 52.5v214q0 28 -13 51.5t-34.5 40t-50.5 26t-61 9.5q-85 0 -131.5 -55.5
t-46.5 -150.5v-58q0 -95 46.5 -150t131.5 -55zM36 851l31 17l105 -158l-23 -13zM293 737l124 -133l-21 -15l-124 123l-124 -123l-21 15l124 133h42z" />
    <glyph glyph-name="uni1EA9.alt01" horiz-adv-x="567" 
d="M432 79h-3q-17 -36 -57 -63.5t-104 -27.5q-100 0 -155.5 67.5t-55.5 198.5t55.5 198.5t155.5 67.5q64 0 104 -27t57 -64h3v79h35v-508h-35v79zM273 20q32 0 61 9t50.5 26t34.5 40.5t13 52.5v214q0 28 -13 51.5t-34.5 40t-50.5 26t-61 9.5q-85 0 -131.5 -55.5
t-46.5 -150.5v-58q0 -95 46.5 -150t131.5 -55zM314 855h130q18 0 26 -7.5t8 -19.5q0 -10 -7.5 -24.5t-27.5 -44.5l-43 -65l-23 12l73 121h-136v28zM293 737l124 -133l-21 -15l-124 123l-124 -123l-21 15l124 133h42z" />
    <glyph glyph-name="uni1EAB.alt01" horiz-adv-x="567" 
d="M432 79h-3q-17 -36 -57 -63.5t-104 -27.5q-100 0 -155.5 67.5t-55.5 198.5t55.5 198.5t155.5 67.5q64 0 104 -27t57 -64h3v79h35v-508h-35v79zM273 20q32 0 61 9t50.5 26t34.5 40.5t13 52.5v214q0 28 -13 51.5t-34.5 40t-50.5 26t-61 9.5q-85 0 -131.5 -55.5
t-46.5 -150.5v-58q0 -95 46.5 -150t131.5 -55zM201 856q20 0 37 -7.5t40 -21.5t38 -19.5t29 -5.5q18 0 33 7.5t31 23.5l16 -17q-17 -20 -37 -31.5t-45 -11.5q-20 0 -37 7.5t-40 21.5t-38 19.5t-29 5.5q-18 0 -33 -7.5t-31 -23.5l-16 17q17 20 37 31.5t45 11.5zM293 737
l124 -133l-21 -15l-124 123l-124 -123l-21 15l124 133h42z" />
    <glyph glyph-name="ae" unicode="&#xe6;" horiz-adv-x="862" 
d="M250 252q-84 0 -121.5 -28.5t-37.5 -75.5v-28q0 -50 36 -75.5t95 -25.5q33 0 62 8.5t51 24.5t35 40t13 56v104h-133zM767 280v6q0 46 -12.5 83.5t-35 64t-54 41t-69.5 14.5q-42 0 -74.5 -14.5t-55.5 -41.5t-35 -65t-12 -84v-4h348zM600 19q121 0 167 116l27 -15
q-23 -60 -72 -96t-121 -36q-73 0 -122.5 35t-69.5 94h-4q-6 -29 -22 -53t-40.5 -41t-56 -26t-68.5 -9q-78 0 -121.5 38t-43.5 107q0 33 10.5 60t33.5 46.5t61 30t92 10.5h133v68q0 72 -35 106.5t-103 34.5q-56 0 -92 -22t-57 -68l-25 17q21 47 62 75.5t112 28.5
q78 0 116.5 -37t44.5 -94h4q20 59 68 95t120 36q46 0 84.5 -18t65.5 -51t42 -79.5t15 -103.5v-16h-386v-27q0 -47 12 -85t35.5 -65t57 -41.5t76.5 -14.5z" />
    <glyph glyph-name="aeacute" unicode="&#x1fd;" horiz-adv-x="862" 
d="M250 252q-84 0 -121.5 -28.5t-37.5 -75.5v-28q0 -50 36 -75.5t95 -25.5q33 0 62 8.5t51 24.5t35 40t13 56v104h-133zM767 280v6q0 46 -12.5 83.5t-35 64t-54 41t-69.5 14.5q-42 0 -74.5 -14.5t-55.5 -41.5t-35 -65t-12 -84v-4h348zM600 19q121 0 167 116l27 -15
q-23 -60 -72 -96t-121 -36q-73 0 -122.5 35t-69.5 94h-4q-6 -29 -22 -53t-40.5 -41t-56 -26t-68.5 -9q-78 0 -121.5 38t-43.5 107q0 33 10.5 60t33.5 46.5t61 30t92 10.5h133v68q0 72 -35 106.5t-103 34.5q-56 0 -92 -22t-57 -68l-25 17q21 47 62 75.5t112 28.5
q78 0 116.5 -37t44.5 -94h4q20 59 68 95t120 36q46 0 84.5 -18t65.5 -51t42 -79.5t15 -103.5v-16h-386v-27q0 -47 12 -85t35.5 -65t57 -41.5t76.5 -14.5zM413 587l-24 13l105 158l32 -18z" />
    <glyph glyph-name="cacute" unicode="&#x107;" horiz-adv-x="491" 
d="M272 -12q-102 0 -158.5 68t-56.5 198q0 131 56.5 198.5t158.5 67.5q64 0 106 -28.5t65 -76.5l-29 -15q-22 43 -55.5 66t-86.5 23q-86 0 -131.5 -56t-45.5 -150v-58q0 -94 45.5 -150t131.5 -56q57 0 93.5 23.5t59.5 65.5l26 -18q-25 -46 -68 -74t-111 -28zM260 587l-24 13
l105 158l32 -18z" />
    <glyph glyph-name="ccaron" unicode="&#x10d;" horiz-adv-x="491" 
d="M272 -12q-102 0 -158.5 68t-56.5 198q0 131 56.5 198.5t158.5 67.5q64 0 106 -28.5t65 -76.5l-29 -15q-22 43 -55.5 66t-86.5 23q-86 0 -131.5 -56t-45.5 -150v-58q0 -94 45.5 -150t131.5 -56q57 0 93.5 23.5t59.5 65.5l26 -18q-25 -46 -68 -74t-111 -28zM251 602
l-124 135l21 16l124 -124l124 124l21 -16l-124 -135h-42z" />
    <glyph glyph-name="ccedilla" unicode="&#xe7;" horiz-adv-x="491" 
d="M272 520q64 0 106 -28.5t65 -75.5l-29 -16q-22 43 -55.5 66t-86.5 23q-86 0 -131.5 -56t-45.5 -150v-58q0 -94 45.5 -150t131.5 -56q57 0 93.5 23.5t59.5 65.5l26 -18q-23 -44 -64 -72t-104 -30l-14 -58l2 -2q8 2 16.5 2.5t16.5 0.5q29 0 48 -16t19 -44q0 -32 -24.5 -53
t-64.5 -21q-32 0 -54 10t-31 24l19 20q10 -13 26.5 -20.5t39.5 -7.5q25 0 41 12t16 35q0 18 -13.5 30.5t-49.5 14.5l-35 3l16 70q-95 5 -147.5 72.5t-52.5 193.5q0 131 56.5 198.5t158.5 67.5z" />
    <glyph glyph-name="ccircumflex" unicode="&#x109;" horiz-adv-x="491" 
d="M272 -12q-102 0 -158.5 68t-56.5 198q0 131 56.5 198.5t158.5 67.5q64 0 106 -28.5t65 -76.5l-29 -15q-22 43 -55.5 66t-86.5 23q-86 0 -131.5 -56t-45.5 -150v-58q0 -94 45.5 -150t131.5 -56q57 0 93.5 23.5t59.5 65.5l26 -18q-25 -46 -68 -74t-111 -28zM293 748
l124 -135l-21 -16l-124 125l-124 -125l-21 16l124 135h42z" />
    <glyph glyph-name="cdotaccent" unicode="&#x10b;" horiz-adv-x="491" 
d="M272 -12q-102 0 -158.5 68t-56.5 198q0 131 56.5 198.5t158.5 67.5q64 0 106 -28.5t65 -76.5l-29 -15q-22 43 -55.5 66t-86.5 23q-86 0 -131.5 -56t-45.5 -150v-58q0 -94 45.5 -150t131.5 -56q57 0 93.5 23.5t59.5 65.5l26 -18q-25 -46 -68 -74t-111 -28zM272 636
q-16 0 -23 8t-7 19v8q0 11 7 19t23 8t23 -8t7 -19v-8q0 -11 -7 -19t-23 -8z" />
    <glyph glyph-name="dcaron" unicode="&#x10f;" horiz-adv-x="567" 
d="M432 79h-3q-17 -36 -57 -63.5t-104 -27.5q-100 0 -155.5 67.5t-55.5 198.5t55.5 198.5t155.5 67.5q64 0 104 -27t57 -64h3v311h35v-740h-35v79zM273 20q32 0 61 9t50.5 26t34.5 40.5t13 52.5v214q0 28 -13 51.5t-34.5 40t-50.5 26t-61 9.5q-85 0 -131.5 -55.5
t-46.5 -150.5v-58q0 -95 46.5 -150t131.5 -55zM573 562h-25l15 178h41z" />
    <glyph glyph-name="dcroat" unicode="&#x111;" horiz-adv-x="570" 
d="M432 79h-3q-17 -36 -57 -63.5t-104 -27.5q-100 0 -155.5 67.5t-55.5 198.5t55.5 198.5t155.5 67.5q64 0 104 -27t57 -64h3v194h-160v29h160v88h35v-88h66v-29h-66v-623h-35v79zM273 20q32 0 61 9t50.5 26t34.5 40.5t13 52.5v214q0 28 -13 51.5t-34.5 40t-50.5 26t-61 9.5
q-85 0 -131.5 -55.5t-46.5 -150.5v-58q0 -95 46.5 -150t131.5 -55z" />
    <glyph glyph-name="eth" unicode="&#xf0;" horiz-adv-x="548" 
d="M407 732l-101 -73q35 -33 67.5 -76t57.5 -95t40 -111t15 -124q0 -64 -15.5 -113.5t-44 -83t-68 -51t-87.5 -17.5t-87.5 18t-67.5 51.5t-43.5 81.5t-15.5 109q0 59 15.5 106t43.5 79.5t67.5 50t87.5 17.5q51 0 90.5 -22t64.5 -63l3 2q-23 68 -62 123.5t-85 100.5l-101 -73
l-15 20l97 70q-23 20 -54.5 42t-63.5 39h57q21 -13 41.5 -28t43.5 -35l105 75zM271 19q39 0 71.5 14t56 39.5t36.5 62t13 82.5v55q0 46 -13 82.5t-36.5 62t-56 39.5t-71.5 14t-71 -13.5t-55.5 -39t-36.5 -62.5t-13 -83v-55q0 -46 13 -83t36.5 -62.5t55.5 -39t71 -13.5z" />
    <glyph glyph-name="eacute" unicode="&#xe9;" horiz-adv-x="537" 
d="M275 -12q-101 0 -159.5 68t-58.5 198q0 129 57 197.5t157 68.5q47 0 85.5 -18t66 -51t42.5 -79.5t15 -103.5v-16h-386v-27q0 -47 12 -85t35.5 -65t57 -41.5t76.5 -14.5q121 0 167 116l27 -15q-23 -60 -72 -96t-122 -36zM271 489q-42 0 -74.5 -14.5t-55.5 -41.5t-35 -65
t-12 -84v-4h348v6q0 46 -12.5 83.5t-35 64t-54 41t-69.5 14.5zM260 587l-24 13l105 158l32 -18z" />
    <glyph glyph-name="ebreve" unicode="&#x115;" horiz-adv-x="537" 
d="M275 -12q-101 0 -159.5 68t-58.5 198q0 129 57 197.5t157 68.5q47 0 85.5 -18t66 -51t42.5 -79.5t15 -103.5v-16h-386v-27q0 -47 12 -85t35.5 -65t57 -41.5t76.5 -14.5q121 0 167 116l27 -15q-23 -60 -72 -96t-122 -36zM271 489q-42 0 -74.5 -14.5t-55.5 -41.5t-35 -65
t-12 -84v-4h348v6q0 46 -12.5 83.5t-35 64t-54 41t-69.5 14.5zM272 604q-29 0 -49.5 9t-35.5 24.5t-27.5 37.5t-24.5 48l23 10l17 -28q12 -21 22 -34.5t21 -22t24 -12t30 -3.5q34 0 54 15.5t43 56.5l17 28l23 -10q-12 -26 -24.5 -48t-27.5 -37.5t-35.5 -24.5t-49.5 -9z" />
    <glyph glyph-name="ecaron" unicode="&#x11b;" horiz-adv-x="537" 
d="M275 -12q-101 0 -159.5 68t-58.5 198q0 129 57 197.5t157 68.5q47 0 85.5 -18t66 -51t42.5 -79.5t15 -103.5v-16h-386v-27q0 -47 12 -85t35.5 -65t57 -41.5t76.5 -14.5q121 0 167 116l27 -15q-23 -60 -72 -96t-122 -36zM271 489q-42 0 -74.5 -14.5t-55.5 -41.5t-35 -65
t-12 -84v-4h348v6q0 46 -12.5 83.5t-35 64t-54 41t-69.5 14.5zM251 602l-124 135l21 16l124 -124l124 124l21 -16l-124 -135h-42z" />
    <glyph glyph-name="ecircumflex" unicode="&#xea;" horiz-adv-x="537" 
d="M275 -12q-101 0 -159.5 68t-58.5 198q0 129 57 197.5t157 68.5q47 0 85.5 -18t66 -51t42.5 -79.5t15 -103.5v-16h-386v-27q0 -47 12 -85t35.5 -65t57 -41.5t76.5 -14.5q121 0 167 116l27 -15q-23 -60 -72 -96t-122 -36zM271 489q-42 0 -74.5 -14.5t-55.5 -41.5t-35 -65
t-12 -84v-4h348v6q0 46 -12.5 83.5t-35 64t-54 41t-69.5 14.5zM293 748l124 -135l-21 -16l-124 125l-124 -125l-21 16l124 135h42z" />
    <glyph glyph-name="edieresis" unicode="&#xeb;" horiz-adv-x="537" 
d="M275 -12q-101 0 -159.5 68t-58.5 198q0 129 57 197.5t157 68.5q47 0 85.5 -18t66 -51t42.5 -79.5t15 -103.5v-16h-386v-27q0 -47 12 -85t35.5 -65t57 -41.5t76.5 -14.5q121 0 167 116l27 -15q-23 -60 -72 -96t-122 -36zM271 489q-42 0 -74.5 -14.5t-55.5 -41.5t-35 -65
t-12 -84v-4h348v6q0 46 -12.5 83.5t-35 64t-54 41t-69.5 14.5zM181 636q-17 0 -23.5 8t-6.5 19v8q0 11 6.5 19t23.5 8q16 0 22.5 -8t6.5 -19v-8q0 -11 -6.5 -19t-22.5 -8zM363 636q-16 0 -22.5 8t-6.5 19v8q0 11 6.5 19t22.5 8q17 0 23.5 -8t6.5 -19v-8q0 -11 -6.5 -19
t-23.5 -8z" />
    <glyph glyph-name="edotaccent" unicode="&#x117;" horiz-adv-x="537" 
d="M275 -12q-101 0 -159.5 68t-58.5 198q0 129 57 197.5t157 68.5q47 0 85.5 -18t66 -51t42.5 -79.5t15 -103.5v-16h-386v-27q0 -47 12 -85t35.5 -65t57 -41.5t76.5 -14.5q121 0 167 116l27 -15q-23 -60 -72 -96t-122 -36zM271 489q-42 0 -74.5 -14.5t-55.5 -41.5t-35 -65
t-12 -84v-4h348v6q0 46 -12.5 83.5t-35 64t-54 41t-69.5 14.5zM272 636q-16 0 -23 8t-7 19v8q0 11 7 19t23 8t23 -8t7 -19v-8q0 -11 -7 -19t-23 -8z" />
    <glyph glyph-name="uni1EB9" unicode="&#x1eb9;" horiz-adv-x="537" 
d="M275 -12q-101 0 -159.5 68t-58.5 198q0 129 57 197.5t157 68.5q47 0 85.5 -18t66 -51t42.5 -79.5t15 -103.5v-16h-386v-27q0 -47 12 -85t35.5 -65t57 -41.5t76.5 -14.5q121 0 167 116l27 -15q-23 -60 -72 -96t-122 -36zM271 489q-42 0 -74.5 -14.5t-55.5 -41.5t-35 -65
t-12 -84v-4h348v6q0 46 -12.5 83.5t-35 64t-54 41t-69.5 14.5zM275 -142q-16 0 -23 8t-7 19v8q0 11 7 19t23 8t23 -8t7 -19v-8q0 -11 -7 -19t-23 -8z" />
    <glyph glyph-name="egrave" unicode="&#xe8;" horiz-adv-x="537" 
d="M275 -12q-101 0 -159.5 68t-58.5 198q0 129 57 197.5t157 68.5q47 0 85.5 -18t66 -51t42.5 -79.5t15 -103.5v-16h-386v-27q0 -47 12 -85t35.5 -65t57 -41.5t76.5 -14.5q121 0 167 116l27 -15q-23 -60 -72 -96t-122 -36zM271 489q-42 0 -74.5 -14.5t-55.5 -41.5t-35 -65
t-12 -84v-4h348v6q0 46 -12.5 83.5t-35 64t-54 41t-69.5 14.5zM170 740l32 18l105 -158l-24 -13z" />
    <glyph glyph-name="uni1EBB" unicode="&#x1ebb;" horiz-adv-x="537" 
d="M275 -12q-101 0 -159.5 68t-58.5 198q0 129 57 197.5t157 68.5q47 0 85.5 -18t66 -51t42.5 -79.5t15 -103.5v-16h-386v-27q0 -47 12 -85t35.5 -65t57 -41.5t76.5 -14.5q121 0 167 116l27 -15q-23 -60 -72 -96t-122 -36zM271 489q-42 0 -74.5 -14.5t-55.5 -41.5t-35 -65
t-12 -84v-4h348v6q0 46 -12.5 83.5t-35 64t-54 41t-69.5 14.5zM195 744h130q18 0 26 -8t8 -19q0 -10 -7.5 -24.5t-27.5 -44.5l-43 -65l-23 12l72 120h-135v29z" />
    <glyph glyph-name="emacron" unicode="&#x113;" horiz-adv-x="537" 
d="M275 -12q-101 0 -159.5 68t-58.5 198q0 129 57 197.5t157 68.5q47 0 85.5 -18t66 -51t42.5 -79.5t15 -103.5v-16h-386v-27q0 -47 12 -85t35.5 -65t57 -41.5t76.5 -14.5q121 0 167 116l27 -15q-23 -60 -72 -96t-122 -36zM271 489q-42 0 -74.5 -14.5t-55.5 -41.5t-35 -65
t-12 -84v-4h348v6q0 46 -12.5 83.5t-35 64t-54 41t-69.5 14.5zM140 683h264v-30h-264v30z" />
    <glyph glyph-name="eogonek" unicode="&#x119;" horiz-adv-x="537" 
d="M323 -203q-35 0 -58.5 17.5t-23.5 53.5q0 31 21 62.5t72 63.5l-1 3q-26 -9 -59 -9q-101 0 -159 68t-58 198q0 129 57 197.5t157 68.5q47 0 85.5 -18t66 -51t42.5 -79.5t15 -103.5v-16h-386v-27q0 -47 12 -85t35.5 -65t57 -41.5t76.5 -14.5q121 0 167 116l27 -15
q-23 -62 -75 -97q-55 -38 -88.5 -73.5t-33.5 -77.5q0 -26 14.5 -37.5t37.5 -11.5q22 0 35.5 7.5t21.5 17.5l20 -18q-10 -14 -29.5 -23.5t-48.5 -9.5zM442 280v6q0 46 -12.5 83.5t-35 64t-54 41t-69.5 14.5q-42 0 -74.5 -14.5t-55.5 -41.5t-35 -65t-12 -84v-4h348z" />
    <glyph glyph-name="uni1EBD" unicode="&#x1ebd;" horiz-adv-x="537" 
d="M275 -12q-101 0 -159.5 68t-58.5 198q0 129 57 197.5t157 68.5q47 0 85.5 -18t66 -51t42.5 -79.5t15 -103.5v-16h-386v-27q0 -47 12 -85t35.5 -65t57 -41.5t76.5 -14.5q121 0 167 116l27 -15q-23 -60 -72 -96t-122 -36zM271 489q-42 0 -74.5 -14.5t-55.5 -41.5t-35 -65
t-12 -84v-4h348v6q0 46 -12.5 83.5t-35 64t-54 41t-69.5 14.5zM343 624q-19 0 -36.5 7t-40.5 22q-23 14 -38 20t-29 6q-18 0 -33 -8t-31 -24l-17 19q36 42 83 42q19 0 36.5 -7t40.5 -22q23 -14 38 -20t29 -6q18 0 33 8t31 24l17 -19q-36 -42 -83 -42z" />
    <glyph glyph-name="uni1EBF" unicode="&#x1ebf;" horiz-adv-x="537" 
d="M275 -12q-101 0 -159.5 68t-58.5 198q0 129 57 197.5t157 68.5q47 0 85.5 -18t66 -51t42.5 -79.5t15 -103.5v-16h-386v-27q0 -47 12 -85t35.5 -65t57 -41.5t76.5 -14.5q121 0 167 116l27 -15q-23 -60 -72 -96t-122 -36zM271 489q-42 0 -74.5 -14.5t-55.5 -41.5t-35 -65
t-12 -84v-4h348v6q0 46 -12.5 83.5t-35 64t-54 41t-69.5 14.5zM394 697l-23 13l105 158l31 -17zM292 737l124 -133l-21 -15l-124 123l-124 -123l-21 15l124 133h42z" />
    <glyph glyph-name="uni1EC7" unicode="&#x1ec7;" horiz-adv-x="537" 
d="M275 -12q-101 0 -159.5 68t-58.5 198q0 129 57 197.5t157 68.5q47 0 85.5 -18t66 -51t42.5 -79.5t15 -103.5v-16h-386v-27q0 -47 12 -85t35.5 -65t57 -41.5t76.5 -14.5q121 0 167 116l27 -15q-23 -60 -72 -96t-122 -36zM271 489q-42 0 -74.5 -14.5t-55.5 -41.5t-35 -65
t-12 -84v-4h348v6q0 46 -12.5 83.5t-35 64t-54 41t-69.5 14.5zM293 748l124 -135l-21 -16l-124 125l-124 -125l-21 16l124 135h42zM275 -142q-16 0 -23 8t-7 19v8q0 11 7 19t23 8t23 -8t7 -19v-8q0 -11 -7 -19t-23 -8z" />
    <glyph glyph-name="uni1EC1" unicode="&#x1ec1;" horiz-adv-x="537" 
d="M275 -12q-101 0 -159.5 68t-58.5 198q0 129 57 197.5t157 68.5q47 0 85.5 -18t66 -51t42.5 -79.5t15 -103.5v-16h-386v-27q0 -47 12 -85t35.5 -65t57 -41.5t76.5 -14.5q121 0 167 116l27 -15q-23 -60 -72 -96t-122 -36zM271 489q-42 0 -74.5 -14.5t-55.5 -41.5t-35 -65
t-12 -84v-4h348v6q0 46 -12.5 83.5t-35 64t-54 41t-69.5 14.5zM35 851l31 17l105 -158l-23 -13zM292 737l124 -133l-21 -15l-124 123l-124 -123l-21 15l124 133h42z" />
    <glyph glyph-name="uni1EC3" unicode="&#x1ec3;" horiz-adv-x="537" 
d="M275 -12q-101 0 -159.5 68t-58.5 198q0 129 57 197.5t157 68.5q47 0 85.5 -18t66 -51t42.5 -79.5t15 -103.5v-16h-386v-27q0 -47 12 -85t35.5 -65t57 -41.5t76.5 -14.5q121 0 167 116l27 -15q-23 -60 -72 -96t-122 -36zM271 489q-42 0 -74.5 -14.5t-55.5 -41.5t-35 -65
t-12 -84v-4h348v6q0 46 -12.5 83.5t-35 64t-54 41t-69.5 14.5zM313 855h130q18 0 26 -7.5t8 -19.5q0 -10 -7.5 -24.5t-27.5 -44.5l-43 -65l-23 12l73 121h-136v28zM292 737l124 -133l-21 -15l-124 123l-124 -123l-21 15l124 133h42z" />
    <glyph glyph-name="uni1EC5" unicode="&#x1ec5;" horiz-adv-x="537" 
d="M275 -12q-101 0 -159.5 68t-58.5 198q0 129 57 197.5t157 68.5q47 0 85.5 -18t66 -51t42.5 -79.5t15 -103.5v-16h-386v-27q0 -47 12 -85t35.5 -65t57 -41.5t76.5 -14.5q121 0 167 116l27 -15q-23 -60 -72 -96t-122 -36zM271 489q-42 0 -74.5 -14.5t-55.5 -41.5t-35 -65
t-12 -84v-4h348v6q0 46 -12.5 83.5t-35 64t-54 41t-69.5 14.5zM200 856q20 0 37 -7.5t40 -21.5t38 -19.5t29 -5.5q18 0 33 7.5t31 23.5l16 -17q-17 -20 -37 -31.5t-45 -11.5q-20 0 -37 7.5t-40 21.5t-38 19.5t-29 5.5q-18 0 -33 -7.5t-31 -23.5l-16 17q17 20 37 31.5
t45 11.5zM292 737l124 -133l-21 -15l-124 123l-124 -123l-21 15l124 133h42z" />
    <glyph glyph-name="uni0259" unicode="&#x259;" horiz-adv-x="537" 
d="M442 256v27q0 46 -12 84t-35 65t-56.5 42t-76.5 15q-122 0 -168 -116l-26 15q23 60 72.5 96t122.5 36q101 0 159 -68t58 -198q0 -129 -57 -197.5t-157 -68.5q-47 0 -85.5 18t-66 51t-42.5 79.5t-15 103.5v16h385zM95 222q0 -46 12.5 -83.5t35 -64t54 -41t69.5 -14.5
q42 0 74.5 14.5t55 41.5t34.5 64.5t12 84.5v4h-347v-6z" />
    <glyph glyph-name="gbreve" unicode="&#x11f;" horiz-adv-x="528" 
d="M506 -63q0 -77 -62.5 -113t-179.5 -36q-114 0 -165 35t-51 94q0 45 25 73.5t70 42.5v4q-51 17 -51 69q0 35 25.5 56t60.5 31v3q-44 20 -68.5 58t-24.5 95q0 39 12.5 70.5t35.5 54t56 34.5t74 12t74 -12h165v-29h-119q33 -29 46.5 -61t13.5 -69q0 -38 -13 -69.5t-36.5 -54
t-56.5 -35t-73 -12.5q-15 0 -28 2t-27 5q-41 -11 -63 -29t-22 -45q0 -21 18 -36.5t67 -15.5h129q89 0 128.5 -32.5t39.5 -89.5zM264 209q66 0 103 34t37 88v36q0 54 -37 88t-103 34q-67 0 -103.5 -34t-36.5 -88v-36q0 -54 37 -88t103 -34zM471 -65q0 43 -29.5 67t-105.5 24
h-159q-42 -11 -68 -36.5t-26 -68.5q0 -45 40 -73.5t113 -28.5h55q40 0 73 7t57 21t37 36t13 52zM265 604q-29 0 -49.5 9t-35.5 24.5t-27.5 37.5t-24.5 48l23 10l17 -28q12 -21 22 -34.5t21 -22t24 -12t30 -3.5q34 0 54 15.5t43 56.5l17 28l23 -10q-12 -26 -24.5 -48
t-27.5 -37.5t-35.5 -24.5t-49.5 -9z" />
    <glyph glyph-name="gcircumflex" unicode="&#x11d;" horiz-adv-x="528" 
d="M506 -63q0 -77 -62.5 -113t-179.5 -36q-114 0 -165 35t-51 94q0 45 25 73.5t70 42.5v4q-51 17 -51 69q0 35 25.5 56t60.5 31v3q-44 20 -68.5 58t-24.5 95q0 39 12.5 70.5t35.5 54t56 34.5t74 12t74 -12h165v-29h-119q33 -29 46.5 -61t13.5 -69q0 -38 -13 -69.5t-36.5 -54
t-56.5 -35t-73 -12.5q-15 0 -28 2t-27 5q-41 -11 -63 -29t-22 -45q0 -21 18 -36.5t67 -15.5h129q89 0 128.5 -32.5t39.5 -89.5zM264 209q66 0 103 34t37 88v36q0 54 -37 88t-103 34q-67 0 -103.5 -34t-36.5 -88v-36q0 -54 37 -88t103 -34zM471 -65q0 43 -29.5 67t-105.5 24
h-159q-42 -11 -68 -36.5t-26 -68.5q0 -45 40 -73.5t113 -28.5h55q40 0 73 7t57 21t37 36t13 52zM286 748l124 -135l-21 -16l-124 125l-124 -125l-21 16l124 135h42z" />
    <glyph glyph-name="gcommaaccent" unicode="&#x123;" horiz-adv-x="528" 
d="M506 -63q0 -77 -62.5 -113t-179.5 -36q-114 0 -165 35t-51 94q0 45 25 73.5t70 42.5v4q-51 17 -51 69q0 35 25.5 56t60.5 31v3q-44 20 -68.5 58t-24.5 95q0 39 12.5 70.5t35.5 54t56 34.5t74 12t74 -12h165v-29h-119q33 -29 46.5 -61t13.5 -69q0 -38 -13 -69.5t-36.5 -54
t-56.5 -35t-73 -12.5q-15 0 -28 2t-27 5q-41 -11 -63 -29t-22 -45q0 -21 18 -36.5t67 -15.5h129q89 0 128.5 -32.5t39.5 -89.5zM264 209q66 0 103 34t37 88v36q0 54 -37 88t-103 34q-67 0 -103.5 -34t-36.5 -88v-36q0 -54 37 -88t103 -34zM471 -65q0 43 -29.5 67t-105.5 24
h-159q-42 -11 -68 -36.5t-26 -68.5q0 -45 40 -73.5t113 -28.5h55q40 0 73 7t57 21t37 36t13 52zM264 598q-28 0 -28 28v11q0 28 14 60.5t34 54.5h28q-22 -23 -32.5 -48.5t-14.5 -43.5q17 -1 23.5 -8t6.5 -18v-8q0 -28 -31 -28z" />
    <glyph glyph-name="gdotaccent" unicode="&#x121;" horiz-adv-x="528" 
d="M506 -63q0 -77 -62.5 -113t-179.5 -36q-114 0 -165 35t-51 94q0 45 25 73.5t70 42.5v4q-51 17 -51 69q0 35 25.5 56t60.5 31v3q-44 20 -68.5 58t-24.5 95q0 39 12.5 70.5t35.5 54t56 34.5t74 12t74 -12h165v-29h-119q33 -29 46.5 -61t13.5 -69q0 -38 -13 -69.5t-36.5 -54
t-56.5 -35t-73 -12.5q-15 0 -28 2t-27 5q-41 -11 -63 -29t-22 -45q0 -21 18 -36.5t67 -15.5h129q89 0 128.5 -32.5t39.5 -89.5zM264 209q66 0 103 34t37 88v36q0 54 -37 88t-103 34q-67 0 -103.5 -34t-36.5 -88v-36q0 -54 37 -88t103 -34zM471 -65q0 43 -29.5 67t-105.5 24
h-159q-42 -11 -68 -36.5t-26 -68.5q0 -45 40 -73.5t113 -28.5h55q40 0 73 7t57 21t37 36t13 52zM265 636q-16 0 -23 8t-7 19v8q0 11 7 19t23 8t23 -8t7 -19v-8q0 -11 -7 -19t-23 -8z" />
    <glyph glyph-name="gbreve.alt01" horiz-adv-x="567" 
d="M467 -4q0 -100 -51.5 -154t-152.5 -54q-63 0 -105 17.5t-72 49.5l21 25q28 -29 63 -45t92 -16q84 0 127 43.5t43 131.5v85h-3q-17 -36 -57 -63.5t-104 -27.5q-100 0 -155.5 67.5t-55.5 198.5t55.5 198.5t155.5 67.5q64 0 104 -27t57 -64h3v79h35v-512zM274 20q31 0 60 9
t50.5 26t34.5 40.5t13 52.5v214q0 28 -13 51.5t-34.5 40t-50.5 26t-60 9.5q-86 0 -132.5 -55.5t-46.5 -150.5v-58q0 -94 46.5 -149.5t132.5 -55.5zM273 604q-29 0 -49.5 9t-35.5 24.5t-27.5 37.5t-24.5 48l23 10l17 -28q12 -21 22 -34.5t21 -22t24 -12t30 -3.5q34 0 54 15.5
t43 56.5l17 28l23 -10q-12 -26 -24.5 -48t-27.5 -37.5t-35.5 -24.5t-49.5 -9z" />
    <glyph glyph-name="gcircumflex.alt01" horiz-adv-x="567" 
d="M467 -4q0 -100 -51.5 -154t-152.5 -54q-63 0 -105 17.5t-72 49.5l21 25q28 -29 63 -45t92 -16q84 0 127 43.5t43 131.5v85h-3q-17 -36 -57 -63.5t-104 -27.5q-100 0 -155.5 67.5t-55.5 198.5t55.5 198.5t155.5 67.5q64 0 104 -27t57 -64h3v79h35v-512zM274 20q31 0 60 9
t50.5 26t34.5 40.5t13 52.5v214q0 28 -13 51.5t-34.5 40t-50.5 26t-60 9.5q-86 0 -132.5 -55.5t-46.5 -150.5v-58q0 -94 46.5 -149.5t132.5 -55.5zM294 748l124 -135l-21 -16l-124 125l-124 -125l-21 16l124 135h42z" />
    <glyph glyph-name="gcommaaccent.alt01" horiz-adv-x="567" 
d="M467 -4q0 -100 -51.5 -154t-152.5 -54q-63 0 -105 17.5t-72 49.5l21 25q28 -29 63 -45t92 -16q84 0 127 43.5t43 131.5v85h-3q-17 -36 -57 -63.5t-104 -27.5q-100 0 -155.5 67.5t-55.5 198.5t55.5 198.5t155.5 67.5q64 0 104 -27t57 -64h3v79h35v-512zM274 20q31 0 60 9
t50.5 26t34.5 40.5t13 52.5v214q0 28 -13 51.5t-34.5 40t-50.5 26t-60 9.5q-86 0 -132.5 -55.5t-46.5 -150.5v-58q0 -94 46.5 -149.5t132.5 -55.5zM272 598q-28 0 -28 28v11q0 28 14 60.5t34 54.5h28q-22 -23 -32.5 -48.5t-14.5 -43.5q17 -1 23.5 -8t6.5 -18v-8
q0 -28 -31 -28z" />
    <glyph glyph-name="gdotaccent.alt01" horiz-adv-x="567" 
d="M467 -4q0 -100 -51.5 -154t-152.5 -54q-63 0 -105 17.5t-72 49.5l21 25q28 -29 63 -45t92 -16q84 0 127 43.5t43 131.5v85h-3q-17 -36 -57 -63.5t-104 -27.5q-100 0 -155.5 67.5t-55.5 198.5t55.5 198.5t155.5 67.5q64 0 104 -27t57 -64h3v79h35v-512zM274 20q31 0 60 9
t50.5 26t34.5 40.5t13 52.5v214q0 28 -13 51.5t-34.5 40t-50.5 26t-60 9.5q-86 0 -132.5 -55.5t-46.5 -150.5v-58q0 -94 46.5 -149.5t132.5 -55.5zM273 636q-16 0 -23 8t-7 19v8q0 11 7 19t23 8t23 -8t7 -19v-8q0 -11 -7 -19t-23 -8z" />
    <glyph glyph-name="hbar" unicode="&#x127;" horiz-adv-x="562" 
d="M103 0v623h-66v29h66v88h35v-88h159v-29h-159v-193h3q14 37 51.5 63.5t103.5 26.5q84 0 129 -49.5t45 -144.5v-326h-35v320q0 88 -38 128.5t-108 40.5q-30 0 -57 -8t-48 -24t-33.5 -40t-12.5 -56v-361h-35z" />
    <glyph glyph-name="hcircumflex" unicode="&#x125;" horiz-adv-x="559" 
d="M100 740h35v-310h3q15 37 52.5 63.5t103.5 26.5q84 0 128.5 -49.5t44.5 -144.5v-326h-35v320q0 88 -37.5 128.5t-108.5 40.5q-29 0 -56.5 -8t-48.5 -24t-33.5 -40t-12.5 -56v-361h-35v740zM140 906l124 -135l-21 -16l-124 125l-124 -125l-21 16l124 135h42z" />
    <glyph glyph-name="dotlessi" unicode="&#x131;" horiz-adv-x="235" 
d="M100 0v508h35v-508h-35z" />
    <glyph glyph-name="iacute" unicode="&#xed;" horiz-adv-x="235" 
d="M100 0v508h35v-508h-35zM106 587l-24 13l105 158l32 -18z" />
    <glyph glyph-name="ibreve" unicode="&#x12d;" horiz-adv-x="235" 
d="M100 0v508h35v-508h-35zM118 604q-29 0 -49.5 9t-35.5 24.5t-27.5 37.5t-24.5 48l23 10l17 -28q12 -21 22 -34.5t21 -22t24 -12t30 -3.5q34 0 54 15.5t43 56.5l17 28l23 -10q-12 -26 -24.5 -48t-27.5 -37.5t-35.5 -24.5t-49.5 -9z" />
    <glyph glyph-name="icircumflex" unicode="&#xee;" horiz-adv-x="235" 
d="M100 0v508h35v-508h-35zM139 748l124 -135l-21 -16l-124 125l-124 -125l-21 16l124 135h42z" />
    <glyph glyph-name="idieresis" unicode="&#xef;" horiz-adv-x="235" 
d="M100 0v508h35v-508h-35zM27 636q-17 0 -23.5 8t-6.5 19v8q0 11 6.5 19t23.5 8q16 0 22.5 -8t6.5 -19v-8q0 -11 -6.5 -19t-22.5 -8zM209 636q-16 0 -22.5 8t-6.5 19v8q0 11 6.5 19t22.5 8q17 0 23.5 -8t6.5 -19v-8q0 -11 -6.5 -19t-23.5 -8z" />
    <glyph glyph-name="uni1ECB" unicode="&#x1ecb;" horiz-adv-x="235" 
d="M118 665q-16 0 -23 7.5t-7 18.5v9q0 11 6.5 18.5t22.5 7.5t23 -7.5t7 -18.5v-9q0 -11 -6.5 -18.5t-22.5 -7.5zM100 508h35v-508h-35v508zM118 -142q-16 0 -23 8t-7 19v8q0 11 7 19t23 8t23 -8t7 -19v-8q0 -11 -7 -19t-23 -8z" />
    <glyph glyph-name="igrave" unicode="&#xec;" horiz-adv-x="235" 
d="M100 0v508h35v-508h-35zM16 740l32 18l105 -158l-24 -13z" />
    <glyph glyph-name="uni1EC9" unicode="&#x1ec9;" horiz-adv-x="235" 
d="M100 0v508h35v-508h-35zM41 744h130q18 0 26 -8t8 -19q0 -10 -7.5 -24.5t-27.5 -44.5l-43 -65l-23 12l72 120h-135v29z" />
    <glyph glyph-name="imacron" unicode="&#x12b;" horiz-adv-x="235" 
d="M100 0v508h35v-508h-35zM-14 683h264v-30h-264v30z" />
    <glyph glyph-name="iogonek" unicode="&#x12f;" horiz-adv-x="235" 
d="M100 508h35v-508q-48 -45 -69.5 -71.5t-21.5 -56.5q0 -26 14.5 -37.5t37.5 -11.5q22 0 36 7.5t22 17.5l20 -18q-10 -14 -29.5 -23.5t-48.5 -9.5q-35 0 -59 17.5t-24 52.5q0 36 23.5 66t68.5 66v1h-5v508zM118 665q-16 0 -23 7.5t-7 18.5v9q0 11 6.5 18.5t22.5 7.5
t23 -7.5t7 -18.5v-9q0 -11 -6.5 -18.5t-22.5 -7.5z" />
    <glyph glyph-name="itilde" unicode="&#x129;" horiz-adv-x="235" 
d="M100 0v508h35v-508h-35zM189 624q-19 0 -36.5 7t-40.5 22q-23 14 -38 20t-29 6q-18 0 -33 -8t-31 -24l-17 19q36 42 83 42q19 0 36.5 -7t40.5 -22q23 -14 38 -20t29 -6q18 0 33 8t31 24l17 -19q-36 -42 -83 -42z" />
    <glyph glyph-name="ij" unicode="&#x133;" horiz-adv-x="471" 
d="M118 665q-16 0 -23 7.5t-7 18.5v9q0 11 6.5 18.5t22.5 7.5t23 -7.5t7 -18.5v-9q0 -11 -6.5 -18.5t-22.5 -7.5zM100 508h35v-508h-35v508zM336 508h35v-657q0 -51 -48 -51h-72v31h85v677zM354 665q-16 0 -23 7.5t-7 18.5v9q0 11 6.5 18.5t22.5 7.5t23 -7.5t7 -18.5v-9
q0 -11 -6.5 -18.5t-22.5 -7.5z" />
    <glyph glyph-name="uni0237" unicode="&#x237;" horiz-adv-x="235" 
d="M15 -169h85v677h35v-657q0 -51 -48 -51h-72v31z" />
    <glyph glyph-name="jcircumflex" unicode="&#x135;" horiz-adv-x="235" 
d="M15 -169h85v677h35v-657q0 -51 -48 -51h-72v31zM139 748l124 -135l-21 -16l-124 125l-124 -125l-21 16l124 135h42z" />
    <glyph glyph-name="kcommaaccent" unicode="&#x137;" horiz-adv-x="499" 
d="M100 740h35v-508h3l80 81l193 195h44l-209 -211l234 -297h-43l-216 274l-86 -85v-189h-35v740zM276 -66q29 0 29 -28v-11q0 -28 -14 -60.5t-35 -54.5h-27q21 23 32 48.5t14 43.5q-17 1 -23.5 8t-6.5 18v8q0 28 31 28z" />
    <glyph glyph-name="kgreenlandic" unicode="&#x138;" horiz-adv-x="499" 
d="M221 266l-86 -85v-181h-35v508h35v-284h3l81 82l201 202h43l-216 -218l233 -290h-43z" />
    <glyph glyph-name="lacute" unicode="&#x13a;" horiz-adv-x="255" 
d="M143 0q-43 0 -43 42v698h35v-709h83v-31h-75zM106 787l-24 13l105 158l32 -18z" />
    <glyph glyph-name="lcaron" unicode="&#x13e;" horiz-adv-x="255" 
d="M143 0q-43 0 -43 42v698h35v-709h83v-31h-75zM247 562h-25l15 178h41z" />
    <glyph glyph-name="lcommaaccent" unicode="&#x13c;" horiz-adv-x="255" 
d="M143 0q-43 0 -43 42v698h35v-709h83v-31h-75zM163 -66q29 0 29 -28v-11q0 -28 -14 -60.5t-35 -54.5h-27q21 23 32 48.5t14 43.5q-17 1 -23.5 8t-6.5 18v8q0 28 31 28z" />
    <glyph glyph-name="ldot" unicode="&#x140;" horiz-adv-x="295" 
d="M143 0q-43 0 -43 42v698h35v-709h83v-31h-75zM264 244q-16 0 -23 8t-7 19v8q0 11 7 19t23 8t23 -8t7 -19v-8q0 -11 -7 -19t-23 -8z" />
    <glyph glyph-name="lslash" unicode="&#x142;" horiz-adv-x="261" 
d="M221 0h-75q-43 0 -43 42v303l-73 -24v31l73 24v364h35v-352l95 31v-31l-95 -31v-326h83v-31z" />
    <glyph glyph-name="nacute" unicode="&#x144;" horiz-adv-x="559" 
d="M100 0v508h35v-78h3q15 37 52.5 63.5t103.5 26.5q84 0 128.5 -49.5t44.5 -144.5v-326h-35v320q0 88 -37.5 128.5t-108.5 40.5q-29 0 -56.5 -8t-48.5 -24t-33.5 -40t-12.5 -56v-361h-35zM274 587l-24 13l105 158l32 -18z" />
    <glyph glyph-name="ncaron" unicode="&#x148;" horiz-adv-x="559" 
d="M100 0v508h35v-78h3q15 37 52.5 63.5t103.5 26.5q84 0 128.5 -49.5t44.5 -144.5v-326h-35v320q0 88 -37.5 128.5t-108.5 40.5q-29 0 -56.5 -8t-48.5 -24t-33.5 -40t-12.5 -56v-361h-35zM265 602l-124 135l21 16l124 -124l124 124l21 -16l-124 -135h-42z" />
    <glyph glyph-name="ncommaaccent" unicode="&#x146;" horiz-adv-x="559" 
d="M100 0v508h35v-78h3q15 37 52.5 63.5t103.5 26.5q84 0 128.5 -49.5t44.5 -144.5v-326h-35v320q0 88 -37.5 128.5t-108.5 40.5q-29 0 -56.5 -8t-48.5 -24t-33.5 -40t-12.5 -56v-361h-35zM285 -66q29 0 29 -28v-11q0 -28 -14 -60.5t-35 -54.5h-27q21 23 32 48.5t14 43.5
q-17 1 -23.5 8t-6.5 18v8q0 28 31 28z" />
    <glyph glyph-name="ntilde" unicode="&#xf1;" horiz-adv-x="559" 
d="M100 0v508h35v-78h3q15 37 52.5 63.5t103.5 26.5q84 0 128.5 -49.5t44.5 -144.5v-326h-35v320q0 88 -37.5 128.5t-108.5 40.5q-29 0 -56.5 -8t-48.5 -24t-33.5 -40t-12.5 -56v-361h-35zM357 624q-19 0 -36.5 7t-40.5 22q-23 14 -38 20t-29 6q-18 0 -33 -8t-31 -24l-17 19
q36 42 83 42q19 0 36.5 -7t40.5 -22q23 -14 38 -20t29 -6q18 0 33 8t31 24l17 -19q-36 -42 -83 -42z" />
    <glyph glyph-name="napostrophe" unicode="&#x149;" horiz-adv-x="807" 
d="M129 750q18 0 26 -9.5t8 -24.5v-12q0 -42 -22.5 -88t-57.5 -78h-30q36 36 52.5 72t21.5 66q-19 1 -26.5 9.5t-7.5 20.5v10q0 15 8.5 24.5t27.5 9.5zM348 0v508h35v-78h3q15 37 52.5 63.5t103.5 26.5q84 0 128.5 -49.5t44.5 -144.5v-326h-35v320q0 88 -37.5 128.5
t-108.5 40.5q-29 0 -56.5 -8t-48.5 -24t-33.5 -40t-12.5 -56v-361h-35z" />
    <glyph glyph-name="eng" unicode="&#x14b;" horiz-adv-x="559" 
d="M348 -169h84v489q0 88 -37.5 128.5t-108.5 40.5q-29 0 -56.5 -8t-48.5 -24t-33.5 -40t-12.5 -56v-361h-35v508h35v-78h3q15 37 52.5 63.5t103.5 26.5q84 0 128.5 -49.5t44.5 -144.5v-476q0 -50 -48 -50h-71v31z" />
    <glyph glyph-name="oacute" unicode="&#xf3;" horiz-adv-x="544" 
d="M272 -12q-100 0 -157.5 68t-57.5 198q0 131 57.5 198.5t157.5 67.5t157.5 -67.5t57.5 -198.5q0 -130 -57.5 -198t-157.5 -68zM272 19q85 0 131 55.5t46 152.5v54q0 98 -46 153t-131 55t-131 -55t-46 -153v-54q0 -97 46 -152.5t131 -55.5zM261 587l-24 13l105 158l32 -18z
" />
    <glyph glyph-name="obreve" unicode="&#x14f;" horiz-adv-x="544" 
d="M272 -12q-100 0 -157.5 68t-57.5 198q0 131 57.5 198.5t157.5 67.5t157.5 -67.5t57.5 -198.5q0 -130 -57.5 -198t-157.5 -68zM272 19q85 0 131 55.5t46 152.5v54q0 98 -46 153t-131 55t-131 -55t-46 -153v-54q0 -97 46 -152.5t131 -55.5zM273 604q-29 0 -49.5 9
t-35.5 24.5t-27.5 37.5t-24.5 48l23 10l17 -28q12 -21 22 -34.5t21 -22t24 -12t30 -3.5q34 0 54 15.5t43 56.5l17 28l23 -10q-12 -26 -24.5 -48t-27.5 -37.5t-35.5 -24.5t-49.5 -9z" />
    <glyph glyph-name="ocircumflex" unicode="&#xf4;" horiz-adv-x="544" 
d="M272 -12q-100 0 -157.5 68t-57.5 198q0 131 57.5 198.5t157.5 67.5t157.5 -67.5t57.5 -198.5q0 -130 -57.5 -198t-157.5 -68zM272 19q85 0 131 55.5t46 152.5v54q0 98 -46 153t-131 55t-131 -55t-46 -153v-54q0 -97 46 -152.5t131 -55.5zM294 748l124 -135l-21 -16
l-124 125l-124 -125l-21 16l124 135h42z" />
    <glyph glyph-name="odieresis" unicode="&#xf6;" horiz-adv-x="544" 
d="M272 -12q-100 0 -157.5 68t-57.5 198q0 131 57.5 198.5t157.5 67.5t157.5 -67.5t57.5 -198.5q0 -130 -57.5 -198t-157.5 -68zM272 19q85 0 131 55.5t46 152.5v54q0 98 -46 153t-131 55t-131 -55t-46 -153v-54q0 -97 46 -152.5t131 -55.5zM182 636q-17 0 -23.5 8t-6.5 19
v8q0 11 6.5 19t23.5 8q16 0 22.5 -8t6.5 -19v-8q0 -11 -6.5 -19t-22.5 -8zM364 636q-16 0 -22.5 8t-6.5 19v8q0 11 6.5 19t22.5 8q17 0 23.5 -8t6.5 -19v-8q0 -11 -6.5 -19t-23.5 -8z" />
    <glyph glyph-name="uni1ECD" unicode="&#x1ecd;" horiz-adv-x="544" 
d="M272 -12q-100 0 -157.5 68t-57.5 198q0 131 57.5 198.5t157.5 67.5t157.5 -67.5t57.5 -198.5q0 -130 -57.5 -198t-157.5 -68zM272 19q85 0 131 55.5t46 152.5v54q0 98 -46 153t-131 55t-131 -55t-46 -153v-54q0 -97 46 -152.5t131 -55.5zM272 -142q-16 0 -23 8t-7 19v8
q0 11 7 19t23 8t23 -8t7 -19v-8q0 -11 -7 -19t-23 -8z" />
    <glyph glyph-name="ograve" unicode="&#xf2;" horiz-adv-x="544" 
d="M272 -12q-100 0 -157.5 68t-57.5 198q0 131 57.5 198.5t157.5 67.5t157.5 -67.5t57.5 -198.5q0 -130 -57.5 -198t-157.5 -68zM272 19q85 0 131 55.5t46 152.5v54q0 98 -46 153t-131 55t-131 -55t-46 -153v-54q0 -97 46 -152.5t131 -55.5zM171 740l32 18l105 -158l-24 -13
z" />
    <glyph glyph-name="uni1ECF" unicode="&#x1ecf;" horiz-adv-x="544" 
d="M272 -12q-100 0 -157.5 68t-57.5 198q0 131 57.5 198.5t157.5 67.5t157.5 -67.5t57.5 -198.5q0 -130 -57.5 -198t-157.5 -68zM272 19q85 0 131 55.5t46 152.5v54q0 98 -46 153t-131 55t-131 -55t-46 -153v-54q0 -97 46 -152.5t131 -55.5zM196 744h130q18 0 26 -8t8 -19
q0 -10 -7.5 -24.5t-27.5 -44.5l-43 -65l-23 12l72 120h-135v29z" />
    <glyph glyph-name="ohungarumlaut" unicode="&#x151;" horiz-adv-x="544" 
d="M272 -12q-100 0 -157.5 68t-57.5 198q0 131 57.5 198.5t157.5 67.5t157.5 -67.5t57.5 -198.5q0 -130 -57.5 -198t-157.5 -68zM272 19q85 0 131 55.5t46 152.5v54q0 98 -46 153t-131 55t-131 -55t-46 -153v-54q0 -97 46 -152.5t131 -55.5zM195 587l-23 13l105 157l31 -17z
M355 587l-23 13l105 157l31 -17z" />
    <glyph glyph-name="omacron" unicode="&#x14d;" horiz-adv-x="544" 
d="M272 -12q-100 0 -157.5 68t-57.5 198q0 131 57.5 198.5t157.5 67.5t157.5 -67.5t57.5 -198.5q0 -130 -57.5 -198t-157.5 -68zM272 19q85 0 131 55.5t46 152.5v54q0 98 -46 153t-131 55t-131 -55t-46 -153v-54q0 -97 46 -152.5t131 -55.5zM141 683h264v-30h-264v30z" />
    <glyph glyph-name="oslash" unicode="&#xf8;" horiz-adv-x="544" 
d="M36 -13l68 84q-23 33 -35 79t-12 104q0 131 57.5 198.5t157.5 67.5q93 0 149 -58l67 83l21 -16l-71 -88q49 -67 49 -187q0 -130 -57.5 -198t-157.5 -68q-97 0 -151 62l-64 -79zM272 19q85 0 131 55.5t46 152.5v54q0 81 -33 134l-275 -340q47 -56 131 -56zM95 227
q0 -39 8 -71.5t22 -58.5l275 339q-45 53 -128 53q-85 0 -131 -55t-46 -153v-54z" />
    <glyph glyph-name="oslashacute" unicode="&#x1ff;" horiz-adv-x="544" 
d="M36 -13l68 84q-23 33 -35 79t-12 104q0 131 57.5 198.5t157.5 67.5q93 0 149 -58l67 83l21 -16l-71 -88q49 -67 49 -187q0 -130 -57.5 -198t-157.5 -68q-97 0 -151 62l-64 -79zM272 19q85 0 131 55.5t46 152.5v54q0 81 -33 134l-275 -340q47 -56 131 -56zM95 227
q0 -39 8 -71.5t22 -58.5l275 339q-45 53 -128 53q-85 0 -131 -55t-46 -153v-54zM262 587l-24 13l105 158l32 -18z" />
    <glyph glyph-name="otilde" unicode="&#xf5;" horiz-adv-x="544" 
d="M272 -12q-100 0 -157.5 68t-57.5 198q0 131 57.5 198.5t157.5 67.5t157.5 -67.5t57.5 -198.5q0 -130 -57.5 -198t-157.5 -68zM272 19q85 0 131 55.5t46 152.5v54q0 98 -46 153t-131 55t-131 -55t-46 -153v-54q0 -97 46 -152.5t131 -55.5zM344 624q-19 0 -36.5 7t-40.5 22
q-23 14 -38 20t-29 6q-18 0 -33 -8t-31 -24l-17 19q36 42 83 42q19 0 36.5 -7t40.5 -22q23 -14 38 -20t29 -6q18 0 33 8t31 24l17 -19q-36 -42 -83 -42z" />
    <glyph glyph-name="ohorn" unicode="&#x1a1;" horiz-adv-x="544" 
d="M479 612v-92q0 -18 -8.5 -27.5t-28.5 -9.5h-46q42 -30 66.5 -87.5t24.5 -141.5q0 -130 -57.5 -198t-157.5 -68t-157.5 68t-57.5 198q0 131 57.5 198.5t157.5 67.5q24 0 39 -2.5t38 -9.5h97v104h33zM272 19q85 0 131 55.5t46 152.5v54q0 98 -46 153t-131 55t-131 -55
t-46 -153v-54q0 -97 46 -152.5t131 -55.5z" />
    <glyph glyph-name="uni1EDB" unicode="&#x1edb;" horiz-adv-x="544" 
d="M479 612v-92q0 -18 -8.5 -27.5t-28.5 -9.5h-46q42 -30 66.5 -87.5t24.5 -141.5q0 -130 -57.5 -198t-157.5 -68t-157.5 68t-57.5 198q0 131 57.5 198.5t157.5 67.5q24 0 39 -2.5t38 -9.5h97v104h33zM272 19q85 0 131 55.5t46 152.5v54q0 98 -46 153t-131 55t-131 -55
t-46 -153v-54q0 -97 46 -152.5t131 -55.5zM261 587l-24 13l105 158l32 -18z" />
    <glyph glyph-name="uni1EE3" unicode="&#x1ee3;" horiz-adv-x="544" 
d="M479 612v-92q0 -18 -8.5 -27.5t-28.5 -9.5h-46q42 -30 66.5 -87.5t24.5 -141.5q0 -130 -57.5 -198t-157.5 -68t-157.5 68t-57.5 198q0 131 57.5 198.5t157.5 67.5q24 0 39 -2.5t38 -9.5h97v104h33zM272 19q85 0 131 55.5t46 152.5v54q0 98 -46 153t-131 55t-131 -55
t-46 -153v-54q0 -97 46 -152.5t131 -55.5zM272 -142q-16 0 -23 8t-7 19v8q0 11 7 19t23 8t23 -8t7 -19v-8q0 -11 -7 -19t-23 -8z" />
    <glyph glyph-name="uni1EDD" unicode="&#x1edd;" horiz-adv-x="544" 
d="M479 612v-92q0 -18 -8.5 -27.5t-28.5 -9.5h-46q42 -30 66.5 -87.5t24.5 -141.5q0 -130 -57.5 -198t-157.5 -68t-157.5 68t-57.5 198q0 131 57.5 198.5t157.5 67.5q24 0 39 -2.5t38 -9.5h97v104h33zM272 19q85 0 131 55.5t46 152.5v54q0 98 -46 153t-131 55t-131 -55
t-46 -153v-54q0 -97 46 -152.5t131 -55.5zM171 740l32 18l105 -158l-24 -13z" />
    <glyph glyph-name="uni1EDF" unicode="&#x1edf;" horiz-adv-x="544" 
d="M479 612v-92q0 -18 -8.5 -27.5t-28.5 -9.5h-46q42 -30 66.5 -87.5t24.5 -141.5q0 -130 -57.5 -198t-157.5 -68t-157.5 68t-57.5 198q0 131 57.5 198.5t157.5 67.5q24 0 39 -2.5t38 -9.5h97v104h33zM272 19q85 0 131 55.5t46 152.5v54q0 98 -46 153t-131 55t-131 -55
t-46 -153v-54q0 -97 46 -152.5t131 -55.5zM196 744h130q18 0 26 -8t8 -19q0 -10 -7.5 -24.5t-27.5 -44.5l-43 -65l-23 12l72 120h-135v29z" />
    <glyph glyph-name="uni1EE1" unicode="&#x1ee1;" horiz-adv-x="544" 
d="M479 612v-92q0 -18 -8.5 -27.5t-28.5 -9.5h-46q42 -30 66.5 -87.5t24.5 -141.5q0 -130 -57.5 -198t-157.5 -68t-157.5 68t-57.5 198q0 131 57.5 198.5t157.5 67.5q24 0 39 -2.5t38 -9.5h97v104h33zM272 19q85 0 131 55.5t46 152.5v54q0 98 -46 153t-131 55t-131 -55
t-46 -153v-54q0 -97 46 -152.5t131 -55.5zM343 625q-19 0 -35.5 7t-39.5 21q-21 14 -35.5 19.5t-28.5 5.5q-33 0 -63 -32l-17 19q34 42 81 42q19 0 35.5 -7t39.5 -21q21 -14 35.5 -19.5t28.5 -5.5q33 0 63 32l17 -19q-34 -42 -81 -42z" />
    <glyph glyph-name="uni1ED1" unicode="&#x1ed1;" horiz-adv-x="544" 
d="M272 -12q-100 0 -157.5 68t-57.5 198q0 131 57.5 198.5t157.5 67.5t157.5 -67.5t57.5 -198.5q0 -130 -57.5 -198t-157.5 -68zM272 19q85 0 131 55.5t46 152.5v54q0 98 -46 153t-131 55t-131 -55t-46 -153v-54q0 -97 46 -152.5t131 -55.5zM395 697l-23 13l105 158l31 -17z
M293 737l124 -133l-21 -15l-124 123l-124 -123l-21 15l124 133h42z" />
    <glyph glyph-name="uni1ED9" unicode="&#x1ed9;" horiz-adv-x="544" 
d="M272 -12q-100 0 -157.5 68t-57.5 198q0 131 57.5 198.5t157.5 67.5t157.5 -67.5t57.5 -198.5q0 -130 -57.5 -198t-157.5 -68zM272 19q85 0 131 55.5t46 152.5v54q0 98 -46 153t-131 55t-131 -55t-46 -153v-54q0 -97 46 -152.5t131 -55.5zM294 748l124 -135l-21 -16
l-124 125l-124 -125l-21 16l124 135h42zM272 -142q-16 0 -23 8t-7 19v8q0 11 7 19t23 8t23 -8t7 -19v-8q0 -11 -7 -19t-23 -8z" />
    <glyph glyph-name="uni1ED3" unicode="&#x1ed3;" horiz-adv-x="544" 
d="M272 -12q-100 0 -157.5 68t-57.5 198q0 131 57.5 198.5t157.5 67.5t157.5 -67.5t57.5 -198.5q0 -130 -57.5 -198t-157.5 -68zM272 19q85 0 131 55.5t46 152.5v54q0 98 -46 153t-131 55t-131 -55t-46 -153v-54q0 -97 46 -152.5t131 -55.5zM36 851l31 17l105 -158l-23 -13z
M293 737l124 -133l-21 -15l-124 123l-124 -123l-21 15l124 133h42z" />
    <glyph glyph-name="uni1ED5" unicode="&#x1ed5;" horiz-adv-x="544" 
d="M272 -12q-100 0 -157.5 68t-57.5 198q0 131 57.5 198.5t157.5 67.5t157.5 -67.5t57.5 -198.5q0 -130 -57.5 -198t-157.5 -68zM272 19q85 0 131 55.5t46 152.5v54q0 98 -46 153t-131 55t-131 -55t-46 -153v-54q0 -97 46 -152.5t131 -55.5zM314 855h130q18 0 26 -7.5
t8 -19.5q0 -10 -7.5 -24.5t-27.5 -44.5l-43 -65l-23 12l73 121h-136v28zM293 737l124 -133l-21 -15l-124 123l-124 -123l-21 15l124 133h42z" />
    <glyph glyph-name="uni1ED7" unicode="&#x1ed7;" horiz-adv-x="544" 
d="M272 -12q-100 0 -157.5 68t-57.5 198q0 131 57.5 198.5t157.5 67.5t157.5 -67.5t57.5 -198.5q0 -130 -57.5 -198t-157.5 -68zM272 19q85 0 131 55.5t46 152.5v54q0 98 -46 153t-131 55t-131 -55t-46 -153v-54q0 -97 46 -152.5t131 -55.5zM201 856q20 0 37 -7.5t40 -21.5
t38 -19.5t29 -5.5q18 0 33 7.5t31 23.5l16 -17q-17 -20 -37 -31.5t-45 -11.5q-20 0 -37 7.5t-40 21.5t-38 19.5t-29 5.5q-18 0 -33 -7.5t-31 -23.5l-16 17q17 20 37 31.5t45 11.5zM293 737l124 -133l-21 -15l-124 123l-124 -123l-21 15l124 133h42z" />
    <glyph glyph-name="oe" unicode="&#x153;" horiz-adv-x="929" 
d="M272 19q85 0 131 55.5t46 152.5v54q0 98 -46 153t-131 55t-131 -55t-46 -153v-54q0 -97 46 -152.5t131 -55.5zM835 280v6q0 46 -12.5 83.5t-35 64t-54 41t-70.5 14.5q-83 0 -129.5 -55.5t-46.5 -149.5v-4h348zM668 -12q-77 0 -127 38.5t-71 109.5h-4q-20 -72 -69.5 -110
t-124.5 -38q-100 0 -157.5 68t-57.5 198q0 131 57.5 198.5t157.5 67.5q74 0 124.5 -37t70.5 -109h4q20 71 69.5 108.5t122.5 37.5q47 0 86 -18t66.5 -51t42.5 -79.5t15 -103.5v-16h-386v-27q0 -47 12 -85t35.5 -65t57 -41.5t76.5 -14.5q121 0 167 116l27 -15
q-23 -60 -72.5 -96t-121.5 -36z" />
    <glyph glyph-name="racute" unicode="&#x155;" horiz-adv-x="347" 
d="M100 0v508h35v-89h4q16 36 52 62.5t104 26.5h38v-33h-44q-31 0 -59 -8t-49 -24t-33.5 -39.5t-12.5 -54.5v-349h-35zM210 587l-24 13l105 158l32 -18z" />
    <glyph glyph-name="rcaron" unicode="&#x159;" horiz-adv-x="347" 
d="M100 0v508h35v-89h4q16 36 52 62.5t104 26.5h38v-33h-44q-31 0 -59 -8t-49 -24t-33.5 -39.5t-12.5 -54.5v-349h-35zM201 602l-124 135l21 16l124 -124l124 124l21 -16l-124 -135h-42z" />
    <glyph glyph-name="rcommaaccent" unicode="&#x157;" horiz-adv-x="347" 
d="M100 0v508h35v-89h4q16 36 52 62.5t104 26.5h38v-33h-44q-31 0 -59 -8t-49 -24t-33.5 -39.5t-12.5 -54.5v-349h-35zM120 -66q29 0 29 -28v-11q0 -28 -14 -60.5t-35 -54.5h-27q21 23 32 48.5t14 43.5q-17 1 -23.5 8t-6.5 18v8q0 28 31 28z" />
    <glyph glyph-name="sacute" unicode="&#x15b;" horiz-adv-x="468" 
d="M237 -12q-63 0 -109.5 23t-81.5 72l27 20q34 -45 72.5 -64.5t92.5 -19.5q68 0 103 28t35 81q0 51 -29.5 76t-90.5 35l-43 7q-34 5 -61.5 15t-47 26.5t-30 40.5t-10.5 58q0 33 12.5 58t35 42t53 25.5t65.5 8.5q64 0 104 -22.5t66 -52.5l-25 -23q-11 13 -24.5 25
t-30.5 21.5t-39.5 15t-51.5 5.5q-60 0 -95.5 -26t-35.5 -76q0 -51 30 -74.5t91 -33.5l43 -7q71 -11 109.5 -43.5t38.5 -97.5q0 -68 -46 -105.5t-127 -37.5zM216 587l-24 13l105 158l32 -18z" />
    <glyph glyph-name="scaron" unicode="&#x161;" horiz-adv-x="468" 
d="M237 -12q-63 0 -109.5 23t-81.5 72l27 20q34 -45 72.5 -64.5t92.5 -19.5q68 0 103 28t35 81q0 51 -29.5 76t-90.5 35l-43 7q-34 5 -61.5 15t-47 26.5t-30 40.5t-10.5 58q0 33 12.5 58t35 42t53 25.5t65.5 8.5q64 0 104 -22.5t66 -52.5l-25 -23q-11 13 -24.5 25
t-30.5 21.5t-39.5 15t-51.5 5.5q-60 0 -95.5 -26t-35.5 -76q0 -51 30 -74.5t91 -33.5l43 -7q71 -11 109.5 -43.5t38.5 -97.5q0 -68 -46 -105.5t-127 -37.5zM207 602l-124 135l21 16l124 -124l124 124l21 -16l-124 -135h-42z" />
    <glyph glyph-name="scedilla" unicode="&#x15f;" horiz-adv-x="468" 
d="M336 -129q0 -32 -24.5 -53t-64.5 -21q-31 0 -53 10t-32 24l19 20q11 -13 27.5 -20.5t38.5 -7.5q26 0 41.5 12t15.5 35q0 18 -13.5 30.5t-48.5 14.5l-35 3l16 70q-58 2 -101 25.5t-76 69.5l27 20q34 -45 72.5 -64.5t92.5 -19.5q67 0 102 28t35 81q0 51 -29.5 76.5
t-89.5 34.5l-43 7q-34 5 -61.5 15t-47 26.5t-30 40.5t-10.5 58q0 33 12.5 58t35 42t53 25.5t65.5 8.5q64 0 104 -22.5t66 -52.5l-25 -23q-11 13 -24.5 25t-30.5 21.5t-39.5 15t-51.5 5.5q-60 0 -95.5 -26t-35.5 -76q0 -51 30 -75t91 -33l43 -7q71 -11 109.5 -43.5
t38.5 -97.5q0 -66 -43 -103t-118 -40l-14 -58l2 -2q15 3 32 3q29 0 48 -16t19 -44z" />
    <glyph glyph-name="scircumflex" unicode="&#x15d;" horiz-adv-x="468" 
d="M237 -12q-63 0 -109.5 23t-81.5 72l27 20q34 -45 72.5 -64.5t92.5 -19.5q68 0 103 28t35 81q0 51 -29.5 76t-90.5 35l-43 7q-34 5 -61.5 15t-47 26.5t-30 40.5t-10.5 58q0 33 12.5 58t35 42t53 25.5t65.5 8.5q64 0 104 -22.5t66 -52.5l-25 -23q-11 13 -24.5 25
t-30.5 21.5t-39.5 15t-51.5 5.5q-60 0 -95.5 -26t-35.5 -76q0 -51 30 -74.5t91 -33.5l43 -7q71 -11 109.5 -43.5t38.5 -97.5q0 -68 -46 -105.5t-127 -37.5zM249 748l124 -135l-21 -16l-124 125l-124 -125l-21 16l124 135h42z" />
    <glyph glyph-name="scommaaccent" unicode="&#x219;" horiz-adv-x="468" 
d="M237 -12q-63 0 -109.5 23t-81.5 72l27 20q34 -45 72.5 -64.5t92.5 -19.5q68 0 103 28t35 81q0 51 -29.5 76t-90.5 35l-43 7q-34 5 -61.5 15t-47 26.5t-30 40.5t-10.5 58q0 33 12.5 58t35 42t53 25.5t65.5 8.5q64 0 104 -22.5t66 -52.5l-25 -23q-11 13 -24.5 25
t-30.5 21.5t-39.5 15t-51.5 5.5q-60 0 -95.5 -26t-35.5 -76q0 -51 30 -74.5t91 -33.5l43 -7q71 -11 109.5 -43.5t38.5 -97.5q0 -68 -46 -105.5t-127 -37.5zM239 -66q29 0 29 -28v-11q0 -28 -14 -60.5t-35 -54.5h-27q21 23 32 48.5t14 43.5q-17 1 -23.5 8t-6.5 18v8
q0 28 31 28z" />
    <glyph glyph-name="germandbls" unicode="&#xdf;" horiz-adv-x="644" 
d="M600 131q0 -68 -44.5 -105.5t-121.5 -37.5q-63 0 -108.5 21.5t-80.5 69.5l27 20q33 -45 71 -62.5t92 -17.5q63 0 97 28t34 81q0 49 -24.5 72.5t-74.5 35.5l-41 10q-29 7 -53 16.5t-41 24.5t-26 36.5t-9 53.5q0 34 14.5 58.5t40.5 41t62.5 25t80.5 8.5v12
q0 96 -42.5 147.5t-123.5 51.5t-123.5 -51.5t-42.5 -147.5v-522h-35v477h-91v31h91v13q0 52 13.5 95t39 73t63 46.5t85.5 16.5t85.5 -16.5t63 -46.5t39 -73t13.5 -95v-40h-25q-38 0 -70 -6t-55 -18.5t-36 -32t-13 -46.5q0 -23 6 -39.5t18.5 -27.5t31.5 -19t44 -14l41 -10
q60 -15 94 -44.5t34 -92.5z" />
    <glyph glyph-name="germandbls.alt01" horiz-adv-x="556" 
d="M100 0v690q0 50 49 50h163v-31h-177v-201h354v-30l-212 -276q121 -2 180.5 -49t59.5 -147q0 -109 -64 -157.5t-185 -48.5h-40v31h42q99 0 154 36.5t55 122.5v28q0 79 -52.5 116.5t-160.5 37.5h-23v32l208 273h-316v-477h-35z" />
    <glyph glyph-name="tbar" unicode="&#x167;" horiz-adv-x="326" 
d="M271 0h-103q-43 0 -43 42v230h-67v29h67v176h-92v31h66q17 0 22.5 7t5.5 24v113h33v-144h119v-31h-119v-176h99v-29h-99v-241h111v-31z" />
    <glyph glyph-name="tcaron" unicode="&#x165;" horiz-adv-x="320" 
d="M165 0q-43 0 -43 42v435h-92v31h66q17 0 22.5 7t5.5 24v113h33v-144h119v-31h-119v-446h111v-31h-103zM276 565h-25l15 178h41z" />
    <glyph glyph-name="uni021B" unicode="&#x21b;" horiz-adv-x="320" 
d="M165 0q-43 0 -43 42v435h-92v31h66q17 0 22.5 7t5.5 24v113h33v-144h119v-31h-119v-446h111v-31h-103zM196 -66q29 0 29 -28v-11q0 -28 -14 -60.5t-35 -54.5h-27q21 23 32 48.5t14 43.5q-17 1 -23.5 8t-6.5 18v8q0 28 31 28z" />
    <glyph glyph-name="uni0163" unicode="&#x163;" horiz-adv-x="320" 
d="M165 0q-43 0 -43 42v435h-92v31h66q17 0 22.5 7t5.5 24v113h33v-144h119v-31h-119v-446h111v-31h-103zM196 -66q29 0 29 -28v-11q0 -28 -14 -60.5t-35 -54.5h-27q21 23 32 48.5t14 43.5q-17 1 -23.5 8t-6.5 18v8q0 28 31 28z" />
    <glyph glyph-name="thorn" unicode="&#xfe;" horiz-adv-x="567" 
d="M100 740h35v-311h3q17 37 57 64t104 27q100 0 155.5 -67.5t55.5 -198.5t-55.5 -198.5t-155.5 -67.5q-64 0 -104 27.5t-57 63.5h-3v-279h-35v940zM294 20q85 0 131.5 55t46.5 150v58q0 95 -46.5 150.5t-131.5 55.5q-32 0 -61 -9.5t-50.5 -26t-34.5 -40t-13 -51.5v-214
q0 -29 13 -52.5t34.5 -40.5t50.5 -26t61 -9z" />
    <glyph glyph-name="uacute" unicode="&#xfa;" horiz-adv-x="559" 
d="M424 78h-4q-7 -17 -19.5 -33.5t-31 -29t-44.5 -20t-60 -7.5q-84 0 -129 49.5t-45 144.5v326h35v-320q0 -88 38 -128.5t109 -40.5q29 0 56.5 8t48.5 23.5t33.5 40t12.5 57.5v360h35v-508h-35v78zM264 587l-24 13l105 158l32 -18z" />
    <glyph glyph-name="ubreve" unicode="&#x16d;" horiz-adv-x="559" 
d="M424 78h-4q-7 -17 -19.5 -33.5t-31 -29t-44.5 -20t-60 -7.5q-84 0 -129 49.5t-45 144.5v326h35v-320q0 -88 38 -128.5t109 -40.5q29 0 56.5 8t48.5 23.5t33.5 40t12.5 57.5v360h35v-508h-35v78zM276 604q-29 0 -49.5 9t-35.5 24.5t-27.5 37.5t-24.5 48l23 10l17 -28
q12 -21 22 -34.5t21 -22t24 -12t30 -3.5q34 0 54 15.5t43 56.5l17 28l23 -10q-12 -26 -24.5 -48t-27.5 -37.5t-35.5 -24.5t-49.5 -9z" />
    <glyph glyph-name="ucircumflex" unicode="&#xfb;" horiz-adv-x="559" 
d="M424 78h-4q-7 -17 -19.5 -33.5t-31 -29t-44.5 -20t-60 -7.5q-84 0 -129 49.5t-45 144.5v326h35v-320q0 -88 38 -128.5t109 -40.5q29 0 56.5 8t48.5 23.5t33.5 40t12.5 57.5v360h35v-508h-35v78zM297 748l124 -135l-21 -16l-124 125l-124 -125l-21 16l124 135h42z" />
    <glyph glyph-name="udieresis" unicode="&#xfc;" horiz-adv-x="559" 
d="M424 78h-4q-7 -17 -19.5 -33.5t-31 -29t-44.5 -20t-60 -7.5q-84 0 -129 49.5t-45 144.5v326h35v-320q0 -88 38 -128.5t109 -40.5q29 0 56.5 8t48.5 23.5t33.5 40t12.5 57.5v360h35v-508h-35v78zM185 636q-17 0 -23.5 8t-6.5 19v8q0 11 6.5 19t23.5 8q16 0 22.5 -8
t6.5 -19v-8q0 -11 -6.5 -19t-22.5 -8zM367 636q-16 0 -22.5 8t-6.5 19v8q0 11 6.5 19t22.5 8q17 0 23.5 -8t6.5 -19v-8q0 -11 -6.5 -19t-23.5 -8z" />
    <glyph glyph-name="uni1EE5" unicode="&#x1ee5;" horiz-adv-x="559" 
d="M424 78h-4q-7 -17 -19.5 -33.5t-31 -29t-44.5 -20t-60 -7.5q-84 0 -129 49.5t-45 144.5v326h35v-320q0 -88 38 -128.5t109 -40.5q29 0 56.5 8t48.5 23.5t33.5 40t12.5 57.5v360h35v-508h-35v78zM271 -142q-16 0 -23 8t-7 19v8q0 11 7 19t23 8t23 -8t7 -19v-8
q0 -11 -7 -19t-23 -8z" />
    <glyph glyph-name="ugrave" unicode="&#xf9;" horiz-adv-x="559" 
d="M424 78h-4q-7 -17 -19.5 -33.5t-31 -29t-44.5 -20t-60 -7.5q-84 0 -129 49.5t-45 144.5v326h35v-320q0 -88 38 -128.5t109 -40.5q29 0 56.5 8t48.5 23.5t33.5 40t12.5 57.5v360h35v-508h-35v78zM174 740l32 18l105 -158l-24 -13z" />
    <glyph glyph-name="uni1EE7" unicode="&#x1ee7;" horiz-adv-x="559" 
d="M424 78h-4q-7 -17 -19.5 -33.5t-31 -29t-44.5 -20t-60 -7.5q-84 0 -129 49.5t-45 144.5v326h35v-320q0 -88 38 -128.5t109 -40.5q29 0 56.5 8t48.5 23.5t33.5 40t12.5 57.5v360h35v-508h-35v78zM199 744h130q18 0 26 -8t8 -19q0 -10 -7.5 -24.5t-27.5 -44.5l-43 -65
l-23 12l72 120h-135v29z" />
    <glyph glyph-name="uhungarumlaut" unicode="&#x171;" horiz-adv-x="559" 
d="M424 78h-4q-7 -17 -19.5 -33.5t-31 -29t-44.5 -20t-60 -7.5q-84 0 -129 49.5t-45 144.5v326h35v-320q0 -88 38 -128.5t109 -40.5q29 0 56.5 8t48.5 23.5t33.5 40t12.5 57.5v360h35v-508h-35v78zM198 587l-23 13l105 157l31 -17zM358 587l-23 13l105 157l31 -17z" />
    <glyph glyph-name="umacron" unicode="&#x16b;" horiz-adv-x="559" 
d="M424 78h-4q-7 -17 -19.5 -33.5t-31 -29t-44.5 -20t-60 -7.5q-84 0 -129 49.5t-45 144.5v326h35v-320q0 -88 38 -128.5t109 -40.5q29 0 56.5 8t48.5 23.5t33.5 40t12.5 57.5v360h35v-508h-35v78zM144 683h264v-30h-264v30z" />
    <glyph glyph-name="uogonek" unicode="&#x173;" horiz-adv-x="559" 
d="M459 0q-27 -22 -45.5 -38.5t-30.5 -30.5t-17.5 -27.5t-5.5 -29.5q0 -26 14.5 -38.5t37.5 -12.5q22 0 35.5 7.5t21.5 17.5l21 -18q-10 -14 -30 -23.5t-49 -9.5q-35 0 -58.5 18t-23.5 55q0 30 22.5 61t76.5 68v1h-4v78h-4q-7 -17 -19.5 -33.5t-31 -29t-44.5 -20t-60 -7.5
q-84 0 -129 49.5t-45 144.5v326h35v-320q0 -87 38 -128t109 -41q29 0 56.5 8t48.5 24t33.5 40t12.5 57v360h35v-508z" />
    <glyph glyph-name="uring" unicode="&#x16f;" horiz-adv-x="559" 
d="M424 78h-4q-7 -17 -19.5 -33.5t-31 -29t-44.5 -20t-60 -7.5q-84 0 -129 49.5t-45 144.5v326h35v-320q0 -88 38 -128.5t109 -40.5q29 0 56.5 8t48.5 23.5t33.5 40t12.5 57.5v360h35v-508h-35v78zM276 586q-43 0 -69.5 27t-26.5 70q0 42 26.5 69t69.5 27t69.5 -27t26.5 -69
q0 -43 -26.5 -70t-69.5 -27zM276 611q31 0 49 18t18 47v13q0 30 -18 47.5t-49 17.5t-49 -17.5t-18 -47.5v-13q0 -29 18 -47t49 -18z" />
    <glyph glyph-name="utilde" unicode="&#x169;" horiz-adv-x="559" 
d="M424 78h-4q-7 -17 -19.5 -33.5t-31 -29t-44.5 -20t-60 -7.5q-84 0 -129 49.5t-45 144.5v326h35v-320q0 -88 38 -128.5t109 -40.5q29 0 56.5 8t48.5 23.5t33.5 40t12.5 57.5v360h35v-508h-35v78zM347 624q-19 0 -36.5 7t-40.5 22q-23 14 -38 20t-29 6q-18 0 -33 -8
t-31 -24l-17 19q36 42 83 42q19 0 36.5 -7t40.5 -22q23 -14 38 -20t29 -6q18 0 33 8t31 24l17 -19q-36 -42 -83 -42z" />
    <glyph glyph-name="uhorn" unicode="&#x1b0;" horiz-adv-x="559" 
d="M539 519q0 -17 -8.5 -27t-29.5 -10h-42v-482h-35v78h-4q-7 -17 -19.5 -33.5t-31 -29t-44.5 -20t-60 -7.5q-84 0 -129 49.5t-45 144.5v326h35v-320q0 -87 38 -128t109 -41q29 0 56.5 8t48.5 24t33.5 40t12.5 57v360h82v112h33v-101z" />
    <glyph glyph-name="uni1EE9" unicode="&#x1ee9;" horiz-adv-x="559" 
d="M539 519q0 -17 -8.5 -27t-29.5 -10h-42v-482h-35v78h-4q-7 -17 -19.5 -33.5t-31 -29t-44.5 -20t-60 -7.5q-84 0 -129 49.5t-45 144.5v326h35v-320q0 -87 38 -128t109 -41q29 0 56.5 8t48.5 24t33.5 40t12.5 57v360h82v112h33v-101zM264 587l-24 13l105 158l32 -18z" />
    <glyph glyph-name="uni1EF1" unicode="&#x1ef1;" horiz-adv-x="559" 
d="M539 519q0 -17 -8.5 -27t-29.5 -10h-42v-482h-35v78h-4q-7 -17 -19.5 -33.5t-31 -29t-44.5 -20t-60 -7.5q-84 0 -129 49.5t-45 144.5v326h35v-320q0 -87 38 -128t109 -41q29 0 56.5 8t48.5 24t33.5 40t12.5 57v360h82v112h33v-101zM268 -142q-16 0 -23 8t-7 19v8
q0 11 7 19t23 8t23 -8t7 -19v-8q0 -11 -7 -19t-23 -8z" />
    <glyph glyph-name="uni1EEB" unicode="&#x1eeb;" horiz-adv-x="559" 
d="M539 519q0 -17 -8.5 -27t-29.5 -10h-42v-482h-35v78h-4q-7 -17 -19.5 -33.5t-31 -29t-44.5 -20t-60 -7.5q-84 0 -129 49.5t-45 144.5v326h35v-320q0 -87 38 -128t109 -41q29 0 56.5 8t48.5 24t33.5 40t12.5 57v360h82v112h33v-101zM174 740l32 18l105 -158l-24 -13z" />
    <glyph glyph-name="uni1EED" unicode="&#x1eed;" horiz-adv-x="559" 
d="M539 519q0 -17 -8.5 -27t-29.5 -10h-42v-482h-35v78h-4q-7 -17 -19.5 -33.5t-31 -29t-44.5 -20t-60 -7.5q-84 0 -129 49.5t-45 144.5v326h35v-320q0 -87 38 -128t109 -41q29 0 56.5 8t48.5 24t33.5 40t12.5 57v360h82v112h33v-101zM199 744h130q18 0 26 -8t8 -19
q0 -10 -7.5 -24.5t-27.5 -44.5l-43 -65l-23 12l72 120h-135v29z" />
    <glyph glyph-name="uni1EEF" unicode="&#x1eef;" horiz-adv-x="559" 
d="M539 519q0 -17 -8.5 -27t-29.5 -10h-42v-482h-35v78h-4q-7 -17 -19.5 -33.5t-31 -29t-44.5 -20t-60 -7.5q-84 0 -129 49.5t-45 144.5v326h35v-320q0 -87 38 -128t109 -41q29 0 56.5 8t48.5 24t33.5 40t12.5 57v360h82v112h33v-101zM346 625q-19 0 -35.5 7t-39.5 21
q-21 14 -35.5 19.5t-28.5 5.5q-33 0 -63 -32l-17 19q34 42 81 42q19 0 35.5 -7t39.5 -21q21 -14 35.5 -19.5t28.5 -5.5q33 0 63 32l17 -19q-34 -42 -81 -42z" />
    <glyph glyph-name="wacute" unicode="&#x1e83;" horiz-adv-x="735" 
d="M34 508h36l135 -472h3l143 472h34l144 -472h3l135 472h34l-150 -508h-43l-139 456h-3l-139 -456h-43zM356 587l-24 13l105 158l32 -18z" />
    <glyph glyph-name="wcircumflex" unicode="&#x175;" horiz-adv-x="735" 
d="M34 508h36l135 -472h3l143 472h34l144 -472h3l135 472h34l-150 -508h-43l-139 456h-3l-139 -456h-43zM389 748l124 -135l-21 -16l-124 125l-124 -125l-21 16l124 135h42z" />
    <glyph glyph-name="wdieresis" unicode="&#x1e85;" horiz-adv-x="735" 
d="M34 508h36l135 -472h3l143 472h34l144 -472h3l135 472h34l-150 -508h-43l-139 456h-3l-139 -456h-43zM277 636q-17 0 -23.5 8t-6.5 19v8q0 11 6.5 19t23.5 8q16 0 22.5 -8t6.5 -19v-8q0 -11 -6.5 -19t-22.5 -8zM459 636q-16 0 -22.5 8t-6.5 19v8q0 11 6.5 19t22.5 8
q17 0 23.5 -8t6.5 -19v-8q0 -11 -6.5 -19t-23.5 -8z" />
    <glyph glyph-name="wgrave" unicode="&#x1e81;" horiz-adv-x="735" 
d="M34 508h36l135 -472h3l143 472h34l144 -472h3l135 472h34l-150 -508h-43l-139 456h-3l-139 -456h-43zM266 740l32 18l105 -158l-24 -13z" />
    <glyph glyph-name="yacute" unicode="&#xfd;" horiz-adv-x="462" 
d="M403 508h35l-248 -675q-8 -18 -19 -25.5t-33 -7.5h-74v31h90l60 159l-191 518h37l170 -470h3zM221 587l-24 13l105 158l32 -18z" />
    <glyph glyph-name="ycircumflex" unicode="&#x177;" horiz-adv-x="462" 
d="M403 508h35l-248 -675q-8 -18 -19 -25.5t-33 -7.5h-74v31h90l60 159l-191 518h37l170 -470h3zM254 748l124 -135l-21 -16l-124 125l-124 -125l-21 16l124 135h42z" />
    <glyph glyph-name="ydieresis" unicode="&#xff;" horiz-adv-x="462" 
d="M403 508h35l-248 -675q-8 -18 -19 -25.5t-33 -7.5h-74v31h90l60 159l-191 518h37l170 -470h3zM142 636q-17 0 -23.5 8t-6.5 19v8q0 11 6.5 19t23.5 8q16 0 22.5 -8t6.5 -19v-8q0 -11 -6.5 -19t-22.5 -8zM324 636q-16 0 -22.5 8t-6.5 19v8q0 11 6.5 19t22.5 8
q17 0 23.5 -8t6.5 -19v-8q0 -11 -6.5 -19t-23.5 -8z" />
    <glyph glyph-name="uni1EF5" unicode="&#x1ef5;" horiz-adv-x="462" 
d="M403 508h35l-248 -675q-8 -18 -19 -25.5t-33 -7.5h-74v31h90l60 159l-191 518h37l170 -470h3zM364 -142q-16 0 -23 8t-7 19v8q0 11 7 19t23 8t23 -8t7 -19v-8q0 -11 -7 -19t-23 -8z" />
    <glyph glyph-name="ygrave" unicode="&#x1ef3;" horiz-adv-x="462" 
d="M403 508h35l-248 -675q-8 -18 -19 -25.5t-33 -7.5h-74v31h90l60 159l-191 518h37l170 -470h3zM131 740l32 18l105 -158l-24 -13z" />
    <glyph glyph-name="uni1EF7" unicode="&#x1ef7;" horiz-adv-x="462" 
d="M403 508h35l-248 -675q-8 -18 -19 -25.5t-33 -7.5h-74v31h90l60 159l-191 518h37l170 -470h3zM156 744h130q18 0 26 -8t8 -19q0 -10 -7.5 -24.5t-27.5 -44.5l-43 -65l-23 12l72 120h-135v29z" />
    <glyph glyph-name="uni1EF9" unicode="&#x1ef9;" horiz-adv-x="462" 
d="M403 508h35l-248 -675q-8 -18 -19 -25.5t-33 -7.5h-74v31h90l60 159l-191 518h37l170 -470h3zM304 624q-19 0 -36.5 7t-40.5 22q-23 14 -38 20t-29 6q-18 0 -33 -8t-31 -24l-17 19q36 42 83 42q19 0 36.5 -7t40.5 -22q23 -14 38 -20t29 -6q18 0 33 8t31 24l17 -19
q-36 -42 -83 -42z" />
    <glyph glyph-name="zacute" unicode="&#x17a;" horiz-adv-x="428" 
d="M28 0v32l327 445h-317v31h357v-30l-328 -447h337v-31h-376zM203 587l-24 13l105 158l32 -18z" />
    <glyph glyph-name="zcaron" unicode="&#x17e;" horiz-adv-x="428" 
d="M28 0v32l327 445h-317v31h357v-30l-328 -447h337v-31h-376zM194 602l-124 135l21 16l124 -124l124 124l21 -16l-124 -135h-42z" />
    <glyph glyph-name="zdotaccent" unicode="&#x17c;" horiz-adv-x="428" 
d="M28 0v32l327 445h-317v31h357v-30l-328 -447h337v-31h-376zM215 636q-16 0 -23 8t-7 19v8q0 11 7 19t23 8t23 -8t7 -19v-8q0 -11 -7 -19t-23 -8z" />
    <glyph glyph-name="Aacute" unicode="&#xc1;" horiz-adv-x="610" 
d="M541 0l-81 227h-311l-81 -227h-38l251 698h48l251 -698h-39zM306 662h-4l-143 -403h291zM292 764l-24 13l105 158l32 -17z" />
    <glyph glyph-name="Abreve" unicode="&#x102;" horiz-adv-x="610" 
d="M541 0l-81 227h-311l-81 -227h-38l251 698h48l251 -698h-39zM306 662h-4l-143 -403h291zM304 781q-29 0 -49.5 9t-35.5 24.5t-27.5 37.5t-24.5 48l23 11l17 -29q12 -21 22 -34.5t21 -21.5t24 -11.5t30 -3.5q34 0 54 15t43 56l17 29l23 -11q-12 -26 -24.5 -48t-27.5 -37.5
t-35.5 -24.5t-49.5 -9z" />
    <glyph glyph-name="Acircumflex" unicode="&#xc2;" horiz-adv-x="610" 
d="M541 0l-81 227h-311l-81 -227h-38l251 698h48l251 -698h-39zM306 662h-4l-143 -403h291zM325 926l124 -136l-21 -15l-124 124l-124 -124l-21 15l124 136h42z" />
    <glyph glyph-name="Adieresis" unicode="&#xc4;" horiz-adv-x="610" 
d="M541 0l-81 227h-311l-81 -227h-38l251 698h48l251 -698h-39zM306 662h-4l-143 -403h291zM213 812q-17 0 -23.5 8t-6.5 19v8q0 11 6.5 19t23.5 8q16 0 22.5 -8t6.5 -19v-8q0 -11 -6.5 -19t-22.5 -8zM395 812q-16 0 -22.5 8t-6.5 19v8q0 11 6.5 19t22.5 8q17 0 23.5 -8
t6.5 -19v-8q0 -11 -6.5 -19t-23.5 -8z" />
    <glyph glyph-name="uni1EA0" unicode="&#x1ea0;" horiz-adv-x="610" 
d="M541 0l-81 227h-311l-81 -227h-38l251 698h48l251 -698h-39zM306 662h-4l-143 -403h291zM310 -142q-16 0 -23 8t-7 19v8q0 11 7 19t23 8t23 -8t7 -19v-8q0 -11 -7 -19t-23 -8z" />
    <glyph glyph-name="Agrave" unicode="&#xc0;" horiz-adv-x="610" 
d="M541 0l-81 227h-311l-81 -227h-38l251 698h48l251 -698h-39zM306 662h-4l-143 -403h291zM202 918l32 17l105 -158l-24 -13z" />
    <glyph glyph-name="uni1EA2" unicode="&#x1ea2;" horiz-adv-x="610" 
d="M541 0l-81 227h-311l-81 -227h-38l251 698h48l251 -698h-39zM306 662h-4l-143 -403h291zM228 921h130q18 0 26 -7.5t8 -19.5q0 -9 -7.5 -23.5t-27.5 -44.5l-43 -65l-23 11l72 121h-135v28z" />
    <glyph glyph-name="Amacron" unicode="&#x100;" horiz-adv-x="610" 
d="M541 0l-81 227h-311l-81 -227h-38l251 698h48l251 -698h-39zM306 662h-4l-143 -403h291zM172 861h264v-30h-264v30z" />
    <glyph glyph-name="Aogonek" unicode="&#x104;" horiz-adv-x="610" 
d="M281 698h48l251 -698q-56 -41 -81.5 -69.5t-25.5 -60.5q0 -25 15 -36t38 -11q22 0 35.5 7.5t21.5 17.5l20 -18q-10 -14 -29.5 -23.5t-48.5 -9.5q-35 0 -59 17.5t-24 52.5q0 32 23.5 64.5t82.5 67.5v1h-7l-80 227h-312l-81 -227h-38zM306 662h-4l-143 -403h291z" />
    <glyph glyph-name="Aring" unicode="&#xc5;" horiz-adv-x="610" 
d="M541 0l-81 227h-311l-81 -227h-38l251 698h48l251 -698h-39zM306 662h-4l-143 -403h291zM304 764q-43 0 -69.5 26.5t-26.5 69.5t26.5 70t69.5 27t69.5 -27t26.5 -70t-26.5 -69.5t-69.5 -26.5zM304 789q31 0 49 17.5t18 47.5v13q0 29 -18 47t-49 18t-49 -18t-18 -47v-13
q0 -30 18 -47.5t49 -17.5z" />
    <glyph glyph-name="Aringacute" unicode="&#x1fa;" horiz-adv-x="610" 
d="M541 0l-81 227h-311l-81 -227h-38l251 698h48l251 -698h-39zM306 662h-4l-143 -403h291zM307 981l-22 11l78 106l31 -16zM304 761q-43 0 -69.5 27t-26.5 70t26.5 70t69.5 27t69.5 -27t26.5 -70t-26.5 -70t-69.5 -27zM304 787q31 0 49 17.5t18 46.5v13q0 30 -18 47.5
t-49 17.5t-49 -17.5t-18 -47.5v-13q0 -29 18 -46.5t49 -17.5z" />
    <glyph glyph-name="Atilde" unicode="&#xc3;" horiz-adv-x="610" 
d="M541 0l-81 227h-311l-81 -227h-38l251 698h48l251 -698h-39zM306 662h-4l-143 -403h291zM375 802q-19 0 -36.5 7.5t-40.5 21.5t-38 19.5t-29 5.5q-18 0 -33 -7.5t-31 -23.5l-17 18q17 20 37.5 31.5t45.5 11.5q19 0 36.5 -7.5t40.5 -21.5t38 -19.5t29 -5.5q18 0 33 7.5
t31 23.5l17 -18q-17 -20 -37.5 -31.5t-45.5 -11.5z" />
    <glyph glyph-name="uni1EAE" unicode="&#x1eae;" horiz-adv-x="610" 
d="M541 0l-81 227h-311l-81 -227h-38l251 698h48l251 -698h-39zM306 662h-4l-143 -403h291zM304 770q-29 0 -49.5 8t-36.5 23t-28 35.5t-23 44.5l23 11l17 -30q11 -19 21 -31t21 -19.5t24.5 -10.5t30.5 -3t30.5 3t24.5 10.5t21 19.5t21 31l17 30l23 -11q-11 -25 -23 -45.5
t-28 -35t-36.5 -22.5t-49.5 -8zM298 875l-23 13l105 158l31 -17z" />
    <glyph glyph-name="uni1EB6" unicode="&#x1eb6;" horiz-adv-x="610" 
d="M541 0l-81 227h-311l-81 -227h-38l251 698h48l251 -698h-39zM306 662h-4l-143 -403h291zM304 781q-29 0 -49.5 9t-35.5 24.5t-27.5 37.5t-24.5 48l23 11l17 -29q12 -21 22 -34.5t21 -21.5t24 -11.5t30 -3.5q34 0 54 15t43 56l17 29l23 -11q-12 -26 -24.5 -48t-27.5 -37.5
t-35.5 -24.5t-49.5 -9zM310 -142q-16 0 -23 8t-7 19v8q0 11 7 19t23 8t23 -8t7 -19v-8q0 -11 -7 -19t-23 -8z" />
    <glyph glyph-name="uni1EB0" unicode="&#x1eb0;" horiz-adv-x="610" 
d="M541 0l-81 227h-311l-81 -227h-38l251 698h48l251 -698h-39zM306 662h-4l-143 -403h291zM304 770q-29 0 -49.5 8t-36.5 23t-28 35.5t-23 44.5l23 11l17 -30q11 -19 21 -31t21 -19.5t24.5 -10.5t30.5 -3t30.5 3t24.5 10.5t21 19.5t21 31l17 30l23 -11q-11 -25 -23 -45.5
t-28 -35t-36.5 -22.5t-49.5 -8zM197 1029l31 17l105 -158l-23 -13z" />
    <glyph glyph-name="uni1EB2" unicode="&#x1eb2;" horiz-adv-x="610" 
d="M541 0l-81 227h-311l-81 -227h-38l251 698h48l251 -698h-39zM306 662h-4l-143 -403h291zM226 1032h127q18 0 26 -7.5t8 -18.5q0 -10 -7.5 -24.5t-27.5 -44.5l-43 -65l-23 11l73 122h-133v27zM304 770q-29 0 -49.5 8t-36.5 23t-28 35.5t-23 44.5l23 11l17 -30
q11 -19 21 -31t21 -19.5t24.5 -10.5t30.5 -3t30.5 3t24.5 10.5t21 19.5t21 31l17 30l23 -11q-11 -25 -23 -45.5t-28 -35t-36.5 -22.5t-49.5 -8z" />
    <glyph glyph-name="uni1EB4" unicode="&#x1eb4;" horiz-adv-x="610" 
d="M541 0l-81 227h-311l-81 -227h-38l251 698h48l251 -698h-39zM306 662h-4l-143 -403h291zM375 943q-20 0 -37 7.5t-40 21.5t-38 19.5t-29 5.5q-18 0 -33 -7.5t-31 -23.5l-16 17q17 20 37 31.5t45 11.5q20 0 37 -7.5t40 -21.5t38 -19.5t29 -5.5q18 0 33 7.5t31 23.5l16 -17
q-17 -20 -37 -31.5t-45 -11.5zM304 770q-29 0 -49.5 8t-36.5 23t-28 35.5t-23 44.5l23 11l17 -30q11 -19 21 -31t21 -19.5t24.5 -10.5t30.5 -3t30.5 3t24.5 10.5t21 19.5t21 31l17 30l23 -11q-11 -25 -23 -45.5t-28 -35t-36.5 -22.5t-49.5 -8z" />
    <glyph glyph-name="uni1EA4" unicode="&#x1ea4;" horiz-adv-x="610" 
d="M541 0l-81 227h-311l-81 -227h-38l251 698h48l251 -698h-39zM306 662h-4l-143 -403h291zM427 875l-23 13l105 158l31 -17zM325 915l124 -133l-21 -16l-124 124l-124 -124l-21 16l124 133h42z" />
    <glyph glyph-name="uni1EAC" unicode="&#x1eac;" horiz-adv-x="610" 
d="M541 0l-81 227h-311l-81 -227h-38l251 698h48l251 -698h-39zM306 662h-4l-143 -403h291zM325 926l124 -136l-21 -15l-124 124l-124 -124l-21 15l124 136h42zM310 -142q-16 0 -23 8t-7 19v8q0 11 7 19t23 8t23 -8t7 -19v-8q0 -11 -7 -19t-23 -8z" />
    <glyph glyph-name="uni1EA6" unicode="&#x1ea6;" horiz-adv-x="610" 
d="M541 0l-81 227h-311l-81 -227h-38l251 698h48l251 -698h-39zM306 662h-4l-143 -403h291zM68 1029l31 17l105 -158l-23 -13zM325 915l124 -133l-21 -16l-124 124l-124 -124l-21 16l124 133h42z" />
    <glyph glyph-name="uni1EA8" unicode="&#x1ea8;" horiz-adv-x="610" 
d="M541 0l-81 227h-311l-81 -227h-38l251 698h48l251 -698h-39zM306 662h-4l-143 -403h291zM346 1032h130q18 0 26 -7.5t8 -18.5q0 -10 -7.5 -24.5t-27.5 -44.5l-43 -65l-23 11l73 122h-136v27zM325 915l124 -133l-21 -16l-124 124l-124 -124l-21 16l124 133h42z" />
    <glyph glyph-name="uni1EAA" unicode="&#x1eaa;" horiz-adv-x="610" 
d="M541 0l-81 227h-311l-81 -227h-38l251 698h48l251 -698h-39zM306 662h-4l-143 -403h291zM233 1033q20 0 37 -7t40 -22q23 -14 38 -20t29 -6q18 0 33 8t31 24l16 -18q-34 -42 -82 -42q-20 0 -37 7t-40 22q-23 14 -38 20t-29 6q-18 0 -33 -8t-31 -24l-16 18q34 42 82 42z
M325 915l124 -133l-21 -16l-124 124l-124 -124l-21 16l124 133h42z" />
    <glyph glyph-name="AE" unicode="&#xc6;" horiz-adv-x="872" 
d="M410 227h-246l-123 -227h-39l377 698h423v-33h-355v-294h341v-33h-341v-305h355v-33h-392v227zM399 665l-219 -406h230v406h-11z" />
    <glyph glyph-name="AEacute" unicode="&#x1fc;" horiz-adv-x="872" 
d="M410 227h-246l-123 -227h-39l377 698h423v-33h-355v-294h341v-33h-341v-305h355v-33h-392v227zM399 665l-219 -406h230v406h-11zM587 764l-24 13l105 158l32 -17z" />
    <glyph glyph-name="Cacute" unicode="&#x106;" horiz-adv-x="613" 
d="M331 -12q-126 0 -195 90t-69 270t69 271t195 91q80 0 136.5 -39.5t85.5 -105.5l-31 -17q-26 60 -74.5 94.5t-116.5 34.5q-105 0 -164.5 -76t-59.5 -225v-56q0 -149 59.5 -224t164.5 -75q73 0 122.5 36.5t74.5 100.5l30 -16q-29 -70 -86.5 -112t-140.5 -42zM319 764
l-24 13l105 158l32 -17z" />
    <glyph glyph-name="Ccaron" unicode="&#x10c;" horiz-adv-x="613" 
d="M331 -12q-126 0 -195 90t-69 270t69 271t195 91q80 0 136.5 -39.5t85.5 -105.5l-31 -17q-26 60 -74.5 94.5t-116.5 34.5q-105 0 -164.5 -76t-59.5 -225v-56q0 -149 59.5 -224t164.5 -75q73 0 122.5 36.5t74.5 100.5l30 -16q-29 -70 -86.5 -112t-140.5 -42zM310 780
l-124 135l21 16l124 -125l124 125l21 -16l-124 -135h-42z" />
    <glyph glyph-name="Ccedilla" unicode="&#xc7;" horiz-adv-x="613" 
d="M331 677q-105 0 -164.5 -76t-59.5 -225v-56q0 -149 59.5 -224t164.5 -75q73 0 122.5 36.5t74.5 100.5l30 -16q-27 -67 -81.5 -108.5t-131.5 -45.5l-14 -58l2 -2q8 2 16.5 2.5t16.5 0.5q29 0 48 -16t19 -44q0 -32 -24.5 -53t-64.5 -21q-32 0 -54 10t-31 24l19 20
q10 -13 26.5 -20.5t39.5 -7.5q25 0 41 12t16 35q0 18 -13.5 30.5t-49.5 14.5l-35 3l16 70q-121 4 -186.5 94t-65.5 266q0 180 69 271t195 91q80 0 136.5 -39.5t85.5 -105.5l-31 -17q-26 60 -74.5 94.5t-116.5 34.5z" />
    <glyph glyph-name="Ccircumflex" unicode="&#x108;" horiz-adv-x="613" 
d="M331 -12q-126 0 -195 90t-69 270t69 271t195 91q80 0 136.5 -39.5t85.5 -105.5l-31 -17q-26 60 -74.5 94.5t-116.5 34.5q-105 0 -164.5 -76t-59.5 -225v-56q0 -149 59.5 -224t164.5 -75q73 0 122.5 36.5t74.5 100.5l30 -16q-29 -70 -86.5 -112t-140.5 -42zM352 926
l124 -136l-21 -15l-124 124l-124 -124l-21 15l124 136h42z" />
    <glyph glyph-name="Cdotaccent" unicode="&#x10a;" horiz-adv-x="613" 
d="M331 -12q-126 0 -195 90t-69 270t69 271t195 91q80 0 136.5 -39.5t85.5 -105.5l-31 -17q-26 60 -74.5 94.5t-116.5 34.5q-105 0 -164.5 -76t-59.5 -225v-56q0 -149 59.5 -224t164.5 -75q73 0 122.5 36.5t74.5 100.5l30 -16q-29 -70 -86.5 -112t-140.5 -42zM331 812
q-17 0 -24 8.5t-7 20.5v8q0 12 7 20.5t24 8.5t24 -8.5t7 -20.5v-8q0 -12 -7 -20.5t-24 -8.5z" />
    <glyph glyph-name="Dcaron" unicode="&#x10e;" horiz-adv-x="661" 
d="M104 698h212q138 0 208 -87.5t70 -261.5t-70 -261.5t-208 -87.5h-212v698zM316 33q60 0 104.5 19.5t74.5 56t44.5 88.5t14.5 116v72q0 64 -14.5 116t-44.5 88.5t-74.5 56t-104.5 19.5h-175v-632h175zM280 780l-124 135l21 16l124 -125l124 125l21 -16l-124 -135h-42z" />
    <glyph glyph-name="Dcroat" unicode="&#x110;" horiz-adv-x="664" 
d="M107 354h-82v30h82v314h212q138 0 208 -87.5t70 -261.5t-70 -261.5t-208 -87.5h-212v354zM319 33q60 0 104.5 19.5t74.5 56t44.5 88.5t14.5 116v72q0 64 -14.5 116t-44.5 88.5t-74.5 56t-104.5 19.5h-175v-281h164v-30h-164v-321h175z" />
    <glyph glyph-name="Eth" unicode="&#xd0;" horiz-adv-x="664" 
d="M107 354h-82v30h82v314h212q138 0 208 -87.5t70 -261.5t-70 -261.5t-208 -87.5h-212v354zM319 33q60 0 104.5 19.5t74.5 56t44.5 88.5t14.5 116v72q0 64 -14.5 116t-44.5 88.5t-74.5 56t-104.5 19.5h-175v-281h164v-30h-164v-321h175z" />
    <glyph glyph-name="Eacute" unicode="&#xc9;" horiz-adv-x="566" 
d="M104 0v698h392v-33h-355v-294h341v-33h-341v-305h355v-33h-392zM288 764l-24 13l105 158l32 -17z" />
    <glyph glyph-name="Ebreve" unicode="&#x114;" horiz-adv-x="566" 
d="M104 0v698h392v-33h-355v-294h341v-33h-341v-305h355v-33h-392zM300 781q-29 0 -49.5 9t-35.5 24.5t-27.5 37.5t-24.5 48l23 11l17 -29q12 -21 22 -34.5t21 -21.5t24 -11.5t30 -3.5q34 0 54 15t43 56l17 29l23 -11q-12 -26 -24.5 -48t-27.5 -37.5t-35.5 -24.5t-49.5 -9z
" />
    <glyph glyph-name="Ecaron" unicode="&#x11a;" horiz-adv-x="566" 
d="M104 0v698h392v-33h-355v-294h341v-33h-341v-305h355v-33h-392zM279 780l-124 135l21 16l124 -125l124 125l21 -16l-124 -135h-42z" />
    <glyph glyph-name="Ecircumflex" unicode="&#xca;" horiz-adv-x="566" 
d="M104 0v698h392v-33h-355v-294h341v-33h-341v-305h355v-33h-392zM321 926l124 -136l-21 -15l-124 124l-124 -124l-21 15l124 136h42z" />
    <glyph glyph-name="Edieresis" unicode="&#xcb;" horiz-adv-x="566" 
d="M104 0v698h392v-33h-355v-294h341v-33h-341v-305h355v-33h-392zM209 812q-17 0 -23.5 8t-6.5 19v8q0 11 6.5 19t23.5 8q16 0 22.5 -8t6.5 -19v-8q0 -11 -6.5 -19t-22.5 -8zM391 812q-16 0 -22.5 8t-6.5 19v8q0 11 6.5 19t22.5 8q17 0 23.5 -8t6.5 -19v-8q0 -11 -6.5 -19
t-23.5 -8z" />
    <glyph glyph-name="Edotaccent" unicode="&#x116;" horiz-adv-x="566" 
d="M104 0v698h392v-33h-355v-294h341v-33h-341v-305h355v-33h-392zM300 812q-17 0 -24 8.5t-7 20.5v8q0 12 7 20.5t24 8.5t24 -8.5t7 -20.5v-8q0 -12 -7 -20.5t-24 -8.5z" />
    <glyph glyph-name="uni1EB8" unicode="&#x1eb8;" horiz-adv-x="566" 
d="M104 0v698h392v-33h-355v-294h341v-33h-341v-305h355v-33h-392zM300 -142q-16 0 -23 8t-7 19v8q0 11 7 19t23 8t23 -8t7 -19v-8q0 -11 -7 -19t-23 -8z" />
    <glyph glyph-name="Egrave" unicode="&#xc8;" horiz-adv-x="566" 
d="M104 0v698h392v-33h-355v-294h341v-33h-341v-305h355v-33h-392zM198 918l32 17l105 -158l-24 -13z" />
    <glyph glyph-name="uni1EBA" unicode="&#x1eba;" horiz-adv-x="566" 
d="M104 0v698h392v-33h-355v-294h341v-33h-341v-305h355v-33h-392zM224 921h130q18 0 26 -7.5t8 -19.5q0 -9 -7.5 -23.5t-27.5 -44.5l-43 -65l-23 11l72 121h-135v28z" />
    <glyph glyph-name="Emacron" unicode="&#x112;" horiz-adv-x="566" 
d="M104 0v698h392v-33h-355v-294h341v-33h-341v-305h355v-33h-392zM168 861h264v-30h-264v30z" />
    <glyph glyph-name="Eogonek" unicode="&#x118;" horiz-adv-x="566" 
d="M104 698h392v-33h-355v-294h341v-33h-341v-305h355v-33q-30 -21 -51.5 -38t-35.5 -32t-20.5 -29.5t-6.5 -30.5q0 -25 14.5 -36t37.5 -11q22 0 36 7.5t22 17.5l20 -18q-10 -14 -29.5 -23.5t-48.5 -9.5q-35 0 -59 17t-24 52q0 31 24.5 63t84.5 68l-1 3h-355v698z" />
    <glyph glyph-name="uni1EBC" unicode="&#x1ebc;" horiz-adv-x="566" 
d="M104 0v698h392v-33h-355v-294h341v-33h-341v-305h355v-33h-392zM371 802q-19 0 -36.5 7.5t-40.5 21.5t-38 19.5t-29 5.5q-18 0 -33 -7.5t-31 -23.5l-17 18q17 20 37.5 31.5t45.5 11.5q19 0 36.5 -7.5t40.5 -21.5t38 -19.5t29 -5.5q18 0 33 7.5t31 23.5l17 -18
q-17 -20 -37.5 -31.5t-45.5 -11.5z" />
    <glyph glyph-name="uni1EBE" unicode="&#x1ebe;" horiz-adv-x="566" 
d="M104 0v698h392v-33h-355v-294h341v-33h-341v-305h355v-33h-392zM423 875l-23 13l105 158l31 -17zM321 915l124 -133l-21 -16l-124 124l-124 -124l-21 16l124 133h42z" />
    <glyph glyph-name="uni1EC6" unicode="&#x1ec6;" horiz-adv-x="566" 
d="M104 0v698h392v-33h-355v-294h341v-33h-341v-305h355v-33h-392zM321 926l124 -136l-21 -15l-124 124l-124 -124l-21 15l124 136h42zM300 -142q-16 0 -23 8t-7 19v8q0 11 7 19t23 8t23 -8t7 -19v-8q0 -11 -7 -19t-23 -8z" />
    <glyph glyph-name="uni1EC0" unicode="&#x1ec0;" horiz-adv-x="566" 
d="M104 0v698h392v-33h-355v-294h341v-33h-341v-305h355v-33h-392zM64 1029l31 17l105 -158l-23 -13zM321 915l124 -133l-21 -16l-124 124l-124 -124l-21 16l124 133h42z" />
    <glyph glyph-name="uni1EC2" unicode="&#x1ec2;" horiz-adv-x="566" 
d="M104 0v698h392v-33h-355v-294h341v-33h-341v-305h355v-33h-392zM342 1032h130q18 0 26 -7.5t8 -18.5q0 -10 -7.5 -24.5t-27.5 -44.5l-43 -65l-23 11l73 122h-136v27zM321 915l124 -133l-21 -16l-124 124l-124 -124l-21 16l124 133h42z" />
    <glyph glyph-name="uni1EC4" unicode="&#x1ec4;" horiz-adv-x="566" 
d="M104 0v698h392v-33h-355v-294h341v-33h-341v-305h355v-33h-392zM229 1033q20 0 37 -7t40 -22q23 -14 38 -20t29 -6q18 0 33 8t31 24l16 -18q-34 -42 -82 -42q-20 0 -37 7t-40 22q-23 14 -38 20t-29 6q-18 0 -33 -8t-31 -24l-16 18q34 42 82 42zM321 915l124 -133l-21 -16
l-124 124l-124 -124l-21 16l124 133h42z" />
    <glyph glyph-name="uni018F" unicode="&#x18f;" horiz-adv-x="686" 
d="M67 356h513v21q0 148 -63 224t-172 76q-81 0 -138.5 -42.5t-83.5 -124.5l-31 16q29 89 93.5 136.5t159.5 47.5q131 0 202.5 -91.5t71.5 -269.5q0 -179 -71.5 -270t-204.5 -91t-204.5 90t-71.5 271v7zM343 21q54 0 98 19.5t74.5 57.5t47.5 94t17 129v3h-474v-3
q0 -73 17 -129t47.5 -94t74.5 -57.5t98 -19.5z" />
    <glyph glyph-name="Gbreve" unicode="&#x11e;" horiz-adv-x="673" 
d="M560 111h-3q-25 -57 -78.5 -90t-136.5 -33q-131 0 -203 90.5t-72 270.5t72.5 270.5t204.5 90.5q85 0 145 -39.5t89 -105.5l-30 -17q-26 61 -79.5 95t-124.5 34q-110 0 -173.5 -76t-63.5 -222v-59q0 -146 63 -222.5t175 -76.5q43 0 82 11.5t68 35t46.5 58.5t17.5 82v97
h-171v33h207v-338h-35v111zM344 781q-29 0 -49.5 9t-35.5 24.5t-27.5 37.5t-24.5 48l23 11l17 -29q12 -21 22 -34.5t21 -21.5t24 -11.5t30 -3.5q34 0 54 15t43 56l17 29l23 -11q-12 -26 -24.5 -48t-27.5 -37.5t-35.5 -24.5t-49.5 -9z" />
    <glyph glyph-name="Gcircumflex" unicode="&#x11c;" horiz-adv-x="673" 
d="M560 111h-3q-25 -57 -78.5 -90t-136.5 -33q-131 0 -203 90.5t-72 270.5t72.5 270.5t204.5 90.5q85 0 145 -39.5t89 -105.5l-30 -17q-26 61 -79.5 95t-124.5 34q-110 0 -173.5 -76t-63.5 -222v-59q0 -146 63 -222.5t175 -76.5q43 0 82 11.5t68 35t46.5 58.5t17.5 82v97
h-171v33h207v-338h-35v111zM365 926l124 -136l-21 -15l-124 124l-124 -124l-21 15l124 136h42z" />
    <glyph glyph-name="Gcommaaccent" unicode="&#x122;" horiz-adv-x="673" 
d="M560 111h-3q-25 -57 -78.5 -90t-136.5 -33q-131 0 -203 90.5t-72 270.5t72.5 270.5t204.5 90.5q85 0 145 -39.5t89 -105.5l-30 -17q-26 61 -79.5 95t-124.5 34q-110 0 -173.5 -76t-63.5 -222v-59q0 -146 63 -222.5t175 -76.5q43 0 82 11.5t68 35t46.5 58.5t17.5 82v97
h-171v33h207v-338h-35v111zM343 -66q29 0 29 -28v-11q0 -28 -14 -60.5t-35 -54.5h-27q21 23 32 48.5t14 43.5q-17 1 -23.5 8t-6.5 18v8q0 28 31 28z" />
    <glyph glyph-name="Gdotaccent" unicode="&#x120;" horiz-adv-x="673" 
d="M560 111h-3q-25 -57 -78.5 -90t-136.5 -33q-131 0 -203 90.5t-72 270.5t72.5 270.5t204.5 90.5q85 0 145 -39.5t89 -105.5l-30 -17q-26 61 -79.5 95t-124.5 34q-110 0 -173.5 -76t-63.5 -222v-59q0 -146 63 -222.5t175 -76.5q43 0 82 11.5t68 35t46.5 58.5t17.5 82v97
h-171v33h207v-338h-35v111zM344 812q-17 0 -24 8.5t-7 20.5v8q0 12 7 20.5t24 8.5t24 -8.5t7 -20.5v-8q0 -12 -7 -20.5t-24 -8.5z" />
    <glyph glyph-name="Hbar" unicode="&#x126;" horiz-adv-x="701" 
d="M557 338h-413v-338h-37v532h-79v30h79v136h37v-136h413v136h37v-136h79v-30h-79v-532h-37v338zM557 371v161h-413v-161h413z" />
    <glyph glyph-name="Hcircumflex" unicode="&#x124;" horiz-adv-x="695" 
d="M554 338h-413v-338h-37v698h37v-327h413v327h37v-698h-37v338zM369 926l124 -136l-21 -15l-124 124l-124 -124l-21 15l124 136h42z" />
    <glyph glyph-name="Iacute" unicode="&#xcd;" horiz-adv-x="379" 
d="M66 0v31h105v636h-105v31h247v-31h-105v-636h105v-31h-247zM178 764l-24 13l105 158l32 -17z" />
    <glyph glyph-name="Ibreve" unicode="&#x12c;" horiz-adv-x="379" 
d="M66 0v31h105v636h-105v31h247v-31h-105v-636h105v-31h-247zM190 781q-29 0 -49.5 9t-35.5 24.5t-27.5 37.5t-24.5 48l23 11l17 -29q12 -21 22 -34.5t21 -21.5t24 -11.5t30 -3.5q34 0 54 15t43 56l17 29l23 -11q-12 -26 -24.5 -48t-27.5 -37.5t-35.5 -24.5t-49.5 -9z" />
    <glyph glyph-name="Icircumflex" unicode="&#xce;" horiz-adv-x="379" 
d="M66 0v31h105v636h-105v31h247v-31h-105v-636h105v-31h-247zM211 926l124 -136l-21 -15l-124 124l-124 -124l-21 15l124 136h42z" />
    <glyph glyph-name="Idieresis" unicode="&#xcf;" horiz-adv-x="379" 
d="M66 0v31h105v636h-105v31h247v-31h-105v-636h105v-31h-247zM99 812q-17 0 -23.5 8t-6.5 19v8q0 11 6.5 19t23.5 8q16 0 22.5 -8t6.5 -19v-8q0 -11 -6.5 -19t-22.5 -8zM281 812q-16 0 -22.5 8t-6.5 19v8q0 11 6.5 19t22.5 8q17 0 23.5 -8t6.5 -19v-8q0 -11 -6.5 -19
t-23.5 -8z" />
    <glyph glyph-name="Idotaccent" unicode="&#x130;" horiz-adv-x="379" 
d="M66 0v31h105v636h-105v31h247v-31h-105v-636h105v-31h-247zM190 812q-17 0 -24 8.5t-7 20.5v8q0 12 7 20.5t24 8.5t24 -8.5t7 -20.5v-8q0 -12 -7 -20.5t-24 -8.5z" />
    <glyph glyph-name="uni1ECA" unicode="&#x1eca;" horiz-adv-x="379" 
d="M66 0v31h105v636h-105v31h247v-31h-105v-636h105v-31h-247zM189 -142q-16 0 -23 8t-7 19v8q0 11 7 19t23 8t23 -8t7 -19v-8q0 -11 -7 -19t-23 -8z" />
    <glyph glyph-name="Igrave" unicode="&#xcc;" horiz-adv-x="379" 
d="M66 0v31h105v636h-105v31h247v-31h-105v-636h105v-31h-247zM88 918l32 17l105 -158l-24 -13z" />
    <glyph glyph-name="uni1EC8" unicode="&#x1ec8;" horiz-adv-x="379" 
d="M66 0v31h105v636h-105v31h247v-31h-105v-636h105v-31h-247zM113 921h130q18 0 26 -7.5t8 -19.5q0 -9 -7.5 -23.5t-27.5 -44.5l-43 -65l-23 11l72 121h-135v28z" />
    <glyph glyph-name="Imacron" unicode="&#x12a;" horiz-adv-x="379" 
d="M66 0v31h105v636h-105v31h247v-31h-105v-636h105v-31h-247zM58 861h264v-30h-264v30z" />
    <glyph glyph-name="Iogonek" unicode="&#x12e;" horiz-adv-x="379" 
d="M66 31h105v636h-105v31h247v-31h-105v-636h105v-31q-30 -21 -52 -38t-35.5 -32t-20 -29.5t-6.5 -30.5q0 -25 14.5 -36t37.5 -11q22 0 35.5 7.5t21.5 17.5l20 -18q-10 -14 -29.5 -23.5t-48.5 -9.5q-35 0 -59 17t-24 52q0 31 24 62.5t86 68.5l-1 3h-210v31z" />
    <glyph glyph-name="Itilde" unicode="&#x128;" horiz-adv-x="379" 
d="M66 0v31h105v636h-105v31h247v-31h-105v-636h105v-31h-247zM261 802q-19 0 -36.5 7.5t-40.5 21.5t-38 19.5t-29 5.5q-18 0 -33 -7.5t-31 -23.5l-17 18q17 20 37.5 31.5t45.5 11.5q19 0 36.5 -7.5t40.5 -21.5t38 -19.5t29 -5.5q18 0 33 7.5t31 23.5l17 -18
q-17 -20 -37.5 -31.5t-45.5 -11.5z" />
    <glyph glyph-name="IJ" unicode="&#x132;" horiz-adv-x="634" 
d="M537 698v-491q0 -105 -58 -162t-167 -57q-94 0 -145.5 37.5t-68.5 112.5l33 9q18 -63 60.5 -94.5t121.5 -31.5q91 0 139 46.5t48 135.5v462h-185v33h222zM97 698h37v-408h-37v408z" />
    <glyph glyph-name="Jcircumflex" unicode="&#x134;" horiz-adv-x="475" 
d="M378 698v-515q0 -95 -48 -145t-131 -50q-33 0 -62 9.5t-52 27.5t-39 42.5t-23 53.5l33 9q14 -47 50.5 -78t93.5 -31q70 0 105.5 42.5t35.5 122.5v479h-245v33h282zM261 926l124 -136l-21 -15l-124 124l-124 -124l-21 15l124 136h42z" />
    <glyph glyph-name="Kcommaaccent" unicode="&#x136;" horiz-adv-x="587" 
d="M268 377l-127 -139v-238h-37v698h37v-414h2l123 137l248 277h46l-267 -296l273 -402h-44zM320 -66q29 0 29 -28v-11q0 -28 -14 -60.5t-35 -54.5h-27q21 23 32 48.5t14 43.5q-17 1 -23.5 8t-6.5 18v8q0 28 31 28z" />
    <glyph glyph-name="Lacute" unicode="&#x139;" horiz-adv-x="481" 
d="M104 0v698h37v-665h319v-33h-356zM112 764l-24 13l105 158l32 -17z" />
    <glyph glyph-name="Lcaron" unicode="&#x13d;" horiz-adv-x="481" 
d="M104 0v698h37v-665h319v-33h-356zM262 562h-25l15 178h41z" />
    <glyph glyph-name="Lcommaaccent" unicode="&#x13b;" horiz-adv-x="481" 
d="M104 0v698h37v-665h319v-33h-356zM294 -66q29 0 29 -28v-11q0 -28 -14 -60.5t-35 -54.5h-27q21 23 32 48.5t14 43.5q-17 1 -23.5 8t-6.5 18v8q0 28 31 28z" />
    <glyph glyph-name="Ldot" unicode="&#x13f;" horiz-adv-x="481" 
d="M104 0v698h37v-665h319v-33h-356zM365 277q-16 0 -23 8t-7 19v8q0 11 7 19t23 8t23 -8t7 -19v-8q0 -11 -7 -19t-23 -8z" />
    <glyph glyph-name="Lslash" unicode="&#x141;" horiz-adv-x="484" 
d="M463 0h-356v295l-98 -32v32l98 32v371h37v-359l199 63v-32l-199 -63v-274h319v-33z" />
    <glyph glyph-name="Nacute" unicode="&#x143;" horiz-adv-x="696" 
d="M143 650h-3v-650h-36v698h49l400 -650h3v650h36v-698h-50zM336 764l-24 13l105 158l32 -17z" />
    <glyph glyph-name="Ncaron" unicode="&#x147;" horiz-adv-x="696" 
d="M143 650h-3v-650h-36v698h49l400 -650h3v650h36v-698h-50zM327 780l-124 135l21 16l124 -125l124 125l21 -16l-124 -135h-42z" />
    <glyph glyph-name="Ncommaaccent" unicode="&#x145;" horiz-adv-x="696" 
d="M143 650h-3v-650h-36v698h49l400 -650h3v650h36v-698h-50zM349 -66q29 0 29 -28v-11q0 -28 -14 -60.5t-35 -54.5h-27q21 23 32 48.5t14 43.5q-17 1 -23.5 8t-6.5 18v8q0 28 31 28z" />
    <glyph glyph-name="Ntilde" unicode="&#xd1;" horiz-adv-x="696" 
d="M143 650h-3v-650h-36v698h49l400 -650h3v650h36v-698h-50zM419 802q-19 0 -36.5 7.5t-40.5 21.5t-38 19.5t-29 5.5q-18 0 -33 -7.5t-31 -23.5l-17 18q17 20 37.5 31.5t45.5 11.5q19 0 36.5 -7.5t40.5 -21.5t38 -19.5t29 -5.5q18 0 33 7.5t31 23.5l17 -18
q-17 -20 -37.5 -31.5t-45.5 -11.5z" />
    <glyph glyph-name="Eng" unicode="&#x14a;" horiz-adv-x="696" 
d="M104 0v698h49l400 -650h3v650h36v-846q0 -52 -50 -52h-72v32h86v168h-14l-399 650h-3v-650h-36z" />
    <glyph glyph-name="Oacute" unicode="&#xd3;" horiz-adv-x="686" 
d="M343 -12q-131 0 -203.5 90.5t-72.5 270.5t72.5 270.5t203.5 90.5t203.5 -90.5t72.5 -270.5t-72.5 -270.5t-203.5 -90.5zM343 21q109 0 172.5 76t63.5 222v60q0 146 -63.5 222t-172.5 76t-172.5 -76t-63.5 -222v-60q0 -146 63.5 -222t172.5 -76zM331 764l-24 13l105 158
l32 -17z" />
    <glyph glyph-name="Obreve" unicode="&#x14e;" horiz-adv-x="686" 
d="M343 -12q-131 0 -203.5 90.5t-72.5 270.5t72.5 270.5t203.5 90.5t203.5 -90.5t72.5 -270.5t-72.5 -270.5t-203.5 -90.5zM343 21q109 0 172.5 76t63.5 222v60q0 146 -63.5 222t-172.5 76t-172.5 -76t-63.5 -222v-60q0 -146 63.5 -222t172.5 -76zM343 781q-29 0 -49.5 9
t-35.5 24.5t-27.5 37.5t-24.5 48l23 11l17 -29q12 -21 22 -34.5t21 -21.5t24 -11.5t30 -3.5q34 0 54 15t43 56l17 29l23 -11q-12 -26 -24.5 -48t-27.5 -37.5t-35.5 -24.5t-49.5 -9z" />
    <glyph glyph-name="Ocircumflex" unicode="&#xd4;" horiz-adv-x="686" 
d="M343 -12q-131 0 -203.5 90.5t-72.5 270.5t72.5 270.5t203.5 90.5t203.5 -90.5t72.5 -270.5t-72.5 -270.5t-203.5 -90.5zM343 21q109 0 172.5 76t63.5 222v60q0 146 -63.5 222t-172.5 76t-172.5 -76t-63.5 -222v-60q0 -146 63.5 -222t172.5 -76zM364 926l124 -136l-21 -15
l-124 124l-124 -124l-21 15l124 136h42z" />
    <glyph glyph-name="Odieresis" unicode="&#xd6;" horiz-adv-x="686" 
d="M343 -12q-131 0 -203.5 90.5t-72.5 270.5t72.5 270.5t203.5 90.5t203.5 -90.5t72.5 -270.5t-72.5 -270.5t-203.5 -90.5zM343 21q109 0 172.5 76t63.5 222v60q0 146 -63.5 222t-172.5 76t-172.5 -76t-63.5 -222v-60q0 -146 63.5 -222t172.5 -76zM252 812q-17 0 -23.5 8
t-6.5 19v8q0 11 6.5 19t23.5 8q16 0 22.5 -8t6.5 -19v-8q0 -11 -6.5 -19t-22.5 -8zM434 812q-16 0 -22.5 8t-6.5 19v8q0 11 6.5 19t22.5 8q17 0 23.5 -8t6.5 -19v-8q0 -11 -6.5 -19t-23.5 -8z" />
    <glyph glyph-name="uni1ECC" unicode="&#x1ecc;" horiz-adv-x="686" 
d="M343 -12q-131 0 -203.5 90.5t-72.5 270.5t72.5 270.5t203.5 90.5t203.5 -90.5t72.5 -270.5t-72.5 -270.5t-203.5 -90.5zM343 21q109 0 172.5 76t63.5 222v60q0 146 -63.5 222t-172.5 76t-172.5 -76t-63.5 -222v-60q0 -146 63.5 -222t172.5 -76zM343 -142q-16 0 -23 8
t-7 19v8q0 11 7 19t23 8t23 -8t7 -19v-8q0 -11 -7 -19t-23 -8z" />
    <glyph glyph-name="Ograve" unicode="&#xd2;" horiz-adv-x="686" 
d="M343 -12q-131 0 -203.5 90.5t-72.5 270.5t72.5 270.5t203.5 90.5t203.5 -90.5t72.5 -270.5t-72.5 -270.5t-203.5 -90.5zM343 21q109 0 172.5 76t63.5 222v60q0 146 -63.5 222t-172.5 76t-172.5 -76t-63.5 -222v-60q0 -146 63.5 -222t172.5 -76zM241 918l32 17l105 -158
l-24 -13z" />
    <glyph glyph-name="uni1ECE" unicode="&#x1ece;" horiz-adv-x="686" 
d="M343 -12q-131 0 -203.5 90.5t-72.5 270.5t72.5 270.5t203.5 90.5t203.5 -90.5t72.5 -270.5t-72.5 -270.5t-203.5 -90.5zM343 21q109 0 172.5 76t63.5 222v60q0 146 -63.5 222t-172.5 76t-172.5 -76t-63.5 -222v-60q0 -146 63.5 -222t172.5 -76zM267 921h130q18 0 26 -7.5
t8 -19.5q0 -9 -7.5 -23.5t-27.5 -44.5l-43 -65l-23 11l72 121h-135v28z" />
    <glyph glyph-name="Ohungarumlaut" unicode="&#x150;" horiz-adv-x="686" 
d="M343 -12q-131 0 -203.5 90.5t-72.5 270.5t72.5 270.5t203.5 90.5t203.5 -90.5t72.5 -270.5t-72.5 -270.5t-203.5 -90.5zM343 21q109 0 172.5 76t63.5 222v60q0 146 -63.5 222t-172.5 76t-172.5 -76t-63.5 -222v-60q0 -146 63.5 -222t172.5 -76zM265 764l-23 13l105 158
l31 -17zM425 764l-23 13l105 158l31 -17z" />
    <glyph glyph-name="Omacron" unicode="&#x14c;" horiz-adv-x="686" 
d="M343 -12q-131 0 -203.5 90.5t-72.5 270.5t72.5 270.5t203.5 90.5t203.5 -90.5t72.5 -270.5t-72.5 -270.5t-203.5 -90.5zM343 21q109 0 172.5 76t63.5 222v60q0 146 -63.5 222t-172.5 76t-172.5 -76t-63.5 -222v-60q0 -146 63.5 -222t172.5 -76zM211 861h264v-30h-264v30z
" />
    <glyph glyph-name="Oslash" unicode="&#xd8;" horiz-adv-x="686" 
d="M343 -12q-115 0 -184 69l-63 -91l-27 17l69 99q-35 45 -53 111.5t-18 155.5q0 180 72.5 270.5t203.5 90.5q115 0 184 -69l65 93l26 -17l-70 -100q35 -46 53 -112.5t18 -155.5q0 -180 -72.5 -270.5t-203.5 -90.5zM107 319q0 -66 13.5 -117.5t38.5 -88.5l347 498
q-61 66 -163 66q-109 0 -172.5 -76t-63.5 -222v-60zM579 379q0 66 -13.5 117.5t-38.5 88.5l-347 -498q61 -66 163 -66q109 0 172.5 76t63.5 222v60z" />
    <glyph glyph-name="Oslashacute" unicode="&#x1fe;" horiz-adv-x="686" 
d="M343 -12q-115 0 -184 69l-63 -91l-27 17l69 99q-35 45 -53 111.5t-18 155.5q0 180 72.5 270.5t203.5 90.5q115 0 184 -69l65 93l26 -17l-70 -100q35 -46 53 -112.5t18 -155.5q0 -180 -72.5 -270.5t-203.5 -90.5zM107 319q0 -66 13.5 -117.5t38.5 -88.5l347 498
q-61 66 -163 66q-109 0 -172.5 -76t-63.5 -222v-60zM579 379q0 66 -13.5 117.5t-38.5 88.5l-347 -498q61 -66 163 -66q109 0 172.5 76t63.5 222v60zM331 764l-24 13l105 158l32 -17z" />
    <glyph glyph-name="Otilde" unicode="&#xd5;" horiz-adv-x="686" 
d="M343 -12q-131 0 -203.5 90.5t-72.5 270.5t72.5 270.5t203.5 90.5t203.5 -90.5t72.5 -270.5t-72.5 -270.5t-203.5 -90.5zM343 21q109 0 172.5 76t63.5 222v60q0 146 -63.5 222t-172.5 76t-172.5 -76t-63.5 -222v-60q0 -146 63.5 -222t172.5 -76zM414 802q-19 0 -36.5 7.5
t-40.5 21.5t-38 19.5t-29 5.5q-18 0 -33 -7.5t-31 -23.5l-17 18q17 20 37.5 31.5t45.5 11.5q19 0 36.5 -7.5t40.5 -21.5t38 -19.5t29 -5.5q18 0 33 7.5t31 23.5l17 -18q-17 -20 -37.5 -31.5t-45.5 -11.5z" />
    <glyph glyph-name="Ohorn" unicode="&#x1a0;" horiz-adv-x="686" 
d="M621 811v-102q0 -18 -8.5 -27.5t-28.5 -9.5h-96q63 -41 97 -120t34 -203q0 -180 -72.5 -270.5t-203.5 -90.5t-203.5 90.5t-72.5 270.5t72.5 270.5t203.5 90.5q48 0 87 -12h159v113h32zM343 21q109 0 172.5 76t63.5 222v60q0 146 -63.5 222t-172.5 76t-172.5 -76
t-63.5 -222v-60q0 -146 63.5 -222t172.5 -76z" />
    <glyph glyph-name="uni1EDA" unicode="&#x1eda;" horiz-adv-x="686" 
d="M621 811v-102q0 -18 -8.5 -27.5t-28.5 -9.5h-96q63 -41 97 -120t34 -203q0 -180 -72.5 -270.5t-203.5 -90.5t-203.5 90.5t-72.5 270.5t72.5 270.5t203.5 90.5q48 0 87 -12h159v113h32zM343 21q109 0 172.5 76t63.5 222v60q0 146 -63.5 222t-172.5 76t-172.5 -76
t-63.5 -222v-60q0 -146 63.5 -222t172.5 -76zM331 764l-24 13l105 158l32 -17z" />
    <glyph glyph-name="uni1EE2" unicode="&#x1ee2;" horiz-adv-x="686" 
d="M621 811v-102q0 -18 -8.5 -27.5t-28.5 -9.5h-96q63 -41 97 -120t34 -203q0 -180 -72.5 -270.5t-203.5 -90.5t-203.5 90.5t-72.5 270.5t72.5 270.5t203.5 90.5q48 0 87 -12h159v113h32zM343 21q109 0 172.5 76t63.5 222v60q0 146 -63.5 222t-172.5 76t-172.5 -76
t-63.5 -222v-60q0 -146 63.5 -222t172.5 -76zM348 -142q-16 0 -23 8t-7 19v8q0 11 7 19t23 8t23 -8t7 -19v-8q0 -11 -7 -19t-23 -8z" />
    <glyph glyph-name="uni1EDC" unicode="&#x1edc;" horiz-adv-x="686" 
d="M621 811v-102q0 -18 -8.5 -27.5t-28.5 -9.5h-96q63 -41 97 -120t34 -203q0 -180 -72.5 -270.5t-203.5 -90.5t-203.5 90.5t-72.5 270.5t72.5 270.5t203.5 90.5q48 0 87 -12h159v113h32zM343 21q109 0 172.5 76t63.5 222v60q0 146 -63.5 222t-172.5 76t-172.5 -76
t-63.5 -222v-60q0 -146 63.5 -222t172.5 -76zM241 918l32 17l105 -158l-24 -13z" />
    <glyph glyph-name="uni1EDE" unicode="&#x1ede;" horiz-adv-x="686" 
d="M621 811v-102q0 -18 -8.5 -27.5t-28.5 -9.5h-96q63 -41 97 -120t34 -203q0 -180 -72.5 -270.5t-203.5 -90.5t-203.5 90.5t-72.5 270.5t72.5 270.5t203.5 90.5q48 0 87 -12h159v113h32zM343 21q109 0 172.5 76t63.5 222v60q0 146 -63.5 222t-172.5 76t-172.5 -76
t-63.5 -222v-60q0 -146 63.5 -222t172.5 -76zM267 921h130q18 0 26 -7.5t8 -19.5q0 -9 -7.5 -23.5t-27.5 -44.5l-43 -65l-23 11l72 121h-135v28z" />
    <glyph glyph-name="uni1EE0" unicode="&#x1ee0;" horiz-adv-x="686" 
d="M621 811v-102q0 -18 -8.5 -27.5t-28.5 -9.5h-96q63 -41 97 -120t34 -203q0 -180 -72.5 -270.5t-203.5 -90.5t-203.5 90.5t-72.5 270.5t72.5 270.5t203.5 90.5q48 0 87 -12h159v113h32zM343 21q109 0 172.5 76t63.5 222v60q0 146 -63.5 222t-172.5 76t-172.5 -76
t-63.5 -222v-60q0 -146 63.5 -222t172.5 -76zM416 803q-19 0 -35.5 7t-39.5 21q-21 13 -35.5 18.5t-28.5 5.5q-33 0 -63 -31l-17 19q34 42 81 42q19 0 35.5 -7t39.5 -21q21 -13 35.5 -18.5t28.5 -5.5q33 0 63 31l17 -19q-34 -42 -81 -42z" />
    <glyph glyph-name="uni1ED0" unicode="&#x1ed0;" horiz-adv-x="686" 
d="M343 -12q-131 0 -203.5 90.5t-72.5 270.5t72.5 270.5t203.5 90.5t203.5 -90.5t72.5 -270.5t-72.5 -270.5t-203.5 -90.5zM343 21q109 0 172.5 76t63.5 222v60q0 146 -63.5 222t-172.5 76t-172.5 -76t-63.5 -222v-60q0 -146 63.5 -222t172.5 -76zM466 875l-23 13l105 158
l31 -17zM364 915l124 -133l-21 -16l-124 124l-124 -124l-21 16l124 133h42z" />
    <glyph glyph-name="uni1ED8" unicode="&#x1ed8;" horiz-adv-x="686" 
d="M343 -12q-131 0 -203.5 90.5t-72.5 270.5t72.5 270.5t203.5 90.5t203.5 -90.5t72.5 -270.5t-72.5 -270.5t-203.5 -90.5zM343 21q109 0 172.5 76t63.5 222v60q0 146 -63.5 222t-172.5 76t-172.5 -76t-63.5 -222v-60q0 -146 63.5 -222t172.5 -76zM364 926l124 -136l-21 -15
l-124 124l-124 -124l-21 15l124 136h42zM343 -142q-16 0 -23 8t-7 19v8q0 11 7 19t23 8t23 -8t7 -19v-8q0 -11 -7 -19t-23 -8z" />
    <glyph glyph-name="uni1ED2" unicode="&#x1ed2;" horiz-adv-x="686" 
d="M343 -12q-131 0 -203.5 90.5t-72.5 270.5t72.5 270.5t203.5 90.5t203.5 -90.5t72.5 -270.5t-72.5 -270.5t-203.5 -90.5zM343 21q109 0 172.5 76t63.5 222v60q0 146 -63.5 222t-172.5 76t-172.5 -76t-63.5 -222v-60q0 -146 63.5 -222t172.5 -76zM107 1029l31 17l105 -158
l-23 -13zM364 915l124 -133l-21 -16l-124 124l-124 -124l-21 16l124 133h42z" />
    <glyph glyph-name="uni1ED4" unicode="&#x1ed4;" horiz-adv-x="686" 
d="M343 -12q-131 0 -203.5 90.5t-72.5 270.5t72.5 270.5t203.5 90.5t203.5 -90.5t72.5 -270.5t-72.5 -270.5t-203.5 -90.5zM343 21q109 0 172.5 76t63.5 222v60q0 146 -63.5 222t-172.5 76t-172.5 -76t-63.5 -222v-60q0 -146 63.5 -222t172.5 -76zM385 1032h130
q18 0 26 -7.5t8 -18.5q0 -10 -7.5 -24.5t-27.5 -44.5l-43 -65l-23 11l73 122h-136v27zM364 915l124 -133l-21 -16l-124 124l-124 -124l-21 16l124 133h42z" />
    <glyph glyph-name="uni1ED6" unicode="&#x1ed6;" horiz-adv-x="686" 
d="M343 -12q-131 0 -203.5 90.5t-72.5 270.5t72.5 270.5t203.5 90.5t203.5 -90.5t72.5 -270.5t-72.5 -270.5t-203.5 -90.5zM343 21q109 0 172.5 76t63.5 222v60q0 146 -63.5 222t-172.5 76t-172.5 -76t-63.5 -222v-60q0 -146 63.5 -222t172.5 -76zM272 1033q20 0 37 -7
t40 -22q23 -14 38 -20t29 -6q18 0 33 8t31 24l16 -18q-34 -42 -82 -42q-20 0 -37 7t-40 22q-23 14 -38 20t-29 6q-18 0 -33 -8t-31 -24l-16 18q34 42 82 42zM364 915l124 -133l-21 -16l-124 124l-124 -124l-21 16l124 133h42z" />
    <glyph glyph-name="OE" unicode="&#x152;" horiz-adv-x="971" 
d="M509 0q-25 -4 -61.5 -8t-78.5 -4q-146 0 -224 90.5t-78 270.5t78 270.5t224 90.5q42 0 78.5 -4t61.5 -8h392v-33h-355v-294h341v-33h-341v-305h355v-33h-392zM372 21q41 0 76 4.5t61 10.5v626q-26 6 -61 10.5t-76 4.5q-128 0 -196.5 -76t-68.5 -222v-60q0 -146 68.5 -222
t196.5 -76z" />
    <glyph glyph-name="Racute" unicode="&#x154;" horiz-adv-x="632" 
d="M141 0h-37v698h271q88 0 133.5 -51t45.5 -139q0 -85 -42.5 -135t-125.5 -54l185 -319h-42l-182 317h-206v-317zM375 349q35 0 61 11t43.5 29.5t26 43.5t8.5 52v44q0 27 -8.5 52t-26 43.5t-43.5 29.5t-61 11h-234v-316h234zM293 764l-24 13l105 158l32 -17z" />
    <glyph glyph-name="Rcaron" unicode="&#x158;" horiz-adv-x="632" 
d="M141 0h-37v698h271q88 0 133.5 -51t45.5 -139q0 -85 -42.5 -135t-125.5 -54l185 -319h-42l-182 317h-206v-317zM375 349q35 0 61 11t43.5 29.5t26 43.5t8.5 52v44q0 27 -8.5 52t-26 43.5t-43.5 29.5t-61 11h-234v-316h234zM284 780l-124 135l21 16l124 -125l124 125
l21 -16l-124 -135h-42z" />
    <glyph glyph-name="Rcommaaccent" unicode="&#x156;" horiz-adv-x="632" 
d="M141 0h-37v698h271q88 0 133.5 -51t45.5 -139q0 -85 -42.5 -135t-125.5 -54l185 -319h-42l-182 317h-206v-317zM375 349q35 0 61 11t43.5 29.5t26 43.5t8.5 52v44q0 27 -8.5 52t-26 43.5t-43.5 29.5t-61 11h-234v-316h234zM311 -66q29 0 29 -28v-11q0 -28 -14 -60.5
t-35 -54.5h-27q21 23 32 48.5t14 43.5q-17 1 -23.5 8t-6.5 18v8q0 28 31 28z" />
    <glyph glyph-name="Sacute" unicode="&#x15a;" horiz-adv-x="555" 
d="M279 -12q-86 0 -142.5 32.5t-94.5 83.5l28 22q37 -48 85.5 -76.5t124.5 -28.5q88 0 135.5 40.5t47.5 118.5q0 39 -12 66t-33 44.5t-49 28t-60 16.5l-67 13q-51 10 -86 27.5t-56.5 41t-31 52t-9.5 61.5q0 45 15.5 79t44 56.5t68.5 33.5t89 11q78 0 129.5 -27t82.5 -73
l-28 -20q-30 42 -75 64.5t-111 22.5q-84 0 -131 -36t-47 -110q0 -37 12 -62.5t32.5 -42.5t48.5 -27.5t61 -16.5l67 -13q53 -11 88.5 -29t56.5 -42t29.5 -53t8.5 -62q0 -95 -59.5 -145t-161.5 -50zM262 764l-24 13l105 158l32 -17z" />
    <glyph glyph-name="Scaron" unicode="&#x160;" horiz-adv-x="555" 
d="M279 -12q-86 0 -142.5 32.5t-94.5 83.5l28 22q37 -48 85.5 -76.5t124.5 -28.5q88 0 135.5 40.5t47.5 118.5q0 39 -12 66t-33 44.5t-49 28t-60 16.5l-67 13q-51 10 -86 27.5t-56.5 41t-31 52t-9.5 61.5q0 45 15.5 79t44 56.5t68.5 33.5t89 11q78 0 129.5 -27t82.5 -73
l-28 -20q-30 42 -75 64.5t-111 22.5q-84 0 -131 -36t-47 -110q0 -37 12 -62.5t32.5 -42.5t48.5 -27.5t61 -16.5l67 -13q53 -11 88.5 -29t56.5 -42t29.5 -53t8.5 -62q0 -95 -59.5 -145t-161.5 -50zM253 780l-124 135l21 16l124 -125l124 125l21 -16l-124 -135h-42z" />
    <glyph glyph-name="Scedilla" unicode="&#x15e;" horiz-adv-x="555" 
d="M274 677q-84 0 -131 -36t-47 -110q0 -37 12 -62.5t32.5 -42.5t48.5 -27.5t61 -16.5l67 -13q53 -11 88.5 -29t56.5 -42t29.5 -53t8.5 -62q0 -93 -57 -143t-155 -52l-14 -58l2 -2q8 2 16.5 2.5t15.5 0.5q29 0 48.5 -16t19.5 -44q0 -32 -24.5 -53t-64.5 -21q-32 0 -54 10
t-32 24l19 20q11 -13 27.5 -20.5t39.5 -7.5q25 0 41 12t16 35q0 18 -13.5 30.5t-49.5 14.5l-35 3l17 70q-80 4 -132 35.5t-89 80.5l28 22q37 -48 85.5 -76.5t124.5 -28.5q88 0 135.5 40.5t47.5 118.5q0 39 -12 66t-33 44.5t-49 28t-60 16.5l-67 13q-51 10 -86 27.5t-56.5 41
t-31 52t-9.5 61.5q0 45 15.5 79t44 56.5t68.5 33.5t89 11q78 0 129.5 -27t82.5 -73l-28 -20q-30 42 -75 64.5t-111 22.5z" />
    <glyph glyph-name="Scircumflex" unicode="&#x15c;" horiz-adv-x="555" 
d="M279 -12q-86 0 -142.5 32.5t-94.5 83.5l28 22q37 -48 85.5 -76.5t124.5 -28.5q88 0 135.5 40.5t47.5 118.5q0 39 -12 66t-33 44.5t-49 28t-60 16.5l-67 13q-51 10 -86 27.5t-56.5 41t-31 52t-9.5 61.5q0 45 15.5 79t44 56.5t68.5 33.5t89 11q78 0 129.5 -27t82.5 -73
l-28 -20q-30 42 -75 64.5t-111 22.5q-84 0 -131 -36t-47 -110q0 -37 12 -62.5t32.5 -42.5t48.5 -27.5t61 -16.5l67 -13q53 -11 88.5 -29t56.5 -42t29.5 -53t8.5 -62q0 -95 -59.5 -145t-161.5 -50zM295 926l124 -136l-21 -15l-124 124l-124 -124l-21 15l124 136h42z" />
    <glyph glyph-name="Scommaaccent" unicode="&#x218;" horiz-adv-x="555" 
d="M279 -12q-86 0 -142.5 32.5t-94.5 83.5l28 22q37 -48 85.5 -76.5t124.5 -28.5q88 0 135.5 40.5t47.5 118.5q0 39 -12 66t-33 44.5t-49 28t-60 16.5l-67 13q-51 10 -86 27.5t-56.5 41t-31 52t-9.5 61.5q0 45 15.5 79t44 56.5t68.5 33.5t89 11q78 0 129.5 -27t82.5 -73
l-28 -20q-30 42 -75 64.5t-111 22.5q-84 0 -131 -36t-47 -110q0 -37 12 -62.5t32.5 -42.5t48.5 -27.5t61 -16.5l67 -13q53 -11 88.5 -29t56.5 -42t29.5 -53t8.5 -62q0 -95 -59.5 -145t-161.5 -50zM278 -66q29 0 29 -28v-11q0 -28 -14 -60.5t-35 -54.5h-27q21 23 32 48.5
t14 43.5q-17 1 -23.5 8t-6.5 18v8q0 28 31 28z" />
    <glyph glyph-name="uni1E9E" unicode="&#x1e9e;" horiz-adv-x="685" 
d="M630 193q0 -102 -55 -153.5t-146 -51.5q-69 0 -114.5 24.5t-76.5 66.5l28 22q28 -37 66 -59t97 -22q35 0 65 9.5t51.5 29t33.5 47.5t12 66v39q0 74 -47 115.5t-149 41.5h-41v33l193 264h-406v-665h-37v698h481v-36l-190 -259v-4q235 -1 235 -206z" />
    <glyph glyph-name="Tbar" unicode="&#x166;" horiz-adv-x="563" 
d="M300 359v-359h-37v359h-182v30h182v276h-245v33h527v-33h-245v-276h182v-30h-182z" />
    <glyph glyph-name="Tcaron" unicode="&#x164;" horiz-adv-x="563" 
d="M300 665v-665h-37v665h-245v33h527v-33h-245zM261 780l-124 135l21 16l124 -125l124 125l21 -16l-124 -135h-42z" />
    <glyph glyph-name="uni021A" unicode="&#x21a;" horiz-adv-x="563" 
d="M300 665v-665h-37v665h-245v33h527v-33h-245zM282 -66q29 0 29 -28v-11q0 -28 -14 -60.5t-35 -54.5h-27q21 23 32 48.5t14 43.5q-17 1 -23.5 8t-6.5 18v8q0 28 31 28z" />
    <glyph glyph-name="uni0162" unicode="&#x162;" horiz-adv-x="563" 
d="M300 665v-665h-37v665h-245v33h527v-33h-245zM282 -66q29 0 29 -28v-11q0 -28 -14 -60.5t-35 -54.5h-27q21 23 32 48.5t14 43.5q-17 1 -23.5 8t-6.5 18v8q0 28 31 28z" />
    <glyph glyph-name="Thorn" unicode="&#xde;" horiz-adv-x="597" 
d="M104 0v698h37v-153h234q88 0 133.5 -51.5t45.5 -139.5t-45.5 -139.5t-133.5 -51.5h-234v-163h-37zM141 196h234q35 0 61 11t43.5 29.5t26 43.5t8.5 52v44q0 27 -8.5 52t-26 43.5t-43.5 29.5t-61 11h-234v-316z" />
    <glyph glyph-name="Uacute" unicode="&#xda;" horiz-adv-x="658" 
d="M134 698v-430q0 -66 9.5 -113t32.5 -77t60 -43.5t93 -13.5q55 0 92.5 13.5t60.5 43.5t32.5 77t9.5 113v430h37v-424q0 -77 -12 -131.5t-39.5 -89t-72 -50t-109.5 -15.5t-109 15.5t-71 50t-39 89t-12 131.5v424h37zM316 764l-24 13l105 158l32 -17z" />
    <glyph glyph-name="Ubreve" unicode="&#x16c;" horiz-adv-x="658" 
d="M134 698v-430q0 -66 9.5 -113t32.5 -77t60 -43.5t93 -13.5q55 0 92.5 13.5t60.5 43.5t32.5 77t9.5 113v430h37v-424q0 -77 -12 -131.5t-39.5 -89t-72 -50t-109.5 -15.5t-109 15.5t-71 50t-39 89t-12 131.5v424h37zM328 781q-29 0 -49.5 9t-35.5 24.5t-27.5 37.5t-24.5 48
l23 11l17 -29q12 -21 22 -34.5t21 -21.5t24 -11.5t30 -3.5q34 0 54 15t43 56l17 29l23 -11q-12 -26 -24.5 -48t-27.5 -37.5t-35.5 -24.5t-49.5 -9z" />
    <glyph glyph-name="Ucircumflex" unicode="&#xdb;" horiz-adv-x="658" 
d="M134 698v-430q0 -66 9.5 -113t32.5 -77t60 -43.5t93 -13.5q55 0 92.5 13.5t60.5 43.5t32.5 77t9.5 113v430h37v-424q0 -77 -12 -131.5t-39.5 -89t-72 -50t-109.5 -15.5t-109 15.5t-71 50t-39 89t-12 131.5v424h37zM349 926l124 -136l-21 -15l-124 124l-124 -124l-21 15
l124 136h42z" />
    <glyph glyph-name="Udieresis" unicode="&#xdc;" horiz-adv-x="658" 
d="M134 698v-430q0 -66 9.5 -113t32.5 -77t60 -43.5t93 -13.5q55 0 92.5 13.5t60.5 43.5t32.5 77t9.5 113v430h37v-424q0 -77 -12 -131.5t-39.5 -89t-72 -50t-109.5 -15.5t-109 15.5t-71 50t-39 89t-12 131.5v424h37zM237 812q-17 0 -23.5 8t-6.5 19v8q0 11 6.5 19t23.5 8
q16 0 22.5 -8t6.5 -19v-8q0 -11 -6.5 -19t-22.5 -8zM419 812q-16 0 -22.5 8t-6.5 19v8q0 11 6.5 19t22.5 8q17 0 23.5 -8t6.5 -19v-8q0 -11 -6.5 -19t-23.5 -8z" />
    <glyph glyph-name="uni1EE4" unicode="&#x1ee4;" horiz-adv-x="658" 
d="M134 698v-430q0 -66 9.5 -113t32.5 -77t60 -43.5t93 -13.5q55 0 92.5 13.5t60.5 43.5t32.5 77t9.5 113v430h37v-424q0 -77 -12 -131.5t-39.5 -89t-72 -50t-109.5 -15.5t-109 15.5t-71 50t-39 89t-12 131.5v424h37zM329 -142q-16 0 -23 8t-7 19v8q0 11 7 19t23 8t23 -8
t7 -19v-8q0 -11 -7 -19t-23 -8z" />
    <glyph glyph-name="Ugrave" unicode="&#xd9;" horiz-adv-x="658" 
d="M134 698v-430q0 -66 9.5 -113t32.5 -77t60 -43.5t93 -13.5q55 0 92.5 13.5t60.5 43.5t32.5 77t9.5 113v430h37v-424q0 -77 -12 -131.5t-39.5 -89t-72 -50t-109.5 -15.5t-109 15.5t-71 50t-39 89t-12 131.5v424h37zM226 918l32 17l105 -158l-24 -13z" />
    <glyph glyph-name="uni1EE6" unicode="&#x1ee6;" horiz-adv-x="658" 
d="M134 698v-430q0 -66 9.5 -113t32.5 -77t60 -43.5t93 -13.5q55 0 92.5 13.5t60.5 43.5t32.5 77t9.5 113v430h37v-424q0 -77 -12 -131.5t-39.5 -89t-72 -50t-109.5 -15.5t-109 15.5t-71 50t-39 89t-12 131.5v424h37zM252 921h130q18 0 26 -7.5t8 -19.5q0 -9 -7.5 -23.5
t-27.5 -44.5l-43 -65l-23 11l72 121h-135v28z" />
    <glyph glyph-name="Uhungarumlaut" unicode="&#x170;" horiz-adv-x="658" 
d="M134 698v-430q0 -66 9.5 -113t32.5 -77t60 -43.5t93 -13.5q55 0 92.5 13.5t60.5 43.5t32.5 77t9.5 113v430h37v-424q0 -77 -12 -131.5t-39.5 -89t-72 -50t-109.5 -15.5t-109 15.5t-71 50t-39 89t-12 131.5v424h37zM250 764l-23 13l105 158l31 -17zM410 764l-23 13
l105 158l31 -17z" />
    <glyph glyph-name="Umacron" unicode="&#x16a;" horiz-adv-x="658" 
d="M134 698v-430q0 -66 9.5 -113t32.5 -77t60 -43.5t93 -13.5q55 0 92.5 13.5t60.5 43.5t32.5 77t9.5 113v430h37v-424q0 -77 -12 -131.5t-39.5 -89t-72 -50t-109.5 -15.5t-109 15.5t-71 50t-39 89t-12 131.5v424h37zM196 861h264v-30h-264v30z" />
    <glyph glyph-name="Uogonek" unicode="&#x172;" horiz-adv-x="658" 
d="M134 698v-430q0 -66 9.5 -113t32.5 -77t60 -43.5t93 -13.5q55 0 92.5 13.5t60.5 43.5t32.5 77t9.5 113v430h37v-424q0 -53 -5.5 -94t-17.5 -73.5t-32 -57.5t-50 -44q-60 -38 -90.5 -69.5t-30.5 -64.5q0 -25 14 -36.5t37 -11.5q22 0 36 7.5t22 17.5l20 -18
q-10 -14 -29.5 -23.5t-48.5 -9.5q-35 0 -58.5 17t-23.5 52q0 32 23 63t82 66l-2 3q-34 -10 -79 -10q-65 0 -109 15.5t-71 50t-39 89t-12 131.5v424h37z" />
    <glyph glyph-name="Uring" unicode="&#x16e;" horiz-adv-x="658" 
d="M134 698v-430q0 -66 9.5 -113t32.5 -77t60 -43.5t93 -13.5q55 0 92.5 13.5t60.5 43.5t32.5 77t9.5 113v430h37v-424q0 -77 -12 -131.5t-39.5 -89t-72 -50t-109.5 -15.5t-109 15.5t-71 50t-39 89t-12 131.5v424h37zM328 764q-43 0 -69.5 26.5t-26.5 69.5t26.5 70t69.5 27
t69.5 -27t26.5 -70t-26.5 -69.5t-69.5 -26.5zM328 789q31 0 49 17.5t18 47.5v13q0 29 -18 47t-49 18t-49 -18t-18 -47v-13q0 -30 18 -47.5t49 -17.5z" />
    <glyph glyph-name="Utilde" unicode="&#x168;" horiz-adv-x="658" 
d="M134 698v-430q0 -66 9.5 -113t32.5 -77t60 -43.5t93 -13.5q55 0 92.5 13.5t60.5 43.5t32.5 77t9.5 113v430h37v-424q0 -77 -12 -131.5t-39.5 -89t-72 -50t-109.5 -15.5t-109 15.5t-71 50t-39 89t-12 131.5v424h37zM399 802q-19 0 -36.5 7.5t-40.5 21.5t-38 19.5t-29 5.5
q-18 0 -33 -7.5t-31 -23.5l-17 18q17 20 37.5 31.5t45.5 11.5q19 0 36.5 -7.5t40.5 -21.5t38 -19.5t29 -5.5q18 0 33 7.5t31 23.5l17 -18q-17 -20 -37.5 -31.5t-45.5 -11.5z" />
    <glyph glyph-name="Uhorn" unicode="&#x1af;" horiz-adv-x="658" 
d="M134 698v-430q0 -66 9.5 -113t32.5 -77t60 -43.5t93 -13.5q55 0 92.5 13.5t60.5 43.5t32.5 77t9.5 113v430h83v111h32v-100q0 -18 -8.5 -27.5t-28.5 -9.5h-41v-398q0 -77 -12 -131.5t-39.5 -89t-72 -50t-109.5 -15.5t-109 15.5t-71 50t-39 89t-12 131.5v424h37z" />
    <glyph glyph-name="uni1EE8" unicode="&#x1ee8;" horiz-adv-x="658" 
d="M134 698v-430q0 -66 9.5 -113t32.5 -77t60 -43.5t93 -13.5q55 0 92.5 13.5t60.5 43.5t32.5 77t9.5 113v430h83v111h32v-100q0 -18 -8.5 -27.5t-28.5 -9.5h-41v-398q0 -77 -12 -131.5t-39.5 -89t-72 -50t-109.5 -15.5t-109 15.5t-71 50t-39 89t-12 131.5v424h37zM316 764
l-24 13l105 158l32 -17z" />
    <glyph glyph-name="uni1EF0" unicode="&#x1ef0;" horiz-adv-x="658" 
d="M134 698v-430q0 -66 9.5 -113t32.5 -77t60 -43.5t93 -13.5q55 0 92.5 13.5t60.5 43.5t32.5 77t9.5 113v430h83v111h32v-100q0 -18 -8.5 -27.5t-28.5 -9.5h-41v-398q0 -77 -12 -131.5t-39.5 -89t-72 -50t-109.5 -15.5t-109 15.5t-71 50t-39 89t-12 131.5v424h37zM330 -142
q-16 0 -23 8t-7 19v8q0 11 7 19t23 8t23 -8t7 -19v-8q0 -11 -7 -19t-23 -8z" />
    <glyph glyph-name="uni1EEA" unicode="&#x1eea;" horiz-adv-x="658" 
d="M134 698v-430q0 -66 9.5 -113t32.5 -77t60 -43.5t93 -13.5q55 0 92.5 13.5t60.5 43.5t32.5 77t9.5 113v430h83v111h32v-100q0 -18 -8.5 -27.5t-28.5 -9.5h-41v-398q0 -77 -12 -131.5t-39.5 -89t-72 -50t-109.5 -15.5t-109 15.5t-71 50t-39 89t-12 131.5v424h37zM226 918
l32 17l105 -158l-24 -13z" />
    <glyph glyph-name="uni1EEC" unicode="&#x1eec;" horiz-adv-x="658" 
d="M134 698v-430q0 -66 9.5 -113t32.5 -77t60 -43.5t93 -13.5q55 0 92.5 13.5t60.5 43.5t32.5 77t9.5 113v430h83v111h32v-100q0 -18 -8.5 -27.5t-28.5 -9.5h-41v-398q0 -77 -12 -131.5t-39.5 -89t-72 -50t-109.5 -15.5t-109 15.5t-71 50t-39 89t-12 131.5v424h37zM252 921
h130q18 0 26 -7.5t8 -19.5q0 -9 -7.5 -23.5t-27.5 -44.5l-43 -65l-23 11l72 121h-135v28z" />
    <glyph glyph-name="uni1EEE" unicode="&#x1eee;" horiz-adv-x="658" 
d="M134 698v-430q0 -66 9.5 -113t32.5 -77t60 -43.5t93 -13.5q55 0 92.5 13.5t60.5 43.5t32.5 77t9.5 113v430h83v111h32v-100q0 -18 -8.5 -27.5t-28.5 -9.5h-41v-398q0 -77 -12 -131.5t-39.5 -89t-72 -50t-109.5 -15.5t-109 15.5t-71 50t-39 89t-12 131.5v424h37zM399 803
q-19 0 -35.5 7t-39.5 21q-21 13 -35.5 18.5t-28.5 5.5q-33 0 -63 -31l-17 19q34 42 81 42q19 0 35.5 -7t39.5 -21q21 -13 35.5 -18.5t28.5 -5.5q33 0 63 31l17 -19q-34 -42 -81 -42z" />
    <glyph glyph-name="Wacute" unicode="&#x1e82;" horiz-adv-x="877" 
d="M210 0l-182 698h39l166 -650h3l178 650h48l178 -650h3l168 650h38l-184 -698h-46l-180 657h-3l-181 -657h-45zM424 764l-24 13l105 158l32 -17z" />
    <glyph glyph-name="Wcircumflex" unicode="&#x174;" horiz-adv-x="877" 
d="M210 0l-182 698h39l166 -650h3l178 650h48l178 -650h3l168 650h38l-184 -698h-46l-180 657h-3l-181 -657h-45zM457 926l124 -136l-21 -15l-124 124l-124 -124l-21 15l124 136h42z" />
    <glyph glyph-name="Wdieresis" unicode="&#x1e84;" horiz-adv-x="877" 
d="M210 0l-182 698h39l166 -650h3l178 650h48l178 -650h3l168 650h38l-184 -698h-46l-180 657h-3l-181 -657h-45zM345 812q-17 0 -23.5 8t-6.5 19v8q0 11 6.5 19t23.5 8q16 0 22.5 -8t6.5 -19v-8q0 -11 -6.5 -19t-22.5 -8zM527 812q-16 0 -22.5 8t-6.5 19v8q0 11 6.5 19
t22.5 8q17 0 23.5 -8t6.5 -19v-8q0 -11 -6.5 -19t-23.5 -8z" />
    <glyph glyph-name="Wgrave" unicode="&#x1e80;" horiz-adv-x="877" 
d="M210 0l-182 698h39l166 -650h3l178 650h48l178 -650h3l168 650h38l-184 -698h-46l-180 657h-3l-181 -657h-45zM334 918l32 17l105 -158l-24 -13z" />
    <glyph glyph-name="Yacute" unicode="&#xdd;" horiz-adv-x="557" 
d="M260 0v290l-241 408h42l216 -368h3l217 368h41l-241 -408v-290h-37zM267 764l-24 13l105 158l32 -17z" />
    <glyph glyph-name="Ycircumflex" unicode="&#x176;" horiz-adv-x="557" 
d="M260 0v290l-241 408h42l216 -368h3l217 368h41l-241 -408v-290h-37zM300 926l124 -136l-21 -15l-124 124l-124 -124l-21 15l124 136h42z" />
    <glyph glyph-name="uni1EF4" unicode="&#x1ef4;" horiz-adv-x="557" 
d="M260 0v290l-241 408h42l216 -368h3l217 368h41l-241 -408v-290h-37zM279 -142q-16 0 -23 8t-7 19v8q0 11 7 19t23 8t23 -8t7 -19v-8q0 -11 -7 -19t-23 -8z" />
    <glyph glyph-name="Ydieresis" unicode="&#x178;" horiz-adv-x="557" 
d="M260 0v290l-241 408h42l216 -368h3l217 368h41l-241 -408v-290h-37zM188 812q-17 0 -23.5 8t-6.5 19v8q0 11 6.5 19t23.5 8q16 0 22.5 -8t6.5 -19v-8q0 -11 -6.5 -19t-22.5 -8zM370 812q-16 0 -22.5 8t-6.5 19v8q0 11 6.5 19t22.5 8q17 0 23.5 -8t6.5 -19v-8
q0 -11 -6.5 -19t-23.5 -8z" />
    <glyph glyph-name="Ygrave" unicode="&#x1ef2;" horiz-adv-x="557" 
d="M260 0v290l-241 408h42l216 -368h3l217 368h41l-241 -408v-290h-37zM177 918l32 17l105 -158l-24 -13z" />
    <glyph glyph-name="uni1EF6" unicode="&#x1ef6;" horiz-adv-x="557" 
d="M260 0v290l-241 408h42l216 -368h3l217 368h41l-241 -408v-290h-37zM202 921h130q18 0 26 -7.5t8 -19.5q0 -9 -7.5 -23.5t-27.5 -44.5l-43 -65l-23 11l72 121h-135v28z" />
    <glyph glyph-name="uni1EF8" unicode="&#x1ef8;" horiz-adv-x="557" 
d="M260 0v290l-241 408h42l216 -368h3l217 368h41l-241 -408v-290h-37zM350 802q-19 0 -36.5 7.5t-40.5 21.5t-38 19.5t-29 5.5q-18 0 -33 -7.5t-31 -23.5l-17 18q17 20 37.5 31.5t45.5 11.5q19 0 36.5 -7.5t40.5 -21.5t38 -19.5t29 -5.5q18 0 33 7.5t31 23.5l17 -18
q-17 -20 -37.5 -31.5t-45.5 -11.5z" />
    <glyph glyph-name="Zacute" unicode="&#x179;" horiz-adv-x="561" 
d="M531 0h-493v35l434 630h-411v33h451v-35l-434 -630h453v-33zM275 764l-24 13l105 158l32 -17z" />
    <glyph glyph-name="Zcaron" unicode="&#x17d;" horiz-adv-x="561" 
d="M531 0h-493v35l434 630h-411v33h451v-35l-434 -630h453v-33zM266 780l-124 135l21 16l124 -125l124 125l21 -16l-124 -135h-42z" />
    <glyph glyph-name="Zdotaccent" unicode="&#x17b;" horiz-adv-x="561" 
d="M531 0h-493v35l434 630h-411v33h451v-35l-434 -630h453v-33zM287 812q-17 0 -24 8.5t-7 20.5v8q0 12 7 20.5t24 8.5t24 -8.5t7 -20.5v-8q0 -12 -7 -20.5t-24 -8.5z" />
    <glyph glyph-name="mu" unicode="&#xb5;" horiz-adv-x="568" 
d="M100 -200v708h35v-320q0 -87 38 -128t108 -41q30 0 57 8t48 24t33.5 40t12.5 57v360h35v-508h-35v78h-3q-7 -17 -19.5 -33.5t-31 -29t-44.5 -20t-59 -7.5q-106 0 -142 82h-3l5 -114v-156h-35z" />
    <glyph glyph-name="Delta" unicode="&#x2206;" horiz-adv-x="610" 
d="M40 33l241 665h48l241 -665v-33h-530v33zM306 662h-3l-225 -629h453z" />
    <glyph glyph-name="product" unicode="&#x220f;" horiz-adv-x="708" 
d="M139 -200v865h-74v33h578v-33h-74v-865h-37v865h-356v-865h-37z" />
    <glyph glyph-name="summation" unicode="&#x2211;" horiz-adv-x="487" 
d="M451 -200h-435v31l294 416v4l-294 416v31h435v-33h-393l287 -404v-24l-287 -404h393v-33z" />
    <glyph glyph-name="Omega" unicode="&#x2126;" horiz-adv-x="696" 
d="M73 33h173v15q-92 52 -134.5 130.5t-42.5 200.5q0 75 18 136.5t53 104.5t87 66.5t121 23.5t121 -23.5t87 -66.5t53 -104.5t18 -136.5q0 -122 -42.5 -200.5t-134.5 -130.5v-15h173v-33h-205v64q27 12 57 35.5t55 59t41 82t16 105.5v70q0 57 -16.5 105t-47.5 82.5t-75.5 54
t-99.5 19.5t-99.5 -19.5t-75.5 -54t-47.5 -82.5t-16.5 -105v-70q0 -59 16 -105.5t41 -82t55 -59t57 -35.5v-64h-205v33z" />
    <glyph glyph-name="alpha" unicode="&#x3b1;" horiz-adv-x="636" 
d="M596 0h-56q-20 0 -30.5 9t-16.5 37l-36 171h-3q-17 -65 -37 -109t-44.5 -70.5t-55 -38t-68.5 -11.5q-42 0 -77.5 17t-61 51t-39.5 83.5t-14 114.5t14 114.5t39.5 83.5t61 51t77.5 17q39 0 71 -11t57.5 -37t44.5 -70t32 -110h3l24 77l48 139h37l-92 -250l59 -227h63v-31z
M249 19q32 0 56.5 9t44.5 30t36.5 55.5t32.5 85.5l18 55l-19 65q-14 49 -30 82t-36.5 52.5t-46 27.5t-56.5 8q-33 0 -61 -14t-49 -41t-32.5 -65.5t-11.5 -87.5v-54q0 -49 11.5 -87.5t32.5 -65.5t49 -41t61 -14z" />
    <glyph glyph-name="alpha.alt01" horiz-adv-x="576" 
d="M546 0h-71q-43 0 -43 42v37h-3q-17 -36 -57 -63.5t-104 -27.5q-100 0 -155.5 67.5t-55.5 198.5t55.5 198.5t155.5 67.5q64 0 104 -27t57 -64h3v79h35v-477h79v-31zM273 20q32 0 61 9t50.5 26t34.5 40.5t13 52.5v214q0 28 -13 51.5t-34.5 40t-50.5 26t-61 9.5
q-85 0 -131.5 -55.5t-46.5 -150.5v-58q0 -95 46.5 -150t131.5 -55z" />
    <glyph glyph-name="beta" unicode="&#x3b2;" horiz-adv-x="573" 
d="M100 515q0 114 46.5 175.5t144.5 61.5q39 0 72 -12t57.5 -35t38.5 -56t14 -75q0 -35 -9.5 -63t-26 -48.5t-38.5 -34t-47 -19.5v-4q73 -12 115.5 -60.5t42.5 -140.5q0 -48 -14.5 -88t-41.5 -68.5t-65.5 -44t-86.5 -15.5q-66 0 -106.5 26t-57.5 60h-3v-274h-35v715z
M218 420h81q32 0 57 10.5t42.5 29.5t27 44t9.5 54v27q0 30 -10.5 54.5t-30 42.5t-46 28t-58.5 10q-155 0 -155 -198v-380q0 -28 13 -50.5t35.5 -38.5t51.5 -24.5t62 -8.5q43 0 76 14t55 37t33 52.5t11 60.5v42q0 74 -45 118.5t-126 44.5h-83v31z" />
    <glyph glyph-name="gamma" unicode="&#x3b3;" horiz-adv-x="477" 
d="M228 0l-168 477h-55v31h48q17 0 27 -6t15 -21l117 -333l32 -107h4l37 107l134 360h34l-190 -508v-200h-35v200z" />
    <glyph glyph-name="delta" unicode="&#x3b4;" horiz-adv-x="545" 
d="M200 709l-58 3v-1l146 -130q61 -55 99.5 -99.5t61 -84.5t31 -78.5t8.5 -80.5q0 -119 -57.5 -184.5t-158.5 -65.5q-50 0 -90 17.5t-67.5 51t-42.5 81t-15 107.5q0 62 18.5 110.5t52 82.5t80.5 52t104 18v5l-47 45l-156 144v38h342v-31h-251zM450 244q0 32 -5 60.5
t-18 57.5t-36 60.5t-59 69.5q-59 -2 -103.5 -20t-74 -48t-44.5 -70t-15 -85v-49q0 -45 12 -82t34.5 -63.5t55.5 -41t75 -14.5t75 14t56 39.5t35 61t12 78.5v32z" />
    <glyph glyph-name="epsilon" unicode="&#x3b5;" horiz-adv-x="524" 
d="M477 88q-26 -46 -75 -73t-134 -27q-95 0 -143 38t-48 105q0 52 31.5 86t87.5 44v3q-48 14 -75 42t-27 78q0 66 48 101t135 35q39 0 68.5 -6.5t52 -17t39 -25t29.5 -30.5l-26 -22q-11 14 -25 27t-33 22.5t-44.5 15t-59.5 5.5q-75 0 -110.5 -27.5t-35.5 -71.5v-12
q0 -42 33.5 -71.5t90.5 -29.5h121v-30h-122q-66 0 -103 -28.5t-37 -76.5v-19q0 -49 40.5 -76.5t113.5 -27.5q71 0 114 22t68 65z" />
    <glyph glyph-name="zeta" unicode="&#x3b6;" horiz-adv-x="428" 
d="M70 740h337v-30l-213 -260q-57 -69 -79 -120t-22 -96v-16q0 -34 9.5 -61t32 -49t58 -39t88.5 -30l70 -19q18 -5 25.5 -14t7.5 -21q0 -9 -3 -18l-34 -127l-32 9l36 138l-76 20q-63 16 -105 36.5t-67.5 46.5t-36.5 59.5t-11 76.5q0 25 5.5 51t18.5 54.5t34 61.5t52 71
l204 246v2l-56 -3h-243v31z" />
    <glyph glyph-name="eta" unicode="&#x3b7;" horiz-adv-x="568" 
d="M109 0v477h-79v31h72q42 0 42 -41v-37h3q15 37 52.5 63.5t102.5 26.5q85 0 129.5 -49.5t44.5 -144.5v-526h-35v520q0 88 -37.5 128.5t-108.5 40.5q-29 0 -56.5 -8t-48.5 -24t-33.5 -40t-12.5 -56v-361h-35z" />
    <glyph glyph-name="theta" unicode="&#x3b8;" horiz-adv-x="551" 
d="M276 752q48 0 87 -19t66 -63t41.5 -117.5t14.5 -182.5t-14.5 -182.5t-41.5 -117.5t-66 -63t-87 -19q-49 0 -87.5 19t-65.5 63t-41.5 117.5t-14.5 182.5t14.5 182.5t41.5 117.5t65.5 63t87.5 19zM276 19q40 0 72 16t54 52.5t33.5 95.5t11.5 145v27h-342v-27
q0 -86 11.5 -145t33.5 -95.5t53.5 -52.5t72.5 -16zM105 386h342v26q0 86 -11.5 145t-33.5 95.5t-54 52.5t-72 16q-41 0 -72.5 -16t-53.5 -52.5t-33.5 -95.5t-11.5 -145v-26z" />
    <glyph glyph-name="iota" unicode="&#x3b9;" horiz-adv-x="275" 
d="M246 0h-103q-43 0 -43 42v466h35v-477h111v-31z" />
    <glyph glyph-name="kappa" unicode="&#x3ba;" horiz-adv-x="499" 
d="M218 264l-83 -85v-179h-35v508h35v-286h3l70 74l189 199q13 13 33 13h46v-31h-53l-181 -190l242 -287h-43z" />
    <glyph glyph-name="lambda" unicode="&#x3bb;" horiz-adv-x="478" 
d="M141 709h-75v31h68q18 0 27 -6.5t14 -20.5l233 -682h57v-31h-50q-18 0 -27 6.5t-14 20.5l-80 233l-68 207h-3l-76 -208l-98 -259h-35l195 510z" />
    <glyph glyph-name="uni03BC" unicode="&#x3bc;" horiz-adv-x="576" 
d="M100 -200v708h35v-320q0 -87 38 -128t108 -41q30 0 57 8t48 24t33.5 40t12.5 57v360h35v-477h79v-31h-71q-43 0 -43 42v36h-3q-14 -38 -50.5 -64t-99.5 -26q-111 0 -148 92h-4l8 -129v-151h-35z" />
    <glyph glyph-name="nu" unicode="&#x3bd;" horiz-adv-x="479" 
d="M226 0l-166 477h-55v31h48q17 0 27 -6t15 -21l151 -443h3l172 470h35l-188 -508h-42z" />
    <glyph glyph-name="xi" unicode="&#x3be;" horiz-adv-x="461" 
d="M297 709q-39 0 -69 -11.5t-50.5 -31.5t-30.5 -46t-10 -54v-14q0 -64 37.5 -100t102.5 -36h81v-31h-80q-44 0 -77.5 -11.5t-56 -32t-33.5 -48.5t-11 -61v-15q0 -35 9.5 -61.5t32 -47.5t60 -38t94.5 -31l71 -19q18 -5 25.5 -14t7.5 -21q0 -9 -3 -18l-33 -127l-33 9l36 138
l-76 20q-66 17 -110 36.5t-70.5 45t-37.5 58.5t-11 77q0 33 10 62.5t29.5 52.5t48.5 39t67 22v3q-118 30 -118 156q0 50 28 91t81 55v4h-137v31h344v-31h-118z" />
    <glyph glyph-name="omicron" unicode="&#x3bf;" horiz-adv-x="544" 
d="M272 -12q-100 0 -157.5 68t-57.5 198q0 131 57.5 198.5t157.5 67.5t157.5 -67.5t57.5 -198.5q0 -130 -57.5 -198t-157.5 -68zM272 19q85 0 131 55.5t46 152.5v54q0 98 -46 153t-131 55t-131 -55t-46 -153v-54q0 -97 46 -152.5t131 -55.5z" />
    <glyph glyph-name="pi" unicode="&#x3c0;" horiz-adv-x="598" 
d="M455 31h72v-31h-65q-42 0 -42 42v435h-261v-477h-35v477h-95v31h532v-31h-106v-446z" />
    <glyph glyph-name="rho" unicode="&#x3c1;" horiz-adv-x="539" 
d="M71 263q0 124 53.5 190.5t152.5 66.5q97 0 150.5 -67t53.5 -198q0 -132 -56 -199.5t-156 -67.5q-63 0 -103 26t-57 59h-3v-273h-35v463zM265 19q87 0 132.5 55.5t45.5 152.5v54q0 97 -43.5 152.5t-124.5 55.5t-125 -57t-44 -160v-130q0 -28 13 -50.5t35 -38.5t50.5 -25
t60.5 -9z" />
    <glyph glyph-name="sigma1" unicode="&#x3c2;" horiz-adv-x="486" 
d="M376 -13l-88 23q-57 15 -100.5 36.5t-72.5 52.5t-43.5 73t-14.5 98q0 117 56 183.5t156 66.5q62 0 104 -28.5t66 -76.5l-30 -15q-22 43 -55.5 66t-84.5 23q-42 0 -74 -14.5t-54.5 -41t-34 -62.5t-11.5 -79v-40q0 -86 50.5 -135.5t155.5 -76.5l75 -20q33 -9 33 -35
q0 -4 -1 -8.5t-2 -9.5l-34 -127l-32 9z" />
    <glyph glyph-name="sigma" unicode="&#x3c3;" horiz-adv-x="558" 
d="M380 477v-4q54 -31 80.5 -84.5t26.5 -140.5q0 -125 -57.5 -192.5t-157.5 -67.5t-157.5 67.5t-57.5 192.5q0 124 58.5 192t164.5 68h251v-31h-151zM280 477q-89 0 -137 -55t-48 -148v-51q0 -94 46 -149t131 -55t131 55t46 149v51q0 65 -24.5 115.5t-79.5 87.5h-65z" />
    <glyph glyph-name="tau" unicode="&#x3c4;" horiz-adv-x="481" 
d="M255 0q-42 0 -42 42v435h-182v31h413v-31h-196v-446h117v-31h-110z" />
    <glyph glyph-name="upsilon" unicode="&#x3c5;" horiz-adv-x="551" 
d="M126 220q0 -56 9 -94.5t28 -62t47 -34t66 -10.5q37 0 65 10.5t47 34t28 62t9 94.5v288h35v-275q0 -132 -45 -188.5t-139 -56.5q-95 0 -140 56.5t-45 188.5v275h35v-288z" />
    <glyph glyph-name="phi" unicode="&#x3c6;" horiz-adv-x="686" 
d="M313 -12q-122 0 -188.5 68t-66.5 199q0 102 32.5 167t96.5 98l19 -26q-57 -28 -83.5 -84t-26.5 -132v-46q0 -102 55.5 -157.5t161.5 -55.5v253q0 132 40 190t115 58q76 0 115.5 -59t39.5 -193q0 -145 -71.5 -212.5t-203.5 -67.5v-188h-35v188zM348 19q117 0 177 54.5
t60 166.5v53q0 104 -29 150t-88 46q-61 0 -90.5 -49t-29.5 -155v-266z" />
    <glyph glyph-name="chi" unicode="&#x3c7;" horiz-adv-x="466" 
d="M62 508q18 0 27 -6t16 -22l127 -285h2l166 313h37l-184 -343l145 -334h59v-31h-52q-18 0 -27 6t-16 22l-131 306h-2l-171 -334h-37l189 364l-141 313h-59v31h52z" />
    <glyph glyph-name="psi" unicode="&#x3c8;" horiz-adv-x="701" 
d="M333 -200v188q-123 0 -182.5 58.5t-59.5 189.5v272h35v-288q0 -56 13.5 -94.5t39.5 -62t65 -34t89 -10.5v691h35v-691q50 0 88.5 10.5t64.5 34t39.5 62t13.5 94.5v288h35v-272q0 -131 -59 -189.5t-182 -58.5v-188h-35z" />
    <glyph glyph-name="omega" unicode="&#x3c9;" horiz-adv-x="707" 
d="M371 223q0 -59 8.5 -98.5t24.5 -63t37.5 -33t47.5 -9.5q59 0 88 46t29 150v49q0 87 -26.5 144.5t-83.5 85.5l19 26q64 -33 96.5 -100t32.5 -180q0 -134 -39.5 -193t-112.5 -59q-60 0 -93.5 36t-43.5 102h-4q-9 -66 -42.5 -102t-93.5 -36q-73 0 -112.5 59t-39.5 193
q0 113 32.5 180t96.5 100l19 -26q-57 -28 -83.5 -85.5t-26.5 -144.5v-49q0 -104 29 -150t88 -46q26 0 47.5 9.5t37.5 33t24.5 63t8.5 98.5v126h35v-126z" />
    <glyph glyph-name="Alpha" unicode="&#x391;" horiz-adv-x="610" 
d="M541 0l-81 227h-311l-81 -227h-38l251 698h48l251 -698h-39zM306 662h-4l-143 -403h291z" />
    <glyph glyph-name="Beta" unicode="&#x392;" horiz-adv-x="624" 
d="M104 698h261q78 0 121 -44.5t43 -127.5q0 -69 -28.5 -106t-72.5 -50v-3q59 -10 95 -53.5t36 -121.5q0 -87 -45.5 -139.5t-129.5 -52.5h-280v698zM141 33h237q36 0 62.5 11t44.5 30t26.5 44t8.5 53v40q0 28 -8.5 53.5t-26.5 44.5t-44.5 30t-62.5 11h-237v-317zM141 382
h221q32 0 56 10t40 26.5t24 38.5t8 47v40q0 25 -8 47t-24 38.5t-40 26t-56 9.5h-221v-283z" />
    <glyph glyph-name="Gamma" unicode="&#x393;" horiz-adv-x="504" 
d="M104 698h361v-33h-324v-665h-37v698z" />
    <glyph glyph-name="uni0394" unicode="&#x394;" horiz-adv-x="610" 
d="M40 33l241 665h48l241 -665v-33h-530v33zM306 662h-3l-225 -629h453z" />
    <glyph glyph-name="Epsilon" unicode="&#x395;" horiz-adv-x="566" 
d="M104 0v698h392v-33h-355v-294h341v-33h-341v-305h355v-33h-392z" />
    <glyph glyph-name="Zeta" unicode="&#x396;" horiz-adv-x="561" 
d="M531 0h-493v35l434 630h-411v33h451v-35l-434 -630h453v-33z" />
    <glyph glyph-name="Eta" unicode="&#x397;" horiz-adv-x="695" 
d="M554 338h-413v-338h-37v698h37v-327h413v327h37v-698h-37v338z" />
    <glyph glyph-name="Theta" unicode="&#x398;" horiz-adv-x="686" 
d="M343 -12q-131 0 -203.5 90.5t-72.5 270.5t72.5 270.5t203.5 90.5t203.5 -90.5t72.5 -270.5t-72.5 -270.5t-203.5 -90.5zM343 21q109 0 172.5 76t63.5 222v60q0 146 -63.5 222t-172.5 76t-172.5 -76t-63.5 -222v-60q0 -146 63.5 -222t172.5 -76zM184 337v33h318v-33h-318z
" />
    <glyph glyph-name="Iota" unicode="&#x399;" horiz-adv-x="379" 
d="M66 0v31h105v636h-105v31h247v-31h-105v-636h105v-31h-247z" />
    <glyph glyph-name="Kappa" unicode="&#x39a;" horiz-adv-x="587" 
d="M268 377l-127 -139v-238h-37v698h37v-414h2l123 137l248 277h46l-267 -296l273 -402h-44z" />
    <glyph glyph-name="Lambda" unicode="&#x39b;" horiz-adv-x="599" 
d="M324 698l245 -698h-38l-230 662h-4l-229 -662h-38l245 698h49z" />
    <glyph glyph-name="Mu" unicode="&#x39c;" horiz-adv-x="800" 
d="M660 653h-4l-256 -433l-256 432h-4v-652h-36v698h52l243 -410h4l242 410h51v-698h-36v653z" />
    <glyph glyph-name="Nu" unicode="&#x39d;" horiz-adv-x="696" 
d="M143 650h-3v-650h-36v698h49l400 -650h3v650h36v-698h-50z" />
    <glyph glyph-name="Xi" unicode="&#x39e;" horiz-adv-x="562" 
d="M70 698h422v-33h-422v33zM104 371h354v-33h-354v33zM70 33h422v-33h-422v33z" />
    <glyph glyph-name="Omicron" unicode="&#x39f;" horiz-adv-x="686" 
d="M343 -12q-131 0 -203.5 90.5t-72.5 270.5t72.5 270.5t203.5 90.5t203.5 -90.5t72.5 -270.5t-72.5 -270.5t-203.5 -90.5zM343 21q109 0 172.5 76t63.5 222v60q0 146 -63.5 222t-172.5 76t-172.5 -76t-63.5 -222v-60q0 -146 63.5 -222t172.5 -76z" />
    <glyph glyph-name="Pi" unicode="&#x3a0;" horiz-adv-x="682" 
d="M104 698h473v-698h-37v665h-399v-665h-37v698z" />
    <glyph glyph-name="Rho" unicode="&#x3a1;" horiz-adv-x="597" 
d="M104 0v698h271q88 0 133.5 -51.5t45.5 -139.5t-45.5 -139.5t-133.5 -51.5h-234v-316h-37zM141 349h234q35 0 61 11t43.5 29.5t26 43.5t8.5 52v44q0 27 -8.5 52t-26 43.5t-43.5 29.5t-61 11h-234v-316z" />
    <glyph glyph-name="Sigma" unicode="&#x3a3;" horiz-adv-x="571" 
d="M48 0v35l269 319l-263 309v35h451v-33h-409l264 -310l-271 -322h416v-33h-457z" />
    <glyph glyph-name="Tau" unicode="&#x3a4;" horiz-adv-x="563" 
d="M300 665v-665h-37v665h-245v33h527v-33h-245z" />
    <glyph glyph-name="Upsilon" unicode="&#x3a5;" horiz-adv-x="557" 
d="M260 0v290l-241 408h42l216 -368h3l217 368h41l-241 -408v-290h-37z" />
    <glyph glyph-name="Phi" unicode="&#x3a6;" horiz-adv-x="833" 
d="M398 36h-32q-74 0 -130.5 22.5t-94.5 64.5t-58 100.5t-20 130.5t20 130.5t58 100.5t94.5 64.5t130.5 22.5h32v53h37v-53h32q73 0 130 -22.5t95 -64.5t58 -100.5t20 -130.5t-20 -130.5t-58 -100.5t-95 -64.5t-130 -22.5h-32v-65h-37v65zM398 641h-32q-65 0 -114 -21
t-82 -56t-50 -82t-17 -98v-60q0 -51 17 -98t50 -82t82 -56t114 -21h32v574zM467 67q65 0 114 21t82 56t50 82t17 98v60q0 51 -17 98t-50 82t-82 56t-114 21h-32v-574h32z" />
    <glyph glyph-name="Chi" unicode="&#x3a7;" horiz-adv-x="571" 
d="M544 0h-44l-213 325h-2l-215 -325h-43l236 354l-228 344h44l206 -312h2l206 312h43l-227 -341z" />
    <glyph glyph-name="Psi" unicode="&#x3a8;" horiz-adv-x="759" 
d="M361 207q-66 0 -119 14.5t-89.5 46.5t-56 83.5t-19.5 125.5v221h37v-222q0 -66 16.5 -111t48.5 -73t77.5 -40.5t104.5 -12.5v459h37v-459q58 0 104 12.5t78 40.5t48.5 73t16.5 111v222h37v-221q0 -74 -19.5 -125.5t-56 -83.5t-89.5 -46.5t-119 -14.5v-207h-37v207z" />
    <glyph glyph-name="uni03A9" unicode="&#x3a9;" horiz-adv-x="696" 
d="M73 33h173v15q-92 52 -134.5 130.5t-42.5 200.5q0 75 18 136.5t53 104.5t87 66.5t121 23.5t121 -23.5t87 -66.5t53 -104.5t18 -136.5q0 -122 -42.5 -200.5t-134.5 -130.5v-15h173v-33h-205v64q27 12 57 35.5t55 59t41 82t16 105.5v70q0 57 -16.5 105t-47.5 82.5t-75.5 54
t-99.5 19.5t-99.5 -19.5t-75.5 -54t-47.5 -82.5t-16.5 -105v-70q0 -59 16 -105.5t41 -82t55 -59t57 -35.5v-64h-205v33z" />
    <glyph glyph-name="alphatonos" unicode="&#x3ac;" horiz-adv-x="636" 
d="M277 587l-26 6l59 165l35 -9zM596 0h-56q-20 0 -30.5 9t-16.5 37l-36 171h-3q-17 -65 -37 -109t-44.5 -70.5t-55 -38t-68.5 -11.5q-42 0 -77.5 17t-61 51t-39.5 83.5t-14 114.5t14 114.5t39.5 83.5t61 51t77.5 17q39 0 71 -11t57.5 -37t44.5 -70t32 -110h3l24 77l48 139
h37l-92 -250l59 -227h63v-31zM249 19q32 0 56.5 9t44.5 30t36.5 55.5t32.5 85.5l18 55l-19 65q-14 49 -30 82t-36.5 52.5t-46 27.5t-56.5 8q-33 0 -61 -14t-49 -41t-32.5 -65.5t-11.5 -87.5v-54q0 -49 11.5 -87.5t32.5 -65.5t49 -41t61 -14z" />
    <glyph glyph-name="alphatonos.alt01" horiz-adv-x="576" 
d="M546 0h-71q-43 0 -43 42v37h-3q-17 -36 -57 -63.5t-104 -27.5q-100 0 -155.5 67.5t-55.5 198.5t55.5 198.5t155.5 67.5q64 0 104 -27t57 -64h3v79h35v-477h79v-31zM273 20q32 0 61 9t50.5 26t34.5 40.5t13 52.5v214q0 28 -13 51.5t-34.5 40t-50.5 26t-61 9.5
q-85 0 -131.5 -55.5t-46.5 -150.5v-58q0 -95 46.5 -150t131.5 -55zM279 587l-26 6l59 165l35 -9z" />
    <glyph glyph-name="epsilontonos" unicode="&#x3ad;" horiz-adv-x="524" 
d="M477 88q-26 -46 -75 -73t-134 -27q-95 0 -143 38t-48 105q0 52 31.5 86t87.5 44v3q-48 14 -75 42t-27 78q0 66 48 101t135 35q39 0 68.5 -6.5t52 -17t39 -25t29.5 -30.5l-26 -22q-11 14 -25 27t-33 22.5t-44.5 15t-59.5 5.5q-75 0 -110.5 -27.5t-35.5 -71.5v-12
q0 -42 33.5 -71.5t90.5 -29.5h121v-30h-122q-66 0 -103 -28.5t-37 -76.5v-19q0 -49 40.5 -76.5t113.5 -27.5q71 0 114 22t68 65zM283 587l-26 6l59 165l35 -9z" />
    <glyph glyph-name="etatonos" unicode="&#x3ae;" horiz-adv-x="568" 
d="M302 587l-26 6l59 165l35 -9zM109 0v477h-79v31h72q42 0 42 -41v-37h3q15 37 52.5 63.5t102.5 26.5q85 0 129.5 -49.5t44.5 -144.5v-526h-35v520q0 88 -37.5 128.5t-108.5 40.5q-29 0 -56.5 -8t-48.5 -24t-33.5 -40t-12.5 -56v-361h-35z" />
    <glyph glyph-name="iotatonos" unicode="&#x3af;" horiz-adv-x="275" 
d="M133 587l-26 6l59 165l35 -9zM246 0h-103q-43 0 -43 42v466h35v-477h111v-31z" />
    <glyph glyph-name="iotadieresis" unicode="&#x3ca;" horiz-adv-x="275" 
d="M36 636q-17 0 -23.5 8t-6.5 19v8q0 11 6.5 19t23.5 8q16 0 22.5 -8t6.5 -19v-8q0 -11 -6.5 -19t-22.5 -8zM218 636q-16 0 -22.5 8t-6.5 19v8q0 11 6.5 19t22.5 8q17 0 23.5 -8t6.5 -19v-8q0 -11 -6.5 -19t-23.5 -8zM246 0h-103q-43 0 -43 42v466h35v-477h111v-31z" />
    <glyph glyph-name="iotadieresistonos" unicode="&#x390;" horiz-adv-x="275" 
d="M36 636q-15 0 -21.5 8t-6.5 19v8q0 11 6.5 19t21.5 8t21.5 -8t6.5 -19v-8q0 -11 -6.5 -19t-21.5 -8zM230 636q-15 0 -21.5 8t-6.5 19v8q0 11 6.5 19t21.5 8t21.5 -8t6.5 -19v-8q0 -11 -6.5 -19t-21.5 -8zM114 587l-24 6l59 165l33 -9zM246 0h-103q-43 0 -43 42v466h35
v-477h111v-31z" />
    <glyph glyph-name="omicrontonos" unicode="&#x3cc;" horiz-adv-x="544" 
d="M280 587l-26 6l59 165l35 -9zM272 -12q-100 0 -157.5 68t-57.5 198q0 131 57.5 198.5t157.5 67.5t157.5 -67.5t57.5 -198.5q0 -130 -57.5 -198t-157.5 -68zM272 19q85 0 131 55.5t46 152.5v54q0 98 -46 153t-131 55t-131 -55t-46 -153v-54q0 -97 46 -152.5t131 -55.5z
" />
    <glyph glyph-name="upsilontonos" unicode="&#x3cd;" horiz-adv-x="551" 
d="M283 587l-26 6l59 165l35 -9zM126 220q0 -56 9 -94.5t28 -62t47 -34t66 -10.5q37 0 65 10.5t47 34t28 62t9 94.5v288h35v-275q0 -132 -45 -188.5t-139 -56.5q-95 0 -140 56.5t-45 188.5v275h35v-288z" />
    <glyph glyph-name="upsilondieresis" unicode="&#x3cb;" horiz-adv-x="551" 
d="M186 636q-17 0 -23.5 8t-6.5 19v8q0 11 6.5 19t23.5 8q16 0 22.5 -8t6.5 -19v-8q0 -11 -6.5 -19t-22.5 -8zM368 636q-16 0 -22.5 8t-6.5 19v8q0 11 6.5 19t22.5 8q17 0 23.5 -8t6.5 -19v-8q0 -11 -6.5 -19t-23.5 -8zM126 220q0 -56 9 -94.5t28 -62t47 -34t66 -10.5
q37 0 65 10.5t47 34t28 62t9 94.5v288h35v-275q0 -132 -45 -188.5t-139 -56.5q-95 0 -140 56.5t-45 188.5v275h35v-288z" />
    <glyph glyph-name="upsilondieresistonos" unicode="&#x3b0;" horiz-adv-x="551" 
d="M186 636q-15 0 -21.5 8t-6.5 19v8q0 11 6.5 19t21.5 8t21.5 -8t6.5 -19v-8q0 -11 -6.5 -19t-21.5 -8zM380 636q-15 0 -21.5 8t-6.5 19v8q0 11 6.5 19t21.5 8t21.5 -8t6.5 -19v-8q0 -11 -6.5 -19t-21.5 -8zM264 587l-24 6l59 165l33 -9zM126 220q0 -56 9 -94.5t28 -62
t47 -34t66 -10.5q37 0 65 10.5t47 34t28 62t9 94.5v288h35v-275q0 -132 -45 -188.5t-139 -56.5q-95 0 -140 56.5t-45 188.5v275h35v-288z" />
    <glyph glyph-name="omegatonos" unicode="&#x3ce;" horiz-adv-x="707" 
d="M371 223q0 -59 8.5 -98.5t24.5 -63t37.5 -33t47.5 -9.5q59 0 88 46t29 150v49q0 87 -26.5 144.5t-83.5 85.5l19 26q64 -33 96.5 -100t32.5 -180q0 -134 -39.5 -193t-112.5 -59q-60 0 -93.5 36t-43.5 102h-4q-9 -66 -42.5 -102t-93.5 -36q-73 0 -112.5 59t-39.5 193
q0 113 32.5 180t96.5 100l19 -26q-57 -28 -83.5 -85.5t-26.5 -144.5v-49q0 -104 29 -150t88 -46q26 0 47.5 9.5t37.5 33t24.5 63t8.5 98.5v126h35v-126zM359 587l-26 6l59 165l35 -9z" />
    <glyph glyph-name="Alphatonos" unicode="&#x386;" horiz-adv-x="610" 
d="M541 0l-81 227h-311l-81 -227h-38l251 698h48l251 -698h-39zM306 662h-4l-143 -403h291zM103 587l-26 6l59 165l35 -9z" />
    <glyph glyph-name="Epsilontonos" unicode="&#x388;" horiz-adv-x="588" 
d="M126 0v698h392v-33h-355v-294h341v-33h-341v-305h355v-33h-392zM5 587l-26 6l59 165l35 -9z" />
    <glyph glyph-name="Etatonos" unicode="&#x389;" horiz-adv-x="717" 
d="M576 338h-413v-338h-37v698h37v-327h413v327h37v-698h-37v338zM5 587l-26 6l59 165l35 -9z" />
    <glyph glyph-name="Iotatonos" unicode="&#x38a;" horiz-adv-x="432" 
d="M118 0v31h105v636h-105v31h247v-31h-105v-636h105v-31h-247zM5 587l-26 6l59 165l35 -9z" />
    <glyph glyph-name="Iotadieresis" unicode="&#x3aa;" horiz-adv-x="379" 
d="M66 0v31h105v636h-105v31h247v-31h-105v-636h105v-31h-247zM99 812q-17 0 -23.5 8t-6.5 19v8q0 11 6.5 19t23.5 8q16 0 22.5 -8t6.5 -19v-8q0 -11 -6.5 -19t-22.5 -8zM281 812q-16 0 -22.5 8t-6.5 19v8q0 11 6.5 19t22.5 8q17 0 23.5 -8t6.5 -19v-8q0 -11 -6.5 -19
t-23.5 -8z" />
    <glyph glyph-name="Omicrontonos" unicode="&#x38c;" horiz-adv-x="686" 
d="M343 -12q-131 0 -203.5 90.5t-72.5 270.5t72.5 270.5t203.5 90.5t203.5 -90.5t72.5 -270.5t-72.5 -270.5t-203.5 -90.5zM343 21q109 0 172.5 76t63.5 222v60q0 146 -63.5 222t-172.5 76t-172.5 -76t-63.5 -222v-60q0 -146 63.5 -222t172.5 -76zM5 587l-26 6l59 165l35 -9
z" />
    <glyph glyph-name="Upsilontonos" unicode="&#x38e;" horiz-adv-x="637" 
d="M340 0v290l-241 408h42l216 -368h3l217 368h41l-241 -408v-290h-37zM5 587l-26 6l59 165l35 -9z" />
    <glyph glyph-name="Upsilondieresis" unicode="&#x3ab;" horiz-adv-x="557" 
d="M260 0v290l-241 408h42l216 -368h3l217 368h41l-241 -408v-290h-37zM188 812q-17 0 -23.5 8t-6.5 19v8q0 11 6.5 19t23.5 8q16 0 22.5 -8t6.5 -19v-8q0 -11 -6.5 -19t-22.5 -8zM370 812q-16 0 -22.5 8t-6.5 19v8q0 11 6.5 19t22.5 8q17 0 23.5 -8t6.5 -19v-8
q0 -11 -6.5 -19t-23.5 -8z" />
    <glyph glyph-name="Omegatonos" unicode="&#x38f;" horiz-adv-x="696" 
d="M73 33h173v15q-92 52 -134.5 130.5t-42.5 200.5q0 75 18 136.5t53 104.5t87 66.5t121 23.5t121 -23.5t87 -66.5t53 -104.5t18 -136.5q0 -122 -42.5 -200.5t-134.5 -130.5v-15h173v-33h-205v64q27 12 57 35.5t55 59t41 82t16 105.5v70q0 57 -16.5 105t-47.5 82.5t-75.5 54
t-99.5 19.5t-99.5 -19.5t-75.5 -54t-47.5 -82.5t-16.5 -105v-70q0 -59 16 -105.5t41 -82t55 -59t57 -35.5v-64h-205v33zM5 587l-26 6l59 165l35 -9z" />
    <glyph glyph-name="uni0430" unicode="&#x430;" horiz-adv-x="522" 
d="M431 0q-41 0 -43 42v37h-4q-18 -39 -57 -65t-105 -26q-79 0 -122 38t-43 107q0 33 10 60t33.5 46.5t61 30t92.5 10.5h133v68q0 72 -35 106.5t-104 34.5q-107 0 -148 -90l-25 17q21 47 62 75.5t112 28.5q85 0 129 -43.5t44 -124.5v-321h78v-31h-69zM225 19q33 0 62.5 8.5
t51.5 24.5t35 40t13 56v104h-133q-84 0 -122 -28.5t-38 -75.5v-28q0 -50 36.5 -75.5t94.5 -25.5z" />
    <glyph glyph-name="uni0430.alt01" horiz-adv-x="567" 
d="M432 79h-3q-17 -36 -57 -63.5t-104 -27.5q-100 0 -155.5 67.5t-55.5 198.5t55.5 198.5t155.5 67.5q64 0 104 -27t57 -64h3v79h35v-508h-35v79zM273 20q32 0 61 9t50.5 26t34.5 40.5t13 52.5v214q0 28 -13 51.5t-34.5 40t-50.5 26t-61 9.5q-85 0 -131.5 -55.5
t-46.5 -150.5v-58q0 -95 46.5 -150t131.5 -55z" />
    <glyph glyph-name="uni0431" unicode="&#x431;" horiz-adv-x="549" 
d="M276 -12q-69 0 -117.5 31.5t-74.5 96.5q-14 34 -18.5 73t-4.5 90q0 126 12 211t41.5 137t78 76.5t121.5 30.5l141 12v-34l-143 -12q-63 -5 -102 -25t-61.5 -57.5t-33 -94.5t-16.5 -136h3q25 68 72.5 94.5t104.5 26.5q103 0 158 -67.5t55 -192.5q0 -122 -56.5 -191
t-159.5 -69zM277 19q81 0 129 53.5t48 149.5v50q0 97 -47.5 151t-131.5 54q-83 0 -129.5 -52.5t-46.5 -143.5v-57q0 -97 48 -151t130 -54z" />
    <glyph glyph-name="uni0432" unicode="&#x432;" horiz-adv-x="552" 
d="M100 508h234q56 0 87.5 -32t31.5 -93q0 -51 -22.5 -79t-63.5 -39v-2q108 -17 108 -122q0 -63 -33 -102t-96 -39h-246v508zM340 31q50 0 73.5 28t23.5 67v28q0 38 -26.5 65t-82.5 27h-193v-215h205zM322 276q48 0 70.5 26.5t22.5 63.5v28q0 35 -21 59t-65 24h-194v-201
h187z" />
    <glyph glyph-name="uni0433" unicode="&#x433;" horiz-adv-x="440" 
d="M100 508h304v-31h-269v-477h-35v508z" />
    <glyph glyph-name="uni0434" unicode="&#x434;" horiz-adv-x="560" 
d="M6 31h53q38 59 59.5 141.5t21.5 185.5v150h302v-477h77v-171h-33v140h-447v-140h-33v171zM407 31v446h-233v-120q0 -108 -22 -191.5t-55 -134.5h310z" />
    <glyph glyph-name="uni0435" unicode="&#x435;" horiz-adv-x="537" 
d="M275 -12q-101 0 -159.5 68t-58.5 198q0 129 57 197.5t157 68.5q47 0 85.5 -18t66 -51t42.5 -79.5t15 -103.5v-16h-386v-27q0 -47 12 -85t35.5 -65t57 -41.5t76.5 -14.5q121 0 167 116l27 -15q-23 -60 -72 -96t-122 -36zM271 489q-42 0 -74.5 -14.5t-55.5 -41.5t-35 -65
t-12 -84v-4h348v6q0 46 -12.5 83.5t-35 64t-54 41t-69.5 14.5z" />
    <glyph glyph-name="uni0436" unicode="&#x436;" horiz-adv-x="745" 
d="M42 31h57l97 191q12 24 20 32t21 10v3q-12 3 -20 11.5t-18 26.5l-93 172h-57v31h48q16 0 26 -7t19 -24l106 -196h107v227h35v-227h107l106 196q9 17 19 24t26 7h48v-31h-57l-93 -172q-10 -18 -18 -26.5t-20 -11.5v-3q13 -2 21 -10t20 -32l97 -191h57v-31h-54q-14 0 -23 6
t-17 23l-112 221h-107v-250h-35v250h-107l-112 -221q-8 -17 -17 -23t-23 -6h-54v31z" />
    <glyph glyph-name="uni0437" unicode="&#x437;" horiz-adv-x="496" 
d="M232 -12q-73 0 -116 26.5t-69 71.5l27 20q24 -42 62.5 -64.5t95.5 -22.5q69 0 109.5 29.5t40.5 77.5v19q0 49 -35.5 75.5t-96.5 26.5h-103v30h100q55 0 89.5 28.5t34.5 70.5v17q0 44 -35 70t-98 26q-60 0 -96 -22.5t-59 -64.5l-26 18q23 45 66.5 72.5t115.5 27.5
q81 0 124.5 -35t43.5 -97q0 -51 -28 -82t-75 -40v-4q54 -7 84.5 -38t30.5 -87q0 -69 -49.5 -109t-137.5 -40z" />
    <glyph glyph-name="uni0438" unicode="&#x438;" horiz-adv-x="579" 
d="M100 508h35v-376l-4 -82h4l44 72l268 386h32v-508h-35v377l4 82h-4l-44 -73l-268 -386h-32v508z" />
    <glyph glyph-name="uni0439" unicode="&#x439;" horiz-adv-x="579" 
d="M100 508h35v-376l-4 -82h4l44 72l268 386h32v-508h-35v377l4 82h-4l-44 -73l-268 -386h-32v508zM289 604q-50 0 -78 26t-45 62l-14 28l30 13l35 -70q28 -32 72 -32t72 32l35 70l30 -13l-14 -28q-17 -36 -45 -62t-78 -26z" />
    <glyph glyph-name="uni043A" unicode="&#x43a;" horiz-adv-x="527" 
d="M100 508h35v-227h118l133 200q11 16 20 21.5t23 5.5h48v-31h-57l-115 -173q-12 -19 -20.5 -26t-20.5 -11v-3q14 -3 22.5 -10t22.5 -30l118 -193h57v-31h-53q-14 0 -23 5.5t-18 20.5l-137 224h-118v-250h-35v508z" />
    <glyph glyph-name="uni043B" unicode="&#x43b;" horiz-adv-x="545" 
d="M5 31h60q15 17 29.5 43.5t25 66t17 93t6.5 124.5v150h302v-508h-35v477h-233v-119q0 -73 -7 -129t-18.5 -97.5t-26.5 -69.5t-31 -44q-11 -11 -22 -14.5t-27 -3.5h-40v31z" />
    </font>
</defs>
</svg>
